SplineFontDB: 3.0
FontName: MerriweatherSans-Regular
FullName: Merriweather Sans
FamilyName: Merriweather Sans
Weight: Light
Copyright: Copyright (c) 2013, Sorkin Type Co (www.sorkintype.com) with Reserved Font Name 'Merriweather'
Version: 1.002; ttfautohint (v0.93.8-669f) -l 8 -r 24 -G 200 -x 11 -w "gG" -W -c
ItalicAngle: 0
UnderlinePosition: -212
UnderlineWidth: 137
Ascent: 1638
Descent: 410
sfntRevision: 0x00010000
LayerCount: 2
Layer: 0 1 "Back"  1
Layer: 1 1 "Fore"  0
XUID: [1021 631 1661839179 7678357]
FSType: 0
OS2Version: 3
OS2_WeightWidthSlopeOnly: 0
OS2_UseTypoMetrics: 1
CreationTime: 1360956960
ModificationTime: 1360941101
PfmFamily: 17
TTFWeight: 400
TTFWidth: 5
LineGap: 0
VLineGap: 0
Panose: 2 0 5 3 6 0 0 2 0 4
OS2TypoAscent: 2000
OS2TypoAOffset: 0
OS2TypoDescent: -640
OS2TypoDOffset: 0
OS2TypoLinegap: 0
OS2WinAscent: 2000
OS2WinAOffset: 0
OS2WinDescent: 640
OS2WinDOffset: 0
HheadAscent: 2000
HheadAOffset: 0
HheadDescent: -640
HheadDOffset: 0
OS2SubXSize: -13867
OS2SubYSize: -17578
OS2SubXOff: 0
OS2SubYOff: 10342
OS2SupXSize: -13867
OS2SupYSize: -17578
OS2SupXOff: 0
OS2SupYOff: -30333
OS2StrikeYSize: 137
OS2StrikeYPos: 771
OS2FamilyClass: 768
OS2Vendor: 'STC '
OS2CodePages: 20000093.00000000
OS2UnicodeRanges: a00000af.5000204a.00000000.00000000
Lookup: 1 0 0 "'aalt' Access All Alternates in Latin lookup 0"  {"'aalt' Access All Alternates in Latin lookup 0 subtable"  } ['aalt' ('DFLT' <'dflt' > 'latn' <'AZE ' 'CRT ' 'MOL ' 'ROM ' 'TRK ' 'dflt' > ) ]
Lookup: 3 0 0 "'aalt' Access All Alternates in Latin lookup 1"  {"'aalt' Access All Alternates in Latin lookup 1 subtable"  } ['aalt' ('DFLT' <'dflt' > 'latn' <'AZE ' 'CRT ' 'MOL ' 'ROM ' 'TRK ' 'dflt' > ) ]
Lookup: 1 0 0 "'locl' Localized Forms lookup 2"  {"'locl' Localized Forms lookup 2 subtable"  } ['locl' ('DFLT' <'AZE ' > ) ]
Lookup: 1 0 0 "'locl' Localized Forms lookup 3"  {"'locl' Localized Forms lookup 3 subtable"  } ['locl' ('DFLT' <'TRK ' > ) ]

StartChar: .notdef
Encoding: 65536 -1 0
Width: 1872
Flags: W
LayerCount: 2
Fore
SplineSet
228 1416 m 1,0,-1
 1644 1416 l 1,1,-1
 1644 0 l 1,2,-1
 228 0 l 1,3,-1
 228 1416 l 1,0,-1
586 219 m 1,4,-1
 933 587 l 1,5,-1
 1295 219 l 1,6,-1
 1417 341 l 1,7,-1
 1054 709 l 1,8,-1
 1417 1067 l 1,9,-1
 1289 1191 l 1,10,-1
 937 825 l 1,11,-1
 580 1193 l 1,12,-1
 457 1068 l 1,13,-1
 816 705 l 1,14,-1
 458 363 l 1,15,-1
 586 219 l 1,4,-1
EndSplineSet
EndChar

StartChar: numbersign
Encoding: 35 35 4
Width: 1563
Flags: W
LayerCount: 2
Fore
SplineSet
409 355 m 1,0,-1
 207 355 l 1,1,-1
 207 511 l 1,2,-1
 423 511 l 1,3,-1
 456 880 l 1,4,-1
 241 880 l 1,5,-1
 241 1033 l 1,6,-1
 470 1033 l 1,7,-1
 501 1373 l 1,8,-1
 692 1373 l 1,9,-1
 660 1033 l 1,10,-1
 967 1033 l 1,11,-1
 997 1373 l 1,12,-1
 1187 1373 l 1,13,-1
 1156 1033 l 1,14,-1
 1378 1033 l 1,15,-1
 1378 880 l 1,16,-1
 1142 880 l 1,17,-1
 1108 511 l 1,18,-1
 1334 511 l 1,19,-1
 1334 355 l 1,20,-1
 1093 355 l 1,21,-1
 1061 0 l 1,22,-1
 876 0 l 1,23,-1
 907 355 l 1,24,-1
 597 355 l 1,25,-1
 564 0 l 1,26,-1
 377 0 l 1,27,-1
 409 355 l 1,0,-1
921 511 m 1,28,-1
 953 880 l 1,29,-1
 646 880 l 1,30,-1
 611 511 l 1,31,-1
 921 511 l 1,28,-1
EndSplineSet
EndChar

StartChar: ampersand
Encoding: 38 38 5
Width: 1532
Flags: W
LayerCount: 2
Fore
SplineSet
147 394 m 0,0,1
 147 464 147 464 171.5 523 c 128,-1,2
 196 582 196 582 238 630.5 c 128,-1,3
 280 679 280 679 336.5 718 c 128,-1,4
 393 757 393 757 458 787 c 1,5,6
 427 829 427 829 396.5 874 c 128,-1,7
 366 919 366 919 342 969 c 128,-1,8
 318 1019 318 1019 303.5 1073.5 c 128,-1,9
 289 1128 289 1128 289 1188 c 0,10,11
 289 1271 289 1271 318 1337.5 c 128,-1,12
 347 1404 347 1404 401 1450.5 c 128,-1,13
 455 1497 455 1497 531.5 1521.5 c 128,-1,14
 608 1546 608 1546 703 1546 c 0,15,16
 791 1546 791 1546 860.5 1517.5 c 128,-1,17
 930 1489 930 1489 978 1441 c 128,-1,18
 1026 1393 1026 1393 1051.5 1331 c 128,-1,19
 1077 1269 1077 1269 1077 1202 c 0,20,21
 1077 1109 1077 1109 1054 1037.5 c 128,-1,22
 1031 966 1031 966 987 909.5 c 128,-1,23
 943 853 943 853 880 809.5 c 128,-1,24
 817 766 817 766 738 729 c 1,25,26
 766 689 766 689 809 632 c 128,-1,27
 852 575 852 575 899.5 514.5 c 128,-1,28
 947 454 947 454 994.5 395.5 c 128,-1,29
 1042 337 1042 337 1081 295 c 1,30,31
 1119 335 1119 335 1141 390 c 128,-1,32
 1163 445 1163 445 1163 523 c 0,33,34
 1163 558 1163 558 1159 590.5 c 128,-1,35
 1155 623 1155 623 1149.5 650 c 128,-1,36
 1144 677 1144 677 1138.5 697 c 128,-1,37
 1133 717 1133 717 1130 728 c 1,38,-1
 1322 728 l 1,39,40
 1330 702 1330 702 1340.5 648 c 128,-1,41
 1351 594 1351 594 1351 522 c 0,42,43
 1351 410 1351 410 1315.5 325 c 128,-1,44
 1280 240 1280 240 1213 180 c 1,45,46
 1264 147 1264 147 1315 133 c 128,-1,47
 1366 119 1366 119 1429 112 c 1,48,-1
 1429 -1 l 1,49,50
 1409 -7 1409 -7 1379.5 -11.5 c 128,-1,51
 1350 -16 1350 -16 1312 -16 c 0,52,53
 1237 -16 1237 -16 1179 3 c 128,-1,54
 1121 22 1121 22 1062 62 c 1,55,56
 1030 45 1030 45 992.5 31 c 128,-1,57
 955 17 955 17 915 6.5 c 128,-1,58
 875 -4 875 -4 833.5 -10 c 128,-1,59
 792 -16 792 -16 752 -16 c 0,60,61
 618 -16 618 -16 507 9.5 c 128,-1,62
 396 35 396 35 316 86.5 c 128,-1,63
 236 138 236 138 191.5 215 c 128,-1,64
 147 292 147 292 147 394 c 0,0,1
645 858 m 1,65,66
 702 883 702 883 747.5 914 c 128,-1,67
 793 945 793 945 824.5 986 c 128,-1,68
 856 1027 856 1027 873 1079 c 128,-1,69
 890 1131 890 1131 890 1199 c 0,70,71
 890 1230 890 1230 878 1263.5 c 128,-1,72
 866 1297 866 1297 842.5 1325 c 128,-1,73
 819 1353 819 1353 783 1371.5 c 128,-1,74
 747 1390 747 1390 699 1390 c 0,75,76
 658 1390 658 1390 620.5 1379.5 c 128,-1,77
 583 1369 583 1369 554.5 1345.5 c 128,-1,78
 526 1322 526 1322 509.5 1284.5 c 128,-1,79
 493 1247 493 1247 493 1193 c 0,80,81
 493 1138 493 1138 502 1099.5 c 128,-1,82
 511 1061 511 1061 530 1025.5 c 128,-1,83
 549 990 549 990 577.5 951 c 128,-1,84
 606 912 606 912 645 858 c 1,65,66
354 400 m 0,85,86
 354 352 354 352 374 305.5 c 128,-1,87
 394 259 394 259 439.5 223 c 128,-1,88
 485 187 485 187 558.5 165 c 128,-1,89
 632 143 632 143 739 143 c 0,90,91
 796 143 796 143 840 154.5 c 128,-1,92
 884 166 884 166 926 183 c 1,93,94
 882 232 882 232 832 294 c 128,-1,95
 782 356 782 356 732.5 420.5 c 128,-1,96
 683 485 683 485 637.5 546.5 c 128,-1,97
 592 608 592 608 556 658 c 1,98,99
 466 611 466 611 410 546 c 128,-1,100
 354 481 354 481 354 400 c 0,85,86
EndSplineSet
EndChar

StartChar: quotesingle
Encoding: 39 39 6
Width: 772
Flags: W
LayerCount: 2
Fore
SplineSet
265 1685 m 1,0,-1
 507 1685 l 1,1,-1
 475 966 l 1,2,-1
 298 966 l 1,3,-1
 265 1685 l 1,0,-1
EndSplineSet
EndChar

StartChar: parenleft
Encoding: 40 40 7
Width: 846
Flags: W
LayerCount: 2
Fore
SplineSet
567 -330 m 1,0,1
 546 -316 546 -316 504.5 -279.5 c 128,-1,2
 463 -243 463 -243 413.5 -182.5 c 128,-1,3
 364 -122 364 -122 312 -36 c 128,-1,4
 260 50 260 50 217 162.5 c 128,-1,5
 174 275 174 275 147 414.5 c 128,-1,6
 120 554 120 554 120 723 c 0,7,8
 120 866 120 866 146.5 993 c 128,-1,9
 173 1120 173 1120 215 1227.5 c 128,-1,10
 257 1335 257 1335 309 1422.5 c 128,-1,11
 361 1510 361 1510 410.5 1574 c 128,-1,12
 460 1638 460 1638 502 1677.5 c 128,-1,13
 544 1717 544 1717 567 1730 c 1,14,-1
 718 1656 l 1,15,16
 700 1642 700 1642 665.5 1607.5 c 128,-1,17
 631 1573 631 1573 590 1517 c 128,-1,18
 549 1461 549 1461 505 1384 c 128,-1,19
 461 1307 461 1307 424.5 1208 c 128,-1,20
 388 1109 388 1109 363 988 c 128,-1,21
 338 867 338 867 334 723 c 0,22,23
 330 575 330 575 350 450 c 128,-1,24
 370 325 370 325 404.5 222 c 128,-1,25
 439 119 439 119 483 38.5 c 128,-1,26
 527 -42 527 -42 571.5 -101 c 128,-1,27
 616 -160 616 -160 655 -198.5 c 128,-1,28
 694 -237 694 -237 718 -255 c 1,29,-1
 567 -330 l 1,30,-1
 567 -330 l 1,0,1
EndSplineSet
EndChar

StartChar: asterisk
Encoding: 42 42 9
Width: 1208
Flags: W
LayerCount: 2
Fore
SplineSet
526 910 m 1,0,-1
 561 1080 l 1,1,-1
 435 959 l 1,2,-1
 217 813 l 1,3,-1
 121 977 l 1,4,-1
 352 1101 l 1,5,-1
 517 1154 l 1,6,7
 515 1155 515 1155 503 1158.5 c 128,-1,8
 491 1162 491 1162 473 1167.5 c 128,-1,9
 455 1173 455 1173 434.5 1179 c 128,-1,10
 414 1185 414 1185 396 1190 c 128,-1,11
 378 1195 378 1195 365.5 1198.5 c 128,-1,12
 353 1202 353 1202 351 1203 c 2,13,-1
 117 1321 l 1,14,-1
 210 1486 l 1,15,-1
 430 1341 l 1,16,-1
 559 1228 l 2,17,18
 559 1229 559 1229 556.5 1241.5 c 128,-1,19
 554 1254 554 1254 549.5 1272 c 128,-1,20
 545 1290 545 1290 540 1310.5 c 128,-1,21
 535 1331 535 1331 531 1349 c 128,-1,22
 527 1367 527 1367 523.5 1380 c 128,-1,23
 520 1393 520 1393 520 1395 c 2,24,-1
 501 1660 l 1,25,-1
 693 1660 l 1,26,-1
 680 1398 l 1,27,-1
 646 1230 l 2,28,29
 647 1231 647 1231 656 1240 c 128,-1,30
 665 1249 665 1249 678.5 1261.5 c 128,-1,31
 692 1274 692 1274 707.5 1288.5 c 128,-1,32
 723 1303 723 1303 736.5 1316 c 128,-1,33
 750 1329 750 1329 759.5 1338 c 128,-1,34
 769 1347 769 1347 771 1348 c 2,35,-1
 991 1494 l 1,36,-1
 1086 1331 l 1,37,-1
 854 1210 l 1,38,-1
 690 1155 l 1,39,-1
 855 1106 l 1,40,-1
 1091 991 l 1,41,-1
 994 821 l 1,42,-1
 777 965 l 1,43,-1
 646 1078 l 1,44,-1
 685 910 l 1,45,-1
 706 648 l 1,46,-1
 514 647 l 1,47,-1
 526 910 l 1,0,-1
EndSplineSet
EndChar

StartChar: plus
Encoding: 43 43 10
Width: 1393
Flags: W
LayerCount: 2
Fore
SplineSet
607 521 m 1,0,-1
 614 692 l 1,1,-1
 449 685 l 1,2,-1
 229 685 l 1,3,-1
 229 862 l 1,4,-1
 449 862 l 1,5,-1
 614 851 l 1,6,-1
 607 1023 l 1,7,-1
 607 1251 l 1,8,-1
 785 1251 l 1,9,-1
 785 1023 l 1,10,-1
 777 851 l 1,11,-1
 918 862 l 1,12,-1
 1164 862 l 1,13,-1
 1164 685 l 1,14,-1
 918 685 l 1,15,-1
 777 692 l 1,16,-1
 785 521 l 1,17,-1
 785 285 l 1,18,-1
 607 285 l 1,19,-1
 607 521 l 1,0,-1
EndSplineSet
EndChar

StartChar: comma
Encoding: 44 44 11
Width: 602
Flags: W
LayerCount: 2
Fore
SplineSet
160 140 m 1,0,-1
 299 271 l 1,1,2
 351 251 351 251 387.5 214.5 c 128,-1,3
 424 178 424 178 447 132.5 c 128,-1,4
 470 87 470 87 480 38 c 128,-1,5
 490 -11 490 -11 490 -54 c 0,6,7
 490 -136 490 -136 468.5 -208.5 c 128,-1,8
 447 -281 447 -281 410.5 -339 c 128,-1,9
 374 -397 374 -397 326 -438.5 c 128,-1,10
 278 -480 278 -480 225 -500 c 1,11,-1
 151 -408 l 1,12,-1
 151 -382 l 1,13,14
 179 -368 179 -368 203 -342 c 128,-1,15
 227 -316 227 -316 244.5 -282 c 128,-1,16
 262 -248 262 -248 272 -207.5 c 128,-1,17
 282 -167 282 -167 282 -124 c 0,18,19
 282 -93 282 -93 272 -58.5 c 128,-1,20
 262 -24 262 -24 245 5.5 c 128,-1,21
 228 35 228 35 206 54.5 c 128,-1,22
 184 74 184 74 160 77 c 1,23,-1
 160 140 l 1,0,-1
EndSplineSet
EndChar

StartChar: hyphen
Encoding: 45 45 12
Width: 1350
Flags: W
LayerCount: 2
Fore
SplineSet
250 860 m 1,0,-1
 1100 860 l 1,1,-1
 1100 683 l 1,2,-1
 250 683 l 1,3,-1
 250 860 l 1,0,-1
EndSplineSet
EndChar

StartChar: period
Encoding: 46 46 13
Width: 602
Flags: W
LayerCount: 2
Fore
SplineSet
147 130 m 0,0,1
 146 166 146 166 159.5 197.5 c 128,-1,2
 173 229 173 229 195.5 252.5 c 128,-1,3
 218 276 218 276 247.5 290 c 128,-1,4
 277 304 277 304 308 304 c 0,5,6
 344 304 344 304 371 292 c 128,-1,7
 398 280 398 280 416.5 259 c 128,-1,8
 435 238 435 238 444.5 210.5 c 128,-1,9
 454 183 454 183 455 153 c 0,10,11
 456 116 456 116 443 84 c 128,-1,12
 430 52 430 52 407.5 28.5 c 128,-1,13
 385 5 385 5 355 -8.5 c 128,-1,14
 325 -22 325 -22 293 -22 c 0,15,16
 264 -22 264 -22 238.5 -10.5 c 128,-1,17
 213 1 213 1 193 21 c 128,-1,18
 173 41 173 41 160.5 69 c 128,-1,19
 148 97 148 97 147 130 c 0,0,1
EndSplineSet
EndChar

StartChar: slash
Encoding: 47 47 14
Width: 854
Flags: W
LayerCount: 2
Fore
SplineSet
612 1599 m 1,0,-1
 810 1599 l 1,1,-1
 240 -363 l 1,2,-1
 42 -363 l 1,3,-1
 612 1599 l 1,0,-1
EndSplineSet
EndChar

StartChar: zero
Encoding: 48 48 15
Width: 1386
Flags: W
LayerCount: 2
Fore
SplineSet
148 643 m 0,0,1
 150 788 150 788 193.5 905 c 128,-1,2
 237 1022 237 1022 312 1104 c 128,-1,3
 387 1186 387 1186 489.5 1230 c 128,-1,4
 592 1274 592 1274 711 1274 c 0,5,6
 862 1274 862 1274 963.5 1224 c 128,-1,7
 1065 1174 1065 1174 1126.5 1088 c 128,-1,8
 1188 1002 1188 1002 1213.5 886 c 128,-1,9
 1239 770 1239 770 1238 638 c 0,10,11
 1237 494 1237 494 1197 373.5 c 128,-1,12
 1157 253 1157 253 1084.5 166.5 c 128,-1,13
 1012 80 1012 80 910.5 32 c 128,-1,14
 809 -16 809 -16 686 -16 c 0,15,16
 538 -16 538 -16 435 39 c 128,-1,17
 332 94 332 94 267.5 185.5 c 128,-1,18
 203 277 203 277 174.5 396 c 128,-1,19
 146 515 146 515 148 643 c 0,0,1
694 136 m 0,20,21
 774 134 774 134 833.5 167.5 c 128,-1,22
 893 201 893 201 932.5 265 c 128,-1,23
 972 329 972 329 991.5 421 c 128,-1,24
 1011 513 1011 513 1011 629 c 0,25,26
 1011 731 1011 731 993 820.5 c 128,-1,27
 975 910 975 910 936.5 976.5 c 128,-1,28
 898 1043 898 1043 839 1081.5 c 128,-1,29
 780 1120 780 1120 698 1120 c 0,30,31
 618 1120 618 1120 557.5 1087.5 c 128,-1,32
 497 1055 497 1055 456.5 994.5 c 128,-1,33
 416 934 416 934 395.5 847 c 128,-1,34
 375 760 375 760 375 652 c 0,35,36
 375 554 375 554 394 462 c 128,-1,37
 413 370 413 370 452 298 c 128,-1,38
 491 226 491 226 551 182 c 128,-1,39
 611 138 611 138 694 136 c 0,20,21
EndSplineSet
EndChar

StartChar: one
Encoding: 49 49 16
Width: 918
Flags: W
LayerCount: 2
Fore
SplineSet
378 999 m 1,0,1
 321 983 321 983 267 970 c 128,-1,2
 213 957 213 957 155 946 c 1,3,-1
 130 1077 l 1,4,5
 179 1092 179 1092 236 1118 c 128,-1,6
 293 1144 293 1144 346 1173 c 128,-1,7
 399 1202 399 1202 442.5 1230.5 c 128,-1,8
 486 1259 486 1259 507 1278 c 1,9,-1
 607 1253 l 1,10,-1
 607 0 l 1,11,-1
 378 0 l 1,12,-1
 378 999 l 1,0,1
EndSplineSet
Substitution2: "'sups' Superscript in Latin lookup 11 subtable" onesuperior
EndChar

StartChar: two
Encoding: 50 50 17
Width: 1269
Flags: W
LayerCount: 2
Fore
SplineSet
147 113 m 1,0,1
 232 162 232 162 316 219.5 c 128,-1,2
 400 277 400 277 476 340.5 c 128,-1,3
 552 404 552 404 617 471.5 c 128,-1,4
 682 539 682 539 730 609 c 128,-1,5
 778 679 778 679 805 750.5 c 128,-1,6
 832 822 832 822 832 892 c 0,7,8
 832 943 832 943 817 984.5 c 128,-1,9
 802 1026 802 1026 772 1055.5 c 128,-1,10
 742 1085 742 1085 697.5 1101 c 128,-1,11
 653 1117 653 1117 595 1117 c 0,12,13
 545 1117 545 1117 496.5 1105 c 128,-1,14
 448 1093 448 1093 404 1073.5 c 128,-1,15
 360 1054 360 1054 323 1028.5 c 128,-1,16
 286 1003 286 1003 259 975 c 1,17,-1
 166 1099 l 1,18,19
 195 1131 195 1131 238 1165 c 128,-1,20
 281 1199 281 1199 338 1227.5 c 128,-1,21
 395 1256 395 1256 465.5 1274 c 128,-1,22
 536 1292 536 1292 619 1292 c 0,23,24
 743 1292 743 1292 827 1260 c 128,-1,25
 911 1228 911 1228 962 1174 c 128,-1,26
 1013 1120 1013 1120 1034.5 1050 c 128,-1,27
 1056 980 1056 980 1056 904 c 0,28,29
 1056 807 1056 807 1017 709 c 128,-1,30
 978 611 978 611 906 516.5 c 128,-1,31
 834 422 834 422 733.5 334.5 c 128,-1,32
 633 247 633 247 510 171 c 1,33,-1
 1125 177 l 1,34,-1
 1125 0 l 1,35,-1
 180 0 l 1,36,-1
 147 113 l 1,0,1
EndSplineSet
Substitution2: "'sups' Superscript in Latin lookup 11 subtable" twosuperior
EndChar

StartChar: three
Encoding: 51 51 18
Width: 1147
Flags: W
LayerCount: 2
Fore
SplineSet
152 -167 m 1,0,1
 237 -184 237 -184 316 -184 c 0,2,3
 427 -184 427 -184 519 -156 c 128,-1,4
 611 -128 611 -128 676.5 -80 c 128,-1,5
 742 -32 742 -32 778 33 c 128,-1,6
 814 98 814 98 814 173 c 0,7,8
 814 237 814 237 794 290.5 c 128,-1,9
 774 344 774 344 730.5 381 c 128,-1,10
 687 418 687 418 619.5 435.5 c 128,-1,11
 552 453 552 453 457 446 c 1,12,-1
 366 424 l 1,13,-1
 320 575 l 1,14,15
 370 585 370 585 415 598.5 c 128,-1,16
 460 612 460 612 502 630 c 1,17,18
 614 674 614 674 676.5 745 c 128,-1,19
 739 816 739 816 740 904 c 0,20,21
 741 961 741 961 723 1001 c 128,-1,22
 705 1041 705 1041 673 1066.5 c 128,-1,23
 641 1092 641 1092 597.5 1103.5 c 128,-1,24
 554 1115 554 1115 504 1115 c 0,25,26
 450 1115 450 1115 404.5 1105.5 c 128,-1,27
 359 1096 359 1096 320.5 1080.5 c 128,-1,28
 282 1065 282 1065 249.5 1045.5 c 128,-1,29
 217 1026 217 1026 190 1007 c 1,30,-1
 104 1132 l 1,31,32
 133 1156 133 1156 178 1183.5 c 128,-1,33
 223 1211 223 1211 277.5 1234.5 c 128,-1,34
 332 1258 332 1258 395 1273.5 c 128,-1,35
 458 1289 458 1289 523 1289 c 0,36,37
 610 1289 610 1289 688.5 1266.5 c 128,-1,38
 767 1244 767 1244 827 1199 c 128,-1,39
 887 1154 887 1154 922 1087 c 128,-1,40
 957 1020 957 1020 957 931 c 0,41,42
 957 866 957 866 935.5 809.5 c 128,-1,43
 914 753 914 753 877 705.5 c 128,-1,44
 840 658 840 658 790 619.5 c 128,-1,45
 740 581 740 581 682 554 c 1,46,47
 767 544 767 544 833.5 510 c 128,-1,48
 900 476 900 476 945.5 426.5 c 128,-1,49
 991 377 991 377 1014.5 315.5 c 128,-1,50
 1038 254 1038 254 1038 189 c 0,51,52
 1038 84 1038 84 991.5 -12 c 128,-1,53
 945 -108 945 -108 857.5 -181 c 128,-1,54
 770 -254 770 -254 644 -297 c 128,-1,55
 518 -340 518 -340 359 -339 c 0,56,57
 310 -339 310 -339 259 -334 c 128,-1,58
 208 -329 208 -329 153 -319 c 1,59,-1
 152 -167 l 1,60,-1
 152 -167 l 1,0,1
EndSplineSet
Substitution2: "'sups' Superscript in Latin lookup 11 subtable" threesuperior
EndChar

StartChar: four
Encoding: 52 52 19
Width: 1339
Flags: W
LayerCount: 2
Fore
SplineSet
700 1299 m 1,0,-1
 779 1299 l 1,1,-1
 915 1215 l 1,2,-1
 449 321 l 1,3,-1
 360 170 l 1,4,-1
 820 170 l 1,5,-1
 838 625 l 1,6,-1
 1040 643 l 1,7,-1
 1040 170 l 1,8,-1
 1271 170 l 1,9,-1
 1271 0 l 1,10,-1
 1040 0 l 1,11,-1
 1040 -376 l 1,12,-1
 820 -376 l 1,13,-1
 820 0 l 1,14,-1
 170 0 l 1,15,-1
 116 104 l 1,16,-1
 700 1299 l 1,0,-1
EndSplineSet
EndChar

StartChar: five
Encoding: 53 53 20
Width: 1227
Flags: W
LayerCount: 2
Fore
SplineSet
205 -188 m 1,0,1
 221 -189 221 -189 236.5 -189.5 c 128,-1,2
 252 -190 252 -190 268 -190 c 0,3,4
 396 -190 396 -190 504 -159.5 c 128,-1,5
 612 -129 612 -129 690 -74 c 128,-1,6
 768 -19 768 -19 812 57 c 128,-1,7
 856 133 856 133 856 223 c 0,8,9
 856 374 856 374 778.5 450.5 c 128,-1,10
 701 527 701 527 530 527 c 0,11,12
 470 527 470 527 402 514.5 c 128,-1,13
 334 502 334 502 260 479 c 1,14,-1
 210 509 l 1,15,-1
 266 1252 l 1,16,-1
 1037 1252 l 1,17,-1
 1015 1062 l 1,18,-1
 437 1062 l 1,19,-1
 398 662 l 1,20,21
 459 676 459 676 516.5 683.5 c 128,-1,22
 574 691 574 691 627 691 c 0,23,24
 738 691 738 691 822.5 659 c 128,-1,25
 907 627 907 627 964.5 568 c 128,-1,26
 1022 509 1022 509 1051 425 c 128,-1,27
 1080 341 1080 341 1080 237 c 0,28,29
 1080 130 1080 130 1031.5 26 c 128,-1,30
 983 -78 983 -78 888 -160.5 c 128,-1,31
 793 -243 793 -243 652.5 -295 c 128,-1,32
 512 -347 512 -347 328 -349 c 0,33,34
 316 -349 316 -349 300 -348.5 c 128,-1,35
 284 -348 284 -348 267 -346.5 c 128,-1,36
 250 -345 250 -345 233.5 -342.5 c 128,-1,37
 217 -340 217 -340 204 -336 c 1,38,-1
 205 -188 l 1,39,-1
 205 -188 l 1,0,1
EndSplineSet
EndChar

StartChar: six
Encoding: 54 54 21
Width: 1373
Flags: W
LayerCount: 2
Fore
SplineSet
160 571 m 0,0,1
 160 706 160 706 195 828 c 128,-1,2
 230 950 230 950 290.5 1055 c 128,-1,3
 351 1160 351 1160 432.5 1247.5 c 128,-1,4
 514 1335 514 1335 606 1401 c 128,-1,5
 698 1467 698 1467 796 1511 c 128,-1,6
 894 1555 894 1555 989 1573 c 1,7,-1
 1049 1431 l 1,8,9
 954 1406 954 1406 870 1362 c 128,-1,10
 786 1318 786 1318 714.5 1260.5 c 128,-1,11
 643 1203 643 1203 586 1133.5 c 128,-1,12
 529 1064 529 1064 488 987.5 c 128,-1,13
 447 911 447 911 424 830.5 c 128,-1,14
 401 750 401 750 399 669 c 0,15,16
 396 564 396 564 408 468 c 128,-1,17
 420 372 420 372 454 298.5 c 128,-1,18
 488 225 488 225 548.5 181 c 128,-1,19
 609 137 609 137 703 137 c 0,20,21
 774 137 774 137 827 167.5 c 128,-1,22
 880 198 880 198 915 248.5 c 128,-1,23
 950 299 950 299 967.5 364 c 128,-1,24
 985 429 985 429 985 497 c 0,25,26
 985 590 985 590 966 651.5 c 128,-1,27
 947 713 947 713 915.5 750 c 128,-1,28
 884 787 884 787 843.5 802 c 128,-1,29
 803 817 803 817 760 817 c 0,30,31
 699 817 699 817 653 801 c 128,-1,32
 607 785 607 785 584 771 c 1,33,-1
 524 901 l 1,34,35
 538 914 538 914 564 929.5 c 128,-1,36
 590 945 590 945 626 958 c 128,-1,37
 662 971 662 971 707 979.5 c 128,-1,38
 752 988 752 988 805 988 c 0,39,40
 901 988 901 988 976 952 c 128,-1,41
 1051 916 1051 916 1102.5 855 c 128,-1,42
 1154 794 1154 794 1181 713.5 c 128,-1,43
 1208 633 1208 633 1208 543 c 0,44,45
 1208 436 1208 436 1175.5 335 c 128,-1,46
 1143 234 1143 234 1076.5 156 c 128,-1,47
 1010 78 1010 78 909.5 31 c 128,-1,48
 809 -16 809 -16 674 -16 c 0,49,50
 552 -16 552 -16 456.5 31 c 128,-1,51
 361 78 361 78 295 158.5 c 128,-1,52
 229 239 229 239 194.5 345.5 c 128,-1,53
 160 452 160 452 160 571 c 0,0,1
EndSplineSet
EndChar

StartChar: seven
Encoding: 55 55 22
Width: 1241
Flags: W
LayerCount: 2
Fore
SplineSet
340 -267 m 1,0,1
 497 67 497 67 637 410.5 c 128,-1,2
 777 754 777 754 904 1091 c 1,3,-1
 150 1093 l 1,4,-1
 151 1271 l 1,5,-1
 1100 1271 l 1,6,-1
 1146 1213 l 1,7,-1
 575 -335 l 1,8,-1
 340 -267 l 1,9,-1
 340 -267 l 1,0,1
EndSplineSet
EndChar

StartChar: eight
Encoding: 56 56 23
Width: 1307
Flags: W
LayerCount: 2
Fore
SplineSet
152 385 m 0,0,1
 152 440 152 440 169 497 c 128,-1,2
 186 554 186 554 223 608.5 c 128,-1,3
 260 663 260 663 318.5 713 c 128,-1,4
 377 763 377 763 461 804 c 1,5,6
 409 837 409 837 363.5 875 c 128,-1,7
 318 913 318 913 284 960.5 c 128,-1,8
 250 1008 250 1008 230.5 1065.5 c 128,-1,9
 211 1123 211 1123 211 1194 c 0,10,11
 211 1286 211 1286 248 1355.5 c 128,-1,12
 285 1425 285 1425 348 1471.5 c 128,-1,13
 411 1518 411 1518 495.5 1541.5 c 128,-1,14
 580 1565 580 1565 675 1565 c 0,15,16
 773 1565 773 1565 854.5 1540 c 128,-1,17
 936 1515 936 1515 994 1469 c 128,-1,18
 1052 1423 1052 1423 1084 1358.5 c 128,-1,19
 1116 1294 1116 1294 1116 1216 c 0,20,21
 1116 1162 1116 1162 1100 1104 c 128,-1,22
 1084 1046 1084 1046 1050 991 c 128,-1,23
 1016 936 1016 936 963 887 c 128,-1,24
 910 838 910 838 836 802 c 1,25,26
 902 764 902 764 963 723.5 c 128,-1,27
 1024 683 1024 683 1071.5 635 c 128,-1,28
 1119 587 1119 587 1147.5 529 c 128,-1,29
 1176 471 1176 471 1177 400 c 0,30,31
 1178 295 1178 295 1137.5 217 c 128,-1,32
 1097 139 1097 139 1028 87.5 c 128,-1,33
 959 36 959 36 867.5 10 c 128,-1,34
 776 -16 776 -16 675 -16 c 0,35,36
 580 -16 580 -16 486.5 5.5 c 128,-1,37
 393 27 393 27 318.5 75 c 128,-1,38
 244 123 244 123 198 199.5 c 128,-1,39
 152 276 152 276 152 385 c 0,0,1
691 884 m 1,40,41
 748 903 748 903 789.5 936 c 128,-1,42
 831 969 831 969 858 1010 c 128,-1,43
 885 1051 885 1051 899 1096.5 c 128,-1,44
 913 1142 913 1142 914 1187 c 0,45,46
 916 1238 916 1238 900 1279.5 c 128,-1,47
 884 1321 884 1321 852 1350.5 c 128,-1,48
 820 1380 820 1380 773.5 1396 c 128,-1,49
 727 1412 727 1412 668 1412 c 0,50,51
 615 1412 615 1412 568.5 1398 c 128,-1,52
 522 1384 522 1384 487.5 1358 c 128,-1,53
 453 1332 453 1332 433.5 1293.5 c 128,-1,54
 414 1255 414 1255 414 1207 c 0,55,56
 414 1153 414 1153 436 1108 c 128,-1,57
 458 1063 458 1063 496 1024 c 128,-1,58
 534 985 534 985 584.5 951 c 128,-1,59
 635 917 635 917 691 884 c 1,40,41
363 402 m 0,60,61
 363 278 363 278 441 208 c 128,-1,62
 519 138 519 138 683 138 c 0,63,64
 735 138 735 138 784.5 154 c 128,-1,65
 834 170 834 170 873 200 c 128,-1,66
 912 230 912 230 935.5 273.5 c 128,-1,67
 959 317 959 317 959 373 c 0,68,69
 959 436 959 436 929.5 485 c 128,-1,70
 900 534 900 534 851 574.5 c 128,-1,71
 802 615 802 615 738.5 650 c 128,-1,72
 675 685 675 685 608 721 c 1,73,74
 554 699 554 699 509 666 c 128,-1,75
 464 633 464 633 431.5 592 c 128,-1,76
 399 551 399 551 381 503 c 128,-1,77
 363 455 363 455 363 402 c 0,60,61
EndSplineSet
EndChar

StartChar: nine
Encoding: 57 57 24
Width: 1399
Flags: W
LayerCount: 2
Fore
SplineSet
287 -254 m 1,0,1
 390 -228 390 -228 481 -177.5 c 128,-1,2
 572 -127 572 -127 648.5 -59 c 128,-1,3
 725 9 725 9 785.5 89 c 128,-1,4
 846 169 846 169 888.5 253.5 c 128,-1,5
 931 338 931 338 954.5 422.5 c 128,-1,6
 978 507 978 507 980 583 c 0,7,8
 983 696 983 696 970 793 c 128,-1,9
 957 890 957 890 922 961.5 c 128,-1,10
 887 1033 887 1033 827 1074 c 128,-1,11
 767 1115 767 1115 676 1115 c 0,12,13
 613 1115 613 1115 561.5 1087.5 c 128,-1,14
 510 1060 510 1060 473.5 1015 c 128,-1,15
 437 970 437 970 417 913.5 c 128,-1,16
 397 857 397 857 397 799 c 0,17,18
 397 706 397 706 415.5 636.5 c 128,-1,19
 434 567 434 567 467 520.5 c 128,-1,20
 500 474 500 474 545 450.5 c 128,-1,21
 590 427 590 427 643 427 c 0,22,23
 679 427 679 427 705 430.5 c 128,-1,24
 731 434 731 434 750.5 439.5 c 128,-1,25
 770 445 770 445 785 452 c 128,-1,26
 800 459 800 459 815 466 c 1,27,-1
 867 342 l 1,28,29
 855 328 855 328 831.5 313 c 128,-1,30
 808 298 808 298 772.5 285 c 128,-1,31
 737 272 737 272 690.5 264 c 128,-1,32
 644 256 644 256 585 256 c 0,33,34
 487 256 487 256 411 295 c 128,-1,35
 335 334 335 334 282.5 399 c 128,-1,36
 230 464 230 464 203 548.5 c 128,-1,37
 176 633 176 633 176 725 c 0,38,39
 176 847 176 847 212 947.5 c 128,-1,40
 248 1048 248 1048 316 1120 c 128,-1,41
 384 1192 384 1192 483.5 1232 c 128,-1,42
 583 1272 583 1272 709 1272 c 256,43,44
 835 1272 835 1272 930 1224.5 c 128,-1,45
 1025 1177 1025 1177 1088.5 1096.5 c 128,-1,46
 1152 1016 1152 1016 1184 909.5 c 128,-1,47
 1216 803 1216 803 1216 684 c 0,48,49
 1216 540 1216 540 1179 410 c 128,-1,50
 1142 280 1142 280 1079 167 c 128,-1,51
 1016 54 1016 54 931.5 -39.5 c 128,-1,52
 847 -133 847 -133 752 -204.5 c 128,-1,53
 657 -276 657 -276 556.5 -323 c 128,-1,54
 456 -370 456 -370 361 -390 c 1,55,-1
 287 -254 l 1,56,-1
 287 -254 l 1,0,1
EndSplineSet
EndChar

StartChar: less
Encoding: 60 60 27
Width: 1368
Flags: W
LayerCount: 2
Fore
SplineSet
168 850 m 1,0,-1
 1134 1296 l 1,1,-1
 1134 1091 l 1,2,-1
 403 773 l 1,3,-1
 1134 460 l 1,4,-1
 1134 252 l 1,5,-1
 168 696 l 1,6,-1
 168 850 l 1,0,-1
EndSplineSet
EndChar

StartChar: equal
Encoding: 61 61 28
Width: 1399
Flags: W
LayerCount: 2
Fore
SplineSet
242 1116 m 1,0,-1
 1157 1116 l 1,1,-1
 1157 949 l 1,2,-1
 242 949 l 1,3,-1
 242 1116 l 1,0,-1
242 599 m 1,4,-1
 1157 599 l 1,5,-1
 1157 433 l 1,6,-1
 242 433 l 1,7,-1
 242 599 l 1,4,-1
EndSplineSet
EndChar

StartChar: question
Encoding: 63 63 30
Width: 1047
Flags: W
LayerCount: 2
Fore
SplineSet
364 494 m 1,0,1
 347 514 347 514 332 543.5 c 128,-1,2
 317 573 317 573 304.5 608.5 c 128,-1,3
 292 644 292 644 284 685 c 128,-1,4
 276 726 276 726 275 770 c 0,5,6
 273 824 273 824 301.5 868 c 128,-1,7
 330 912 330 912 375 950 c 128,-1,8
 420 988 420 988 473.5 1021.5 c 128,-1,9
 527 1055 527 1055 575.5 1089.5 c 128,-1,10
 624 1124 624 1124 659.5 1161 c 128,-1,11
 695 1198 695 1198 703 1243 c 1,12,13
 727 1342 727 1342 709.5 1418.5 c 128,-1,14
 692 1495 692 1495 639 1547.5 c 128,-1,15
 586 1600 586 1600 500 1627 c 128,-1,16
 414 1654 414 1654 302 1654 c 0,17,18
 227 1654 227 1654 183 1648 c 128,-1,19
 139 1642 139 1642 121 1637 c 1,20,-1
 121 1797 l 1,21,22
 129 1803 129 1803 150 1810.5 c 128,-1,23
 171 1818 171 1818 200 1824 c 128,-1,24
 229 1830 229 1830 264.5 1834.5 c 128,-1,25
 300 1839 300 1839 337 1839 c 0,26,27
 518 1839 518 1839 640 1789 c 128,-1,28
 762 1739 762 1739 832 1656.5 c 128,-1,29
 902 1574 902 1574 923 1469 c 128,-1,30
 944 1364 944 1364 922 1254 c 1,31,32
 909 1180 909 1180 873 1126 c 128,-1,33
 837 1072 837 1072 789.5 1030.5 c 128,-1,34
 742 989 742 989 690.5 956.5 c 128,-1,35
 639 924 639 924 595 892.5 c 128,-1,36
 551 861 551 861 521 827 c 128,-1,37
 491 793 491 793 487 749 c 0,38,39
 484 715 484 715 486 685 c 128,-1,40
 488 655 488 655 494.5 625 c 128,-1,41
 501 595 501 595 510.5 563 c 128,-1,42
 520 531 520 531 531 494 c 1,43,-1
 364 494 l 1,0,1
333 126 m 0,44,45
 332 160 332 160 345.5 191 c 128,-1,46
 359 222 359 222 381.5 245 c 128,-1,47
 404 268 404 268 432.5 281.5 c 128,-1,48
 461 295 461 295 491 295 c 0,49,50
 526 295 526 295 552.5 283 c 128,-1,51
 579 271 579 271 597 251 c 128,-1,52
 615 231 615 231 624.5 204.5 c 128,-1,53
 634 178 634 178 635 149 c 0,54,55
 636 113 636 113 623 81.5 c 128,-1,56
 610 50 610 50 588 27 c 128,-1,57
 566 4 566 4 536.5 -9 c 128,-1,58
 507 -22 507 -22 476 -22 c 0,59,60
 449 -22 449 -22 423.5 -11 c 128,-1,61
 398 0 398 0 378.5 19.5 c 128,-1,62
 359 39 359 39 346.5 66.5 c 128,-1,63
 334 94 334 94 333 126 c 0,44,45
EndSplineSet
EndChar

StartChar: at
Encoding: 64 64 31
Width: 2218
Flags: W
LayerCount: 2
Fore
SplineSet
213 424 m 0,0,1
 213 593 213 593 249 741.5 c 128,-1,2
 285 890 285 890 351.5 1014.5 c 128,-1,3
 418 1139 418 1139 512 1237 c 128,-1,4
 606 1335 606 1335 721.5 1403 c 128,-1,5
 837 1471 837 1471 971 1507 c 128,-1,6
 1105 1543 1105 1543 1252 1543 c 0,7,8
 1419 1543 1419 1543 1558 1496 c 128,-1,9
 1697 1449 1697 1449 1797 1358.5 c 128,-1,10
 1897 1268 1897 1268 1952.5 1135.5 c 128,-1,11
 2008 1003 2008 1003 2008 832 c 0,12,13
 2008 700 2008 700 1985.5 586.5 c 128,-1,14
 1963 473 1963 473 1923.5 380 c 128,-1,15
 1884 287 1884 287 1830 215 c 128,-1,16
 1776 143 1776 143 1712.5 94.5 c 128,-1,17
 1649 46 1649 46 1579 20.5 c 128,-1,18
 1509 -5 1509 -5 1438 -5 c 0,19,20
 1366 -5 1366 -5 1330.5 43 c 128,-1,21
 1295 91 1295 91 1288 182 c 0,22,23
 1286 205 1286 205 1286.5 237.5 c 128,-1,24
 1287 270 1287 270 1292 313 c 1,25,26
 1258 248 1258 248 1217 190.5 c 128,-1,27
 1176 133 1176 133 1129 89.5 c 128,-1,28
 1082 46 1082 46 1029 20.5 c 128,-1,29
 976 -5 976 -5 919 -5 c 0,30,31
 868 -5 868 -5 817 21.5 c 128,-1,32
 766 48 766 48 725 102.5 c 128,-1,33
 684 157 684 157 659.5 239.5 c 128,-1,34
 635 322 635 322 637 435 c 0,35,36
 639 504 639 504 654 577.5 c 128,-1,37
 669 651 669 651 699 721 c 128,-1,38
 729 791 729 791 774.5 853 c 128,-1,39
 820 915 820 915 881.5 961.5 c 128,-1,40
 943 1008 943 1008 1021 1035.5 c 128,-1,41
 1099 1063 1099 1063 1195 1063 c 0,42,43
 1260 1063 1260 1063 1322.5 1050 c 128,-1,44
 1385 1037 1385 1037 1427 1008 c 1,45,-1
 1599 1039 l 1,46,47
 1584 984 1584 984 1566.5 910 c 128,-1,48
 1549 836 1549 836 1532 754.5 c 128,-1,49
 1515 673 1515 673 1499.5 590.5 c 128,-1,50
 1484 508 1484 508 1473 437 c 0,51,52
 1452 301 1452 301 1453.5 227.5 c 128,-1,53
 1455 154 1455 154 1490 154 c 0,54,55
 1527 154 1527 154 1566.5 177 c 128,-1,56
 1606 200 1606 200 1644 241.5 c 128,-1,57
 1682 283 1682 283 1716 341.5 c 128,-1,58
 1750 400 1750 400 1775.5 471 c 128,-1,59
 1801 542 1801 542 1816 624.5 c 128,-1,60
 1831 707 1831 707 1831 796 c 0,61,62
 1831 917 1831 917 1809 1009 c 128,-1,63
 1787 1101 1787 1101 1747 1167.5 c 128,-1,64
 1707 1234 1707 1234 1650.5 1278.5 c 128,-1,65
 1594 1323 1594 1323 1525.5 1349 c 128,-1,66
 1457 1375 1457 1375 1378 1386 c 128,-1,67
 1299 1397 1299 1397 1213 1397 c 0,68,69
 1100 1397 1100 1397 995 1365.5 c 128,-1,70
 890 1334 890 1334 798.5 1275 c 128,-1,71
 707 1216 707 1216 631.5 1132 c 128,-1,72
 556 1048 556 1048 502 942 c 128,-1,73
 448 836 448 836 418.5 711 c 128,-1,74
 389 586 389 586 389 445 c 0,75,76
 389 302 389 302 416 189 c 128,-1,77
 443 76 443 76 491 -10.5 c 128,-1,78
 539 -97 539 -97 604.5 -157.5 c 128,-1,79
 670 -218 670 -218 748.5 -256.5 c 128,-1,80
 827 -295 827 -295 914.5 -312.5 c 128,-1,81
 1002 -330 1002 -330 1093 -330 c 0,82,83
 1168 -330 1168 -330 1231.5 -322 c 128,-1,84
 1295 -314 1295 -314 1346.5 -301.5 c 128,-1,85
 1398 -289 1398 -289 1437.5 -274 c 128,-1,86
 1477 -259 1477 -259 1503 -246 c 1,87,-1
 1542 -375 l 1,88,89
 1510 -395 1510 -395 1460 -413.5 c 128,-1,90
 1410 -432 1410 -432 1348 -446.5 c 128,-1,91
 1286 -461 1286 -461 1215.5 -469.5 c 128,-1,92
 1145 -478 1145 -478 1073 -478 c 0,93,94
 892 -478 892 -478 735 -423 c 128,-1,95
 578 -368 578 -368 462 -256 c 128,-1,96
 346 -144 346 -144 279.5 25.5 c 128,-1,97
 213 195 213 195 213 424 c 0,0,1
825 475 m 0,98,99
 823 409 823 409 829.5 353.5 c 128,-1,100
 836 298 836 298 853 257.5 c 128,-1,101
 870 217 870 217 897.5 194.5 c 128,-1,102
 925 172 925 172 965 172 c 0,103,104
 1000 172 1000 172 1039.5 205.5 c 128,-1,105
 1079 239 1079 239 1119.5 294 c 128,-1,106
 1160 349 1160 349 1198.5 419.5 c 128,-1,107
 1237 490 1237 490 1268.5 564 c 128,-1,108
 1300 638 1300 638 1322 710 c 128,-1,109
 1344 782 1344 782 1352 839 c 1,110,111
 1340 860 1340 860 1319 874 c 128,-1,112
 1298 888 1298 888 1273.5 897 c 128,-1,113
 1249 906 1249 906 1223 910 c 128,-1,114
 1197 914 1197 914 1175 914 c 0,115,116
 1092 914 1092 914 1028 874 c 128,-1,117
 964 834 964 834 919.5 771 c 128,-1,118
 875 708 875 708 851 630 c 128,-1,119
 827 552 827 552 825 475 c 0,98,99
EndSplineSet
EndChar

StartChar: A
Encoding: 65 65 32
Width: 1407
Flags: W
LayerCount: 2
Fore
SplineSet
603 1538 m 1,0,-1
 818 1538 l 1,1,-1
 1386 0 l 1,2,-1
 1148 0 l 1,3,-1
 1017 385 l 1,4,-1
 394 385 l 1,5,-1
 259 0 l 1,6,-1
 21 0 l 1,7,-1
 603 1538 l 1,0,-1
961 551 m 1,8,-1
 755 1160 l 1,9,-1
 713 1302 l 1,10,-1
 668 1160 l 1,11,-1
 453 551 l 1,12,-1
 961 551 l 1,8,-1
EndSplineSet
EndChar

StartChar: B
Encoding: 66 66 33
Width: 1339
Flags: W
LayerCount: 2
Fore
SplineSet
194 1523 m 1,0,-1
 298 1522 l 2,1,2
 335 1522 335 1522 373.5 1524.5 c 128,-1,3
 412 1527 412 1527 454 1529.5 c 128,-1,4
 496 1532 496 1532 544 1534.5 c 128,-1,5
 592 1537 592 1537 648 1537 c 0,6,7
 776 1537 776 1537 869.5 1511.5 c 128,-1,8
 963 1486 963 1486 1024 1438.5 c 128,-1,9
 1085 1391 1085 1391 1114.5 1324.5 c 128,-1,10
 1144 1258 1144 1258 1144 1177 c 0,11,12
 1144 1125 1144 1125 1131 1069.5 c 128,-1,13
 1118 1014 1118 1014 1090.5 964.5 c 128,-1,14
 1063 915 1063 915 1019 877 c 128,-1,15
 975 839 975 839 913 823 c 1,16,17
 983 820 983 820 1044 788.5 c 128,-1,18
 1105 757 1105 757 1150 706.5 c 128,-1,19
 1195 656 1195 656 1221 591 c 128,-1,20
 1247 526 1247 526 1247 456 c 0,21,22
 1247 353 1247 353 1217.5 266.5 c 128,-1,23
 1188 180 1188 180 1117 118 c 128,-1,24
 1046 56 1046 56 928 21 c 128,-1,25
 810 -14 810 -14 632 -14 c 0,26,27
 589 -14 589 -14 542.5 -12.5 c 128,-1,28
 496 -11 496 -11 452 -9 c 128,-1,29
 408 -7 408 -7 370 -4.5 c 128,-1,30
 332 -2 332 -2 305 0 c 1,31,-1
 194 0 l 1,32,-1
 194 1523 l 1,0,-1
416 867 m 1,33,34
 446 862 446 862 481.5 861 c 128,-1,35
 517 860 517 860 554 860 c 128,-1,36
 591 860 591 860 627 861 c 128,-1,37
 663 862 663 862 693 862 c 0,38,39
 741 862 741 862 784 879.5 c 128,-1,40
 827 897 827 897 859 932.5 c 128,-1,41
 891 968 891 968 909.5 1021 c 128,-1,42
 928 1074 928 1074 928 1145 c 0,43,44
 928 1266 928 1266 845 1323 c 128,-1,45
 762 1380 762 1380 607 1380 c 0,46,47
 592 1380 592 1380 564 1379.5 c 128,-1,48
 536 1379 536 1379 507 1377.5 c 128,-1,49
 478 1376 478 1376 452 1373.5 c 128,-1,50
 426 1371 426 1371 416 1367 c 1,51,-1
 416 867 l 1,33,34
416 171 m 1,52,53
 429 163 429 163 458 158 c 128,-1,54
 487 153 487 153 522 151 c 128,-1,55
 557 149 557 149 593.5 148.5 c 128,-1,56
 630 148 630 148 658 148 c 0,57,58
 743 148 743 148 810 162 c 128,-1,59
 877 176 877 176 924 209 c 128,-1,60
 971 242 971 242 996 296 c 128,-1,61
 1021 350 1021 350 1021 430 c 0,62,63
 1021 572 1021 572 935 637.5 c 128,-1,64
 849 703 849 703 668 703 c 0,65,66
 638 703 638 703 603.5 703.5 c 128,-1,67
 569 704 569 704 535 703.5 c 128,-1,68
 501 703 501 703 470 702 c 128,-1,69
 439 701 439 701 416 698 c 1,70,-1
 416 171 l 1,52,53
EndSplineSet
EndChar

StartChar: C
Encoding: 67 67 34
Width: 1313
Flags: W
LayerCount: 2
Fore
SplineSet
95 753 m 0,0,1
 95 942 95 942 152.5 1088.5 c 128,-1,2
 210 1235 210 1235 307 1334.5 c 128,-1,3
 404 1434 404 1434 531.5 1486 c 128,-1,4
 659 1538 659 1538 799 1538 c 0,5,6
 886 1538 886 1538 951.5 1531 c 128,-1,7
 1017 1524 1017 1524 1065 1514.5 c 128,-1,8
 1113 1505 1113 1505 1145.5 1495.5 c 128,-1,9
 1178 1486 1178 1486 1198 1481 c 1,10,-1
 1166 1283 l 1,11,12
 1155 1289 1155 1289 1131 1301 c 128,-1,13
 1107 1313 1107 1313 1065 1325.5 c 128,-1,14
 1023 1338 1023 1338 961.5 1347.5 c 128,-1,15
 900 1357 900 1357 814 1357 c 0,16,17
 698 1357 698 1357 606 1315.5 c 128,-1,18
 514 1274 514 1274 449.5 1197.5 c 128,-1,19
 385 1121 385 1121 350.5 1012 c 128,-1,20
 316 903 316 903 316 768 c 0,21,22
 316 634 316 634 350 522.5 c 128,-1,23
 384 411 384 411 448 330.5 c 128,-1,24
 512 250 512 250 604.5 205 c 128,-1,25
 697 160 697 160 813 160 c 0,26,27
 871 160 871 160 929.5 168 c 128,-1,28
 988 176 988 176 1038.5 189 c 128,-1,29
 1089 202 1089 202 1128 218.5 c 128,-1,30
 1167 235 1167 235 1187 253 c 1,31,-1
 1188 64 l 1,32,33
 1155 51 1155 51 1117.5 37 c 128,-1,34
 1080 23 1080 23 1034 11 c 128,-1,35
 988 -1 988 -1 931.5 -8.5 c 128,-1,36
 875 -16 875 -16 804 -16 c 0,37,38
 643 -16 643 -16 512 39.5 c 128,-1,39
 381 95 381 95 288.5 196 c 128,-1,40
 196 297 196 297 145.5 438.5 c 128,-1,41
 95 580 95 580 95 753 c 0,0,1
EndSplineSet
EndChar

StartChar: D
Encoding: 68 68 35
Width: 1472
Flags: W
LayerCount: 2
Fore
SplineSet
194 1522 m 1,0,-1
 306 1522 l 2,1,2
 343 1522 343 1522 386 1524.5 c 128,-1,3
 429 1527 429 1527 475.5 1530 c 128,-1,4
 522 1533 522 1533 570 1535.5 c 128,-1,5
 618 1538 618 1538 666 1538 c 0,6,7
 849 1538 849 1538 985 1488.5 c 128,-1,8
 1121 1439 1121 1439 1210.5 1344.5 c 128,-1,9
 1300 1250 1300 1250 1344 1114 c 128,-1,10
 1388 978 1388 978 1388 804 c 0,11,12
 1388 609 1388 609 1336 455.5 c 128,-1,13
 1284 302 1284 302 1187.5 196 c 128,-1,14
 1091 90 1091 90 952.5 35.5 c 128,-1,15
 814 -19 814 -19 642 -16 c 0,16,17
 604 -15 604 -15 558 -12.5 c 128,-1,18
 512 -10 512 -10 463.5 -7 c 128,-1,19
 415 -4 415 -4 367.5 -2 c 128,-1,20
 320 0 320 0 279 0 c 2,21,-1
 194 0 l 1,22,-1
 194 1522 l 1,0,-1
418 168 m 1,23,24
 443 162 443 162 474.5 158.5 c 128,-1,25
 506 155 506 155 540.5 152.5 c 128,-1,26
 575 150 575 150 610 149.5 c 128,-1,27
 645 149 645 149 677 149 c 0,28,29
 782 151 782 151 869.5 187 c 128,-1,30
 957 223 957 223 1021 298 c 128,-1,31
 1085 373 1085 373 1120.5 490 c 128,-1,32
 1156 607 1156 607 1156 771 c 0,33,34
 1156 940 1156 940 1121.5 1055.5 c 128,-1,35
 1087 1171 1087 1171 1019 1242.5 c 128,-1,36
 951 1314 951 1314 849.5 1345.5 c 128,-1,37
 748 1377 748 1377 614 1377 c 0,38,39
 552 1377 552 1377 501.5 1372.5 c 128,-1,40
 451 1368 451 1368 418 1361 c 1,41,-1
 418 168 l 1,23,24
EndSplineSet
EndChar

StartChar: E
Encoding: 69 69 36
Width: 1217
Flags: W
LayerCount: 2
Fore
SplineSet
194 1522 m 1,0,-1
 1070 1522 l 1,1,-1
 1070 1350 l 1,2,-1
 417 1350 l 1,3,-1
 417 870 l 1,4,-1
 896 870 l 1,5,-1
 896 698 l 1,6,-1
 417 698 l 1,7,-1
 417 175 l 1,8,-1
 1143 175 l 1,9,-1
 1143 0 l 1,10,-1
 194 0 l 1,11,-1
 194 1522 l 1,0,-1
EndSplineSet
EndChar

StartChar: F
Encoding: 70 70 37
Width: 1083
Flags: W
LayerCount: 2
Fore
SplineSet
194 1522 m 1,0,-1
 1068 1522 l 1,1,-1
 1068 1350 l 1,2,-1
 418 1350 l 1,3,-1
 418 851 l 1,4,-1
 905 851 l 1,5,-1
 905 679 l 1,6,-1
 418 679 l 1,7,-1
 418 0 l 1,8,-1
 194 0 l 1,9,-1
 194 1522 l 1,0,-1
EndSplineSet
EndChar

StartChar: G
Encoding: 71 71 38
Width: 1433
Flags: W
LayerCount: 2
Fore
SplineSet
99 753 m 0,0,1
 99 949 99 949 154 1096 c 128,-1,2
 209 1243 209 1243 304 1341 c 128,-1,3
 399 1439 399 1439 528 1488.5 c 128,-1,4
 657 1538 657 1538 804 1538 c 0,5,6
 889 1538 889 1538 948 1532.5 c 128,-1,7
 1007 1527 1007 1527 1053 1518 c 128,-1,8
 1099 1509 1099 1509 1139.5 1498.5 c 128,-1,9
 1180 1488 1180 1488 1230 1478 c 1,10,-1
 1220 1278 l 1,11,12
 1184 1297 1184 1297 1143.5 1312.5 c 128,-1,13
 1103 1328 1103 1328 1052.5 1339.5 c 128,-1,14
 1002 1351 1002 1351 938 1357.5 c 128,-1,15
 874 1364 874 1364 790 1364 c 0,16,17
 691 1364 691 1364 606.5 1324.5 c 128,-1,18
 522 1285 522 1285 460.5 1210 c 128,-1,19
 399 1135 399 1135 364.5 1026.5 c 128,-1,20
 330 918 330 918 330 780 c 0,21,22
 330 648 330 648 358.5 533.5 c 128,-1,23
 387 419 387 419 445 335 c 128,-1,24
 503 251 503 251 592 202.5 c 128,-1,25
 681 154 681 154 801 154 c 0,26,27
 842 154 842 154 886 157.5 c 128,-1,28
 930 161 930 161 970.5 168 c 128,-1,29
 1011 175 1011 175 1045.5 185.5 c 128,-1,30
 1080 196 1080 196 1102 211 c 1,31,-1
 1102 588 l 1,32,-1
 825 601 l 1,33,-1
 825 761 l 1,34,-1
 1317 761 l 1,35,-1
 1317 94 l 1,36,37
 1284 92 1284 92 1243 74.5 c 128,-1,38
 1202 57 1202 57 1143 37 c 128,-1,39
 1084 17 1084 17 1002 0.5 c 128,-1,40
 920 -16 920 -16 804 -16 c 0,41,42
 635 -16 635 -16 504 42.5 c 128,-1,43
 373 101 373 101 283 203.5 c 128,-1,44
 193 306 193 306 146 447 c 128,-1,45
 99 588 99 588 99 753 c 0,0,1
EndSplineSet
EndChar

StartChar: H
Encoding: 72 72 39
Width: 1552
Flags: W
LayerCount: 2
Fore
SplineSet
194 1522 m 1,0,-1
 417 1522 l 1,1,-1
 417 855 l 1,2,-1
 1135 855 l 1,3,-1
 1135 1522 l 1,4,-1
 1358 1522 l 1,5,-1
 1358 0 l 1,6,-1
 1135 0 l 1,7,-1
 1135 683 l 1,8,-1
 417 683 l 1,9,-1
 417 0 l 1,10,-1
 194 0 l 1,11,-1
 194 1522 l 1,0,-1
EndSplineSet
EndChar

StartChar: I
Encoding: 73 73 40
Width: 640
Flags: W
LayerCount: 2
Fore
SplineSet
207 1522 m 1,0,-1
 433 1522 l 1,1,-1
 433 0 l 1,2,-1
 207 0 l 1,3,-1
 207 1522 l 1,0,-1
EndSplineSet
EndChar

StartChar: J
Encoding: 74 74 41
Width: 713
Flags: W
LayerCount: 2
Fore
SplineSet
-42 -215 m 1,0,1
 -2 -201 -2 -201 40 -177.5 c 128,-1,2
 82 -154 82 -154 120.5 -119.5 c 128,-1,3
 159 -85 159 -85 189.5 -39 c 128,-1,4
 220 7 220 7 236 66 c 0,5,6
 248 111 248 111 254.5 171.5 c 128,-1,7
 261 232 261 232 264 302.5 c 128,-1,8
 267 373 267 373 267.5 450.5 c 128,-1,9
 268 528 268 528 268 608 c 2,10,-1
 268 1522 l 1,11,-1
 494 1522 l 1,12,-1
 494 613 l 2,13,14
 494 538 494 538 495 467 c 128,-1,15
 496 396 496 396 495 329.5 c 128,-1,16
 494 263 494 263 489.5 202 c 128,-1,17
 485 141 485 141 475 86 c 0,18,19
 458 -12 458 -12 409.5 -86 c 128,-1,20
 361 -160 361 -160 297 -211.5 c 128,-1,21
 233 -263 233 -263 161 -292.5 c 128,-1,22
 89 -322 89 -322 26 -332 c 1,23,-1
 -42 -215 l 1,24,-1
 -42 -215 l 1,0,1
EndSplineSet
EndChar

StartChar: K
Encoding: 75 75 42
Width: 1371
Flags: W
LayerCount: 2
Fore
SplineSet
194 1522 m 1,0,-1
 417 1522 l 1,1,-1
 417 758 l 1,2,-1
 1020 1522 l 1,3,-1
 1283 1522 l 1,4,-1
 744 866 l 1,5,6
 768 826 768 826 806 769 c 128,-1,7
 844 712 844 712 888.5 646 c 128,-1,8
 933 580 933 580 982 508 c 128,-1,9
 1031 436 1031 436 1077.5 365.5 c 128,-1,10
 1124 295 1124 295 1165.5 229.5 c 128,-1,11
 1207 164 1207 164 1237 110 c 1,12,-1
 1302 0 l 1,13,-1
 1045 0 l 1,14,15
 1038 10 1038 10 1032.5 20 c 128,-1,16
 1027 30 1027 30 1020.5 43 c 128,-1,17
 1014 56 1014 56 1005.5 73 c 128,-1,18
 997 90 997 90 984 113 c 0,19,20
 947 179 947 179 899 254.5 c 128,-1,21
 851 330 851 330 800 407.5 c 128,-1,22
 749 485 749 485 698.5 560 c 128,-1,23
 648 635 648 635 606 701 c 1,24,-1
 417 481 l 1,25,-1
 417 0 l 1,26,-1
 194 0 l 1,27,-1
 194 1522 l 1,0,-1
EndSplineSet
EndChar

StartChar: L
Encoding: 76 76 43
Width: 1080
Flags: W
LayerCount: 2
Fore
SplineSet
194 1522 m 1,0,-1
 422 1522 l 1,1,-1
 422 175 l 1,2,-1
 1026 175 l 1,3,-1
 1026 0 l 1,4,-1
 194 0 l 1,5,-1
 194 1522 l 1,0,-1
EndSplineSet
EndChar

StartChar: M
Encoding: 77 77 44
Width: 1923
Flags: W
LayerCount: 2
Fore
SplineSet
288 1522 m 1,0,-1
 603 1522 l 1,1,-1
 885 653 l 1,2,-1
 964 330 l 1,3,-1
 1039 653 l 1,4,-1
 1309 1522 l 1,5,-1
 1608 1522 l 1,6,-1
 1790 0 l 1,7,-1
 1566 0 l 1,8,-1
 1473 946 l 1,9,-1
 1444 1356 l 1,10,-1
 1342 946 l 1,11,-1
 1024 -15 l 1,12,-1
 904 -15 l 1,13,-1
 572 946 l 1,14,-1
 460 1355 l 1,15,-1
 433 946 l 1,16,-1
 350 0 l 1,17,-1
 134 -1 l 1,18,-1
 288 1522 l 1,0,-1
EndSplineSet
EndChar

StartChar: N
Encoding: 78 78 45
Width: 1556
Flags: W
LayerCount: 2
Fore
SplineSet
193 1522 m 1,0,-1
 397 1522 l 1,1,-1
 1048 517 l 1,2,-1
 1171 291 l 1,3,-1
 1158 545 l 1,4,-1
 1158 1522 l 1,5,-1
 1363 1522 l 1,6,-1
 1363 0 l 1,7,-1
 1156 0 l 1,8,-1
 526 967 l 1,9,-1
 386 1216 l 1,10,-1
 398 952 l 1,11,-1
 398 0 l 1,12,-1
 193 0 l 1,13,-1
 193 1522 l 1,0,-1
EndSplineSet
EndChar

StartChar: O
Encoding: 79 79 46
Width: 1569
Flags: W
LayerCount: 2
Fore
SplineSet
778 -16 m 0,0,1
 620 -19 620 -19 493 38.5 c 128,-1,2
 366 96 366 96 277.5 201.5 c 128,-1,3
 189 307 189 307 143 453 c 128,-1,4
 97 599 97 599 100 772 c 0,5,6
 104 962 104 962 160.5 1105.5 c 128,-1,7
 217 1249 217 1249 313 1345 c 128,-1,8
 409 1441 409 1441 536 1489.5 c 128,-1,9
 663 1538 663 1538 808 1538 c 0,10,11
 959 1538 959 1538 1082.5 1483 c 128,-1,12
 1206 1428 1206 1428 1293 1326.5 c 128,-1,13
 1380 1225 1380 1225 1426 1081.5 c 128,-1,14
 1472 938 1472 938 1469 761 c 0,15,16
 1465 571 1465 571 1411.5 427 c 128,-1,17
 1358 283 1358 283 1265.5 185.5 c 128,-1,18
 1173 88 1173 88 1048.5 37.5 c 128,-1,19
 924 -13 924 -13 778 -16 c 0,0,1
785 155 m 0,20,21
 889 155 889 155 973.5 195 c 128,-1,22
 1058 235 1058 235 1118 313 c 128,-1,23
 1178 391 1178 391 1210.5 506 c 128,-1,24
 1243 621 1243 621 1243 772 c 0,25,26
 1243 892 1243 892 1215 1000 c 128,-1,27
 1187 1108 1187 1108 1131.5 1189.5 c 128,-1,28
 1076 1271 1076 1271 993 1319.5 c 128,-1,29
 910 1368 910 1368 801 1368 c 0,30,31
 705 1368 705 1368 618.5 1331.5 c 128,-1,32
 532 1295 532 1295 466.5 1219.5 c 128,-1,33
 401 1144 401 1144 363 1029 c 128,-1,34
 325 914 325 914 325 758 c 0,35,36
 325 679 325 679 338 603.5 c 128,-1,37
 351 528 351 528 376.5 461 c 128,-1,38
 402 394 402 394 441 338 c 128,-1,39
 480 282 480 282 531 241 c 128,-1,40
 582 200 582 200 645.5 177.5 c 128,-1,41
 709 155 709 155 785 155 c 0,20,21
EndSplineSet
EndChar

StartChar: P
Encoding: 80 80 47
Width: 1270
Flags: W
LayerCount: 2
Fore
SplineSet
194 1522 m 1,0,-1
 299 1522 l 2,1,2
 386 1522 386 1522 475 1530 c 128,-1,3
 564 1538 564 1538 665 1538 c 0,4,5
 788 1538 788 1538 886.5 1509.5 c 128,-1,6
 985 1481 985 1481 1053.5 1421 c 128,-1,7
 1122 1361 1122 1361 1159 1268 c 128,-1,8
 1196 1175 1196 1175 1196 1045 c 0,9,10
 1196 921 1196 921 1158.5 823.5 c 128,-1,11
 1121 726 1121 726 1047.5 659 c 128,-1,12
 974 592 974 592 865 557 c 128,-1,13
 756 522 756 522 614 522 c 0,14,15
 541 522 541 522 493.5 524 c 128,-1,16
 446 526 446 526 417 527 c 1,17,-1
 417 0 l 1,18,-1
 194 0 l 1,19,-1
 194 1522 l 1,0,-1
417 696 m 1,20,21
 468 689 468 689 512.5 687.5 c 128,-1,22
 557 686 557 686 601 686 c 0,23,24
 674 686 674 686 741.5 699.5 c 128,-1,25
 809 713 809 713 860.5 752 c 128,-1,26
 912 791 912 791 943 861 c 128,-1,27
 974 931 974 931 974 1043 c 0,28,29
 974 1226 974 1226 877.5 1305 c 128,-1,30
 781 1384 781 1384 598 1378 c 0,31,32
 552 1376 552 1376 505.5 1373 c 128,-1,33
 459 1370 459 1370 417 1359 c 1,34,-1
 417 696 l 1,20,21
EndSplineSet
EndChar

StartChar: Q
Encoding: 81 81 48
Width: 1569
Flags: W
LayerCount: 2
Fore
SplineSet
766 -16 m 1,0,1
 611 -17 611 -17 486 42 c 128,-1,2
 361 101 361 101 274 206 c 128,-1,3
 187 311 187 311 142 456 c 128,-1,4
 97 601 97 601 100 772 c 0,5,6
 104 962 104 962 160.5 1105.5 c 128,-1,7
 217 1249 217 1249 313 1345 c 128,-1,8
 409 1441 409 1441 536 1489.5 c 128,-1,9
 663 1538 663 1538 808 1538 c 0,10,11
 959 1538 959 1538 1082.5 1483 c 128,-1,12
 1206 1428 1206 1428 1293 1326.5 c 128,-1,13
 1380 1225 1380 1225 1426 1081.5 c 128,-1,14
 1472 938 1472 938 1469 761 c 0,15,16
 1466 605 1466 605 1429 480.5 c 128,-1,17
 1392 356 1392 356 1327.5 262 c 128,-1,18
 1263 168 1263 168 1174 106 c 128,-1,19
 1085 44 1085 44 979 13 c 1,20,21
 1044 -54 1044 -54 1136.5 -83.5 c 128,-1,22
 1229 -113 1229 -113 1327 -113 c 0,23,24
 1346 -113 1346 -113 1371 -112.5 c 128,-1,25
 1396 -112 1396 -112 1421.5 -109.5 c 128,-1,26
 1447 -107 1447 -107 1470.5 -103.5 c 128,-1,27
 1494 -100 1494 -100 1511 -94 c 1,28,-1
 1511 -254 l 1,29,30
 1499 -262 1499 -262 1480 -269 c 128,-1,31
 1461 -276 1461 -276 1436.5 -281.5 c 128,-1,32
 1412 -287 1412 -287 1384 -290.5 c 128,-1,33
 1356 -294 1356 -294 1328 -294 c 0,34,35
 1249 -294 1249 -294 1175 -282 c 128,-1,36
 1101 -270 1101 -270 1031 -239 c 128,-1,37
 961 -208 961 -208 895 -154 c 128,-1,38
 829 -100 829 -100 766 -16 c 1,0,1
785 155 m 0,39,40
 889 155 889 155 973.5 195 c 128,-1,41
 1058 235 1058 235 1118 313 c 128,-1,42
 1178 391 1178 391 1210.5 506 c 128,-1,43
 1243 621 1243 621 1243 772 c 0,44,45
 1243 892 1243 892 1215 1000 c 128,-1,46
 1187 1108 1187 1108 1131.5 1189.5 c 128,-1,47
 1076 1271 1076 1271 993 1319.5 c 128,-1,48
 910 1368 910 1368 801 1368 c 0,49,50
 705 1368 705 1368 618.5 1331.5 c 128,-1,51
 532 1295 532 1295 466.5 1219.5 c 128,-1,52
 401 1144 401 1144 363 1029 c 128,-1,53
 325 914 325 914 325 758 c 0,54,55
 325 679 325 679 338 603.5 c 128,-1,56
 351 528 351 528 376.5 461 c 128,-1,57
 402 394 402 394 441 338 c 128,-1,58
 480 282 480 282 531 241 c 128,-1,59
 582 200 582 200 645.5 177.5 c 128,-1,60
 709 155 709 155 785 155 c 0,39,40
EndSplineSet
EndChar

StartChar: R
Encoding: 82 82 49
Width: 1367
Flags: W
LayerCount: 2
Fore
SplineSet
194 1522 m 1,0,-1
 291 1522 l 2,1,2
 366 1522 366 1522 467 1530 c 128,-1,3
 568 1538 568 1538 679 1538 c 0,4,5
 795 1538 795 1538 890.5 1514 c 128,-1,6
 986 1490 986 1490 1054 1438 c 128,-1,7
 1122 1386 1122 1386 1159.5 1305 c 128,-1,8
 1197 1224 1197 1224 1197 1110 c 0,9,10
 1197 942 1197 942 1123.5 837.5 c 128,-1,11
 1050 733 1050 733 922 688 c 1,12,13
 957 664 957 664 987.5 624.5 c 128,-1,14
 1018 585 1018 585 1045.5 536 c 128,-1,15
 1073 487 1073 487 1098.5 432 c 128,-1,16
 1124 377 1124 377 1148 321.5 c 128,-1,17
 1172 266 1172 266 1196 212 c 128,-1,18
 1220 158 1220 158 1245 112 c 0,19,20
 1260 83 1260 83 1275 55.5 c 128,-1,21
 1290 28 1290 28 1306 0 c 1,22,-1
 1053 0 l 1,23,24
 1046 10 1046 10 1041 19.5 c 128,-1,25
 1036 29 1036 29 1030 41.5 c 128,-1,26
 1024 54 1024 54 1016.5 71 c 128,-1,27
 1009 88 1009 88 998 112 c 0,28,29
 977 156 977 156 957 210 c 128,-1,30
 937 264 937 264 915 319.5 c 128,-1,31
 893 375 893 375 869 428.5 c 128,-1,32
 845 482 845 482 817 527 c 128,-1,33
 789 572 789 572 755.5 604.5 c 128,-1,34
 722 637 722 637 682 650 c 1,35,36
 637 648 637 648 574.5 648 c 128,-1,37
 512 648 512 648 417 648 c 1,38,-1
 417 0 l 1,39,-1
 194 0 l 1,40,-1
 194 1522 l 1,0,-1
417 806 m 1,41,42
 433 804 433 804 464.5 803 c 128,-1,43
 496 802 496 802 531 801 c 128,-1,44
 566 800 566 800 599 800 c 128,-1,45
 632 800 632 800 652 800 c 0,46,47
 726 800 726 800 784.5 817 c 128,-1,48
 843 834 843 834 884 870.5 c 128,-1,49
 925 907 925 907 947 963.5 c 128,-1,50
 969 1020 969 1020 969 1099 c 0,51,52
 969 1170 969 1170 951.5 1222 c 128,-1,53
 934 1274 934 1274 895.5 1307.5 c 128,-1,54
 857 1341 857 1341 795.5 1357.5 c 128,-1,55
 734 1374 734 1374 646 1374 c 0,56,57
 583 1374 583 1374 524 1370 c 128,-1,58
 465 1366 465 1366 417 1356 c 1,59,-1
 417 806 l 1,41,42
EndSplineSet
EndChar

StartChar: S
Encoding: 83 83 50
Width: 1132
Flags: W
LayerCount: 2
Fore
SplineSet
181 254 m 1,0,1
 209 237 209 237 249 220 c 128,-1,2
 289 203 289 203 336.5 190 c 128,-1,3
 384 177 384 177 436 169 c 128,-1,4
 488 161 488 161 540 161 c 0,5,6
 612 161 612 161 668 173 c 128,-1,7
 724 185 724 185 763 210.5 c 128,-1,8
 802 236 802 236 822.5 276 c 128,-1,9
 843 316 843 316 843 372 c 256,10,11
 843 428 843 428 820.5 470 c 128,-1,12
 798 512 798 512 755 547.5 c 128,-1,13
 712 583 712 583 649 616.5 c 128,-1,14
 586 650 586 650 506 689 c 0,15,16
 435 723 435 723 366.5 768 c 128,-1,17
 298 813 298 813 244.5 870 c 128,-1,18
 191 927 191 927 158 995.5 c 128,-1,19
 125 1064 125 1064 125 1147 c 0,20,21
 125 1220 125 1220 145.5 1277.5 c 128,-1,22
 166 1335 166 1335 201.5 1378.5 c 128,-1,23
 237 1422 237 1422 285.5 1452 c 128,-1,24
 334 1482 334 1482 390 1501.5 c 128,-1,25
 446 1521 446 1521 507.5 1529.5 c 128,-1,26
 569 1538 569 1538 631 1538 c 0,27,28
 700 1538 700 1538 756.5 1530.5 c 128,-1,29
 813 1523 813 1523 857 1511.5 c 128,-1,30
 901 1500 901 1500 933 1486 c 128,-1,31
 965 1472 965 1472 985 1459 c 1,32,-1
 940 1283 l 1,33,34
 914 1299 914 1299 885 1313.5 c 128,-1,35
 856 1328 856 1328 819.5 1339 c 128,-1,36
 783 1350 783 1350 736 1356.5 c 128,-1,37
 689 1363 689 1363 628 1363 c 0,38,39
 574 1363 574 1363 522 1352.5 c 128,-1,40
 470 1342 470 1342 429 1319.5 c 128,-1,41
 388 1297 388 1297 363 1261.5 c 128,-1,42
 338 1226 338 1226 338 1177 c 0,43,44
 338 1121 338 1121 354.5 1080.5 c 128,-1,45
 371 1040 371 1040 407.5 1005.5 c 128,-1,46
 444 971 444 971 501.5 937.5 c 128,-1,47
 559 904 559 904 641 862 c 0,48,49
 690 837 690 837 740 809 c 128,-1,50
 790 781 790 781 837 749.5 c 128,-1,51
 884 718 884 718 925 681.5 c 128,-1,52
 966 645 966 645 996.5 601.5 c 128,-1,53
 1027 558 1027 558 1044.5 507.5 c 128,-1,54
 1062 457 1062 457 1062 398 c 0,55,56
 1062 292 1062 292 1024.5 214 c 128,-1,57
 987 136 987 136 920 85 c 128,-1,58
 853 34 853 34 760 9 c 128,-1,59
 667 -16 667 -16 555 -16 c 0,60,61
 480 -16 480 -16 411.5 -7.5 c 128,-1,62
 343 1 343 1 286.5 14 c 128,-1,63
 230 27 230 27 189 42.5 c 128,-1,64
 148 58 148 58 128 71 c 1,65,-1
 181 254 l 1,0,1
EndSplineSet
EndChar

StartChar: T
Encoding: 84 84 51
Width: 1303
Flags: W
LayerCount: 2
Fore
SplineSet
538 1350 m 1,0,-1
 63 1350 l 1,1,-1
 63 1522 l 1,2,-1
 1240 1522 l 1,3,-1
 1240 1350 l 1,4,-1
 763 1350 l 1,5,-1
 763 0 l 1,6,-1
 538 0 l 1,7,-1
 538 1350 l 1,0,-1
EndSplineSet
EndChar

StartChar: U
Encoding: 85 85 52
Width: 1463
Flags: W
LayerCount: 2
Fore
SplineSet
159 1522 m 1,0,-1
 382 1522 l 1,1,-1
 381 686 l 2,2,3
 381 528 381 528 405.5 426 c 128,-1,4
 430 324 430 324 477 264.5 c 128,-1,5
 524 205 524 205 592 181.5 c 128,-1,6
 660 158 660 158 748 158 c 0,7,8
 825 158 825 158 887 181.5 c 128,-1,9
 949 205 949 205 992.5 265 c 128,-1,10
 1036 325 1036 325 1059.5 427 c 128,-1,11
 1083 529 1083 529 1083 686 c 2,12,-1
 1083 1522 l 1,13,-1
 1305 1522 l 1,14,-1
 1305 630 l 2,15,16
 1305 474 1305 474 1270.5 354 c 128,-1,17
 1236 234 1236 234 1166 151.5 c 128,-1,18
 1096 69 1096 69 990 26.5 c 128,-1,19
 884 -16 884 -16 741 -16 c 0,20,21
 584 -16 584 -16 473.5 27.5 c 128,-1,22
 363 71 363 71 293 154 c 128,-1,23
 223 237 223 237 191 357.5 c 128,-1,24
 159 478 159 478 159 633 c 2,25,-1
 159 1522 l 1,0,-1
EndSplineSet
EndChar

StartChar: V
Encoding: 86 86 53
Width: 1355
Flags: W
LayerCount: 2
Fore
SplineSet
22 1522 m 1,0,-1
 259 1522 l 1,1,-1
 619 498 l 1,2,-1
 686 263 l 1,3,-1
 755 498 l 1,4,-1
 1099 1522 l 1,5,-1
 1333 1522 l 1,6,-1
 778 -13 l 1,7,-1
 591 -13 l 1,8,-1
 22 1522 l 1,0,-1
EndSplineSet
EndChar

StartChar: W
Encoding: 87 87 54
Width: 1918
Flags: W
LayerCount: 2
Fore
SplineSet
22 1522 m 1,0,-1
 251 1522 l 1,1,-1
 493 534 l 1,2,-1
 543 258 l 1,3,-1
 594 534 l 1,4,-1
 881 1522 l 1,5,-1
 1042 1522 l 1,6,-1
 1333 534 l 1,7,-1
 1399 256 l 1,8,-1
 1446 533 l 1,9,-1
 1672 1522 l 1,10,-1
 1896 1522 l 1,11,-1
 1503 -16 l 1,12,-1
 1285 -16 l 1,13,-1
 995 982 l 1,14,-1
 960 1164 l 1,15,-1
 926 981 l 1,16,-1
 632 -16 l 1,17,-1
 441 -16 l 1,18,-1
 22 1522 l 1,0,-1
EndSplineSet
EndChar

StartChar: X
Encoding: 88 88 55
Width: 1314
Flags: W
LayerCount: 2
Fore
SplineSet
523 786 m 1,0,-1
 45 1522 l 1,1,-1
 296 1523 l 1,2,-1
 667 917 l 1,3,-1
 1023 1522 l 1,4,-1
 1262 1522 l 1,5,-1
 785 753 l 1,6,-1
 1272 0 l 1,7,-1
 1018 0 l 1,8,-1
 645 618 l 1,9,-1
 282 0 l 1,10,-1
 43 0 l 1,11,-1
 523 786 l 1,0,-1
EndSplineSet
EndChar

StartChar: Y
Encoding: 89 89 56
Width: 1264
Flags: W
LayerCount: 2
Fore
SplineSet
523 593 m 1,0,-1
 22 1522 l 1,1,-1
 260 1522 l 1,2,-1
 598 862 l 1,3,-1
 641 757 l 1,4,-1
 677 862 l 1,5,-1
 1008 1522 l 1,6,-1
 1242 1522 l 1,7,-1
 749 593 l 1,8,-1
 749 0 l 1,9,-1
 523 0 l 1,10,-1
 523 593 l 1,0,-1
EndSplineSet
EndChar

StartChar: Z
Encoding: 90 90 57
Width: 1294
Flags: W
LayerCount: 2
Fore
SplineSet
866 1273 m 1,0,-1
 924 1344 l 1,1,-1
 174 1344 l 1,2,-1
 174 1522 l 1,3,-1
 1170 1522 l 1,4,-1
 1216 1441 l 1,5,-1
 456 260 l 1,6,-1
 382 175 l 1,7,-1
 1157 175 l 1,8,-1
 1157 0 l 1,9,-1
 134 0 l 1,10,-1
 89 84 l 1,11,-1
 866 1273 l 1,0,-1
EndSplineSet
EndChar

StartChar: bracketleft
Encoding: 91 91 58
Width: 837
Flags: W
LayerCount: 2
Fore
SplineSet
185 1486 m 2,0,1
 185 1560 185 1560 193 1608.5 c 128,-1,2
 201 1657 201 1657 222 1685.5 c 128,-1,3
 243 1714 243 1714 280 1725.5 c 128,-1,4
 317 1737 317 1737 375 1737 c 0,5,6
 421 1737 421 1737 458.5 1735 c 128,-1,7
 496 1733 496 1733 529.5 1729.5 c 128,-1,8
 563 1726 563 1726 595.5 1721.5 c 128,-1,9
 628 1717 628 1717 665 1713 c 1,10,-1
 665 1593 l 1,11,-1
 397 1593 l 1,12,-1
 397 -49 l 1,13,-1
 665 -51 l 1,14,-1
 665 -167 l 1,15,16
 628 -172 628 -172 595.5 -176.5 c 128,-1,17
 563 -181 563 -181 529.5 -184 c 128,-1,18
 496 -187 496 -187 458.5 -189 c 128,-1,19
 421 -191 421 -191 375 -191 c 0,20,21
 317 -191 317 -191 280 -179.5 c 128,-1,22
 243 -168 243 -168 222 -139.5 c 128,-1,23
 201 -111 201 -111 193 -62.5 c 128,-1,24
 185 -14 185 -14 185 60 c 2,25,-1
 185 1486 l 2,0,1
EndSplineSet
EndChar

StartChar: asciicircum
Encoding: 94 94 61
Width: 1363
Flags: W
LayerCount: 2
Fore
SplineSet
579 1531 m 1,0,-1
 784 1531 l 1,1,-1
 1178 490 l 1,2,-1
 967 490 l 1,3,-1
 681 1288 l 1,4,-1
 396 490 l 1,5,-1
 185 490 l 1,6,-1
 579 1531 l 1,0,-1
EndSplineSet
EndChar

StartChar: underscore
Encoding: 95 95 62
Width: 1692
Flags: W
LayerCount: 2
Fore
SplineSet
1732 -279 m 1,0,-1
 1732 -416 l 1,1,-1
 -40 -416 l 1,2,-1
 -40 -279 l 1,3,-1
 1732 -279 l 1,0,-1
EndSplineSet
EndChar

StartChar: grave
Encoding: 96 96 63
Width: 595
Flags: W
LayerCount: 2
Fore
SplineSet
434 1294 m 1,0,1
 414 1303 414 1303 382 1326 c 128,-1,2
 350 1349 350 1349 313 1380 c 128,-1,3
 276 1411 276 1411 236.5 1447 c 128,-1,4
 197 1483 197 1483 161 1519.5 c 128,-1,5
 125 1556 125 1556 95.5 1589.5 c 128,-1,6
 66 1623 66 1623 50 1648 c 1,7,-1
 207 1783 l 1,8,9
 243 1737 243 1737 284.5 1687 c 128,-1,10
 326 1637 326 1637 370 1585.5 c 128,-1,11
 414 1534 414 1534 458.5 1483 c 128,-1,12
 503 1432 503 1432 545 1384 c 1,13,-1
 434 1294 l 1,14,-1
 434 1294 l 1,0,1
EndSplineSet
EndChar

StartChar: a
Encoding: 97 97 64
Width: 1131
Flags: W
LayerCount: 2
Fore
SplineSet
94 305 m 0,0,1
 94 416 94 416 154 494 c 128,-1,2
 214 572 214 572 316 614 c 0,3,4
 365 634 365 634 421 648 c 128,-1,5
 477 662 477 662 534 671 c 128,-1,6
 591 680 591 680 646.5 684 c 128,-1,7
 702 688 702 688 750 688 c 1,8,-1
 750 803 l 2,9,10
 750 864 750 864 736.5 901 c 128,-1,11
 723 938 723 938 695 958 c 128,-1,12
 667 978 667 978 625.5 984.5 c 128,-1,13
 584 991 584 991 527 991 c 0,14,15
 487 991 487 991 439.5 983 c 128,-1,16
 392 975 392 975 346.5 963 c 128,-1,17
 301 951 301 951 263 936.5 c 128,-1,18
 225 922 225 922 204 908 c 1,19,-1
 150 1052 l 1,20,21
 166 1062 166 1062 210 1079.5 c 128,-1,22
 254 1097 254 1097 314 1114 c 128,-1,23
 374 1131 374 1131 444.5 1144 c 128,-1,24
 515 1157 515 1157 584 1157 c 0,25,26
 670 1157 670 1157 741 1142.5 c 128,-1,27
 812 1128 812 1128 863 1088 c 128,-1,28
 914 1048 914 1048 942 977 c 128,-1,29
 970 906 970 906 970 794 c 2,30,-1
 970 -16 l 1,31,-1
 880 -16 l 2,32,33
 851 -16 851 -16 829.5 -13.5 c 128,-1,34
 808 -11 808 -11 793 -1 c 128,-1,35
 778 9 778 9 770.5 30 c 128,-1,36
 763 51 763 51 763 88 c 2,37,-1
 763 96 l 1,38,39
 740 75 740 75 706 55 c 128,-1,40
 672 35 672 35 630.5 19 c 128,-1,41
 589 3 589 3 541.5 -6.5 c 128,-1,42
 494 -16 494 -16 443 -16 c 0,43,44
 367 -16 367 -16 303 6 c 128,-1,45
 239 28 239 28 192.5 69.5 c 128,-1,46
 146 111 146 111 120 170.5 c 128,-1,47
 94 230 94 230 94 305 c 0,0,1
311 324 m 0,48,49
 311 148 311 148 508 148 c 0,50,51
 546 148 546 148 585.5 157 c 128,-1,52
 625 166 625 166 658.5 178.5 c 128,-1,53
 692 191 692 191 716.5 205 c 128,-1,54
 741 219 741 219 750 229 c 1,55,-1
 750 548 l 1,56,57
 719 548 719 548 678 545 c 128,-1,58
 637 542 637 542 594 535 c 128,-1,59
 551 528 551 528 510 518 c 128,-1,60
 469 508 469 508 438 493 c 0,61,62
 410 480 410 480 387 464.5 c 128,-1,63
 364 449 364 449 347 428.5 c 128,-1,64
 330 408 330 408 320.5 382.5 c 128,-1,65
 311 357 311 357 311 324 c 0,48,49
EndSplineSet
Substitution2: "Single Substitution lookup 16 subtable" ordfeminine
Substitution2: "'aalt' Access All Alternates in Latin lookup 0 subtable" ordfeminine
EndChar

StartChar: b
Encoding: 98 98 65
Width: 1238
Flags: W
LayerCount: 2
Fore
SplineSet
166 1661 m 1,0,-1
 386 1661 l 1,1,-1
 386 1189 l 1,2,-1
 378 1030 l 1,3,4
 398 1050 398 1050 425.5 1072.5 c 128,-1,5
 453 1095 453 1095 490.5 1113.5 c 128,-1,6
 528 1132 528 1132 577.5 1144 c 128,-1,7
 627 1156 627 1156 691 1156 c 0,8,9
 781 1156 781 1156 862.5 1123 c 128,-1,10
 944 1090 944 1090 1006 1022.5 c 128,-1,11
 1068 955 1068 955 1104.5 853 c 128,-1,12
 1141 751 1141 751 1141 612 c 0,13,14
 1141 474 1141 474 1100 358 c 128,-1,15
 1059 242 1059 242 983.5 158.5 c 128,-1,16
 908 75 908 75 802 28.5 c 128,-1,17
 696 -18 696 -18 566 -18 c 0,18,19
 506 -18 506 -18 442.5 -9 c 128,-1,20
 379 0 379 0 322.5 12.5 c 128,-1,21
 266 25 266 25 224 39 c 128,-1,22
 182 53 182 53 166 64 c 1,23,-1
 166 1661 l 1,0,-1
386 184 m 1,24,25
 443 144 443 144 591 144 c 0,26,27
 660 144 660 144 719 172 c 128,-1,28
 778 200 778 200 821.5 255.5 c 128,-1,29
 865 311 865 311 890 393 c 128,-1,30
 915 475 915 475 917 582 c 0,31,32
 918 685 918 685 899.5 760.5 c 128,-1,33
 881 836 881 836 844.5 885.5 c 128,-1,34
 808 935 808 935 754 959 c 128,-1,35
 700 983 700 983 630 983 c 0,36,37
 589 983 589 983 552.5 974 c 128,-1,38
 516 965 516 965 485 951 c 128,-1,39
 454 937 454 937 429 920.5 c 128,-1,40
 404 904 404 904 386 890 c 1,41,-1
 386 184 l 1,24,25
EndSplineSet
EndChar

StartChar: c
Encoding: 99 99 66
Width: 1002
Flags: W
LayerCount: 2
Fore
SplineSet
97 558 m 0,0,1
 97 684 97 684 131.5 793 c 128,-1,2
 166 902 166 902 235 983 c 128,-1,3
 304 1064 304 1064 407 1110 c 128,-1,4
 510 1156 510 1156 648 1156 c 0,5,6
 702 1156 702 1156 747 1150 c 128,-1,7
 792 1144 792 1144 828 1135.5 c 128,-1,8
 864 1127 864 1127 889 1116.5 c 128,-1,9
 914 1106 914 1106 928 1097 c 1,10,-1
 893 923 l 1,11,12
 848 955 848 955 786.5 970.5 c 128,-1,13
 725 986 725 986 637 986 c 0,14,15
 578 986 578 986 521 964.5 c 128,-1,16
 464 943 464 943 418.5 896 c 128,-1,17
 373 849 373 849 343.5 775 c 128,-1,18
 314 701 314 701 310 597 c 0,19,20
 306 488 306 488 330 404.5 c 128,-1,21
 354 321 354 321 397.5 264.5 c 128,-1,22
 441 208 441 208 501.5 179 c 128,-1,23
 562 150 562 150 631 150 c 0,24,25
 674 150 674 150 714.5 156 c 128,-1,26
 755 162 755 162 790.5 172 c 128,-1,27
 826 182 826 182 855 193.5 c 128,-1,28
 884 205 884 205 903 217 c 1,29,-1
 948 92 l 1,30,31
 922 68 922 68 884 48 c 128,-1,32
 846 28 846 28 800.5 13.5 c 128,-1,33
 755 -1 755 -1 703.5 -8.5 c 128,-1,34
 652 -16 652 -16 598 -16 c 0,35,36
 478 -16 478 -16 384.5 28 c 128,-1,37
 291 72 291 72 227 149 c 128,-1,38
 163 226 163 226 130 331 c 128,-1,39
 97 436 97 436 97 558 c 0,0,1
EndSplineSet
EndChar

StartChar: d
Encoding: 100 100 67
Width: 1237
Flags: W
LayerCount: 2
Fore
SplineSet
97 528 m 0,0,1
 97 666 97 666 137.5 781.5 c 128,-1,2
 178 897 178 897 253 980.5 c 128,-1,3
 328 1064 328 1064 433.5 1110 c 128,-1,4
 539 1156 539 1156 668 1156 c 0,5,6
 724 1156 724 1156 771 1147.5 c 128,-1,7
 818 1139 818 1139 854 1127 c 1,8,-1
 851 1189 l 1,9,-1
 851 1664 l 1,10,-1
 1071 1664 l 1,11,-1
 1071 -16 l 1,12,-1
 976 -16 l 2,13,14
 950 -16 950 -16 929.5 -13.5 c 128,-1,15
 909 -11 909 -11 894 -2 c 128,-1,16
 879 7 879 7 871 24.5 c 128,-1,17
 863 42 863 42 863 72 c 2,18,-1
 863 112 l 1,19,20
 843 92 843 92 815.5 69.5 c 128,-1,21
 788 47 788 47 749.5 28 c 128,-1,22
 711 9 711 9 661 -3.5 c 128,-1,23
 611 -16 611 -16 546 -16 c 0,24,25
 456 -16 456 -16 375 17 c 128,-1,26
 294 50 294 50 232 117.5 c 128,-1,27
 170 185 170 185 133.5 287 c 128,-1,28
 97 389 97 389 97 528 c 0,0,1
607 157 m 0,29,30
 648 157 648 157 684.5 166 c 128,-1,31
 721 175 721 175 752 188.5 c 128,-1,32
 783 202 783 202 808 218.5 c 128,-1,33
 833 235 833 235 851 249 c 1,34,-1
 851 946 l 1,35,36
 820 973 820 973 769.5 984.5 c 128,-1,37
 719 996 719 996 646 996 c 0,38,39
 578 996 578 996 519 968 c 128,-1,40
 460 940 460 940 416.5 884.5 c 128,-1,41
 373 829 373 829 347.5 747 c 128,-1,42
 322 665 322 665 321 558 c 0,43,44
 319 352 319 352 393.5 254.5 c 128,-1,45
 468 157 468 157 607 157 c 0,29,30
EndSplineSet
EndChar

StartChar: e
Encoding: 101 101 68
Width: 1123
Flags: W
LayerCount: 2
Fore
SplineSet
97 572 m 0,0,1
 97 696 97 696 129.5 802 c 128,-1,2
 162 908 162 908 226 986 c 128,-1,3
 290 1064 290 1064 385.5 1109 c 128,-1,4
 481 1154 481 1154 606 1156 c 0,5,6
 691 1157 691 1157 766 1130.5 c 128,-1,7
 841 1104 841 1104 897.5 1049.5 c 128,-1,8
 954 995 954 995 988.5 914 c 128,-1,9
 1023 833 1023 833 1026 726 c 1,10,11
 1026 661 1026 661 1024.5 610.5 c 128,-1,12
 1023 560 1023 560 1015 522 c 1,13,-1
 312 522 l 1,14,15
 312 517 312 517 312.5 512 c 128,-1,16
 313 507 313 507 313 502 c 0,17,18
 318 401 318 401 347 333.5 c 128,-1,19
 376 266 376 266 422.5 225.5 c 128,-1,20
 469 185 469 185 530 167.5 c 128,-1,21
 591 150 591 150 661 150 c 0,22,23
 689 150 689 150 729.5 155 c 128,-1,24
 770 160 770 160 810.5 168.5 c 128,-1,25
 851 177 851 177 887.5 188.5 c 128,-1,26
 924 200 924 200 945 212 c 1,27,-1
 987 86 l 1,28,29
 959 63 959 63 914.5 44.5 c 128,-1,30
 870 26 870 26 817.5 12.5 c 128,-1,31
 765 -1 765 -1 709 -8.5 c 128,-1,32
 653 -16 653 -16 602 -16 c 0,33,34
 480 -16 480 -16 386 24 c 128,-1,35
 292 64 292 64 228 139.5 c 128,-1,36
 164 215 164 215 130.5 324 c 128,-1,37
 97 433 97 433 97 572 c 0,0,1
820 668 m 1,38,39
 824 729 824 729 817 788.5 c 128,-1,40
 810 848 810 848 785.5 895 c 128,-1,41
 761 942 761 942 715 971 c 128,-1,42
 669 1000 669 1000 594 1000 c 0,43,44
 543 1000 543 1000 497 982.5 c 128,-1,45
 451 965 451 965 414 926 c 128,-1,46
 377 887 377 887 352 823.5 c 128,-1,47
 327 760 327 760 317 668 c 1,48,-1
 820 668 l 1,38,39
EndSplineSet
EndChar

StartChar: f
Encoding: 102 102 69
Width: 811
Flags: W
LayerCount: 2
Fore
SplineSet
248 974 m 1,0,-1
 75 974 l 1,1,-1
 75 1096 l 1,2,-1
 248 1140 l 1,3,-1
 248 1239 l 2,4,5
 248 1324 248 1324 266 1390 c 128,-1,6
 284 1456 284 1456 314.5 1505.5 c 128,-1,7
 345 1555 345 1555 386 1588.5 c 128,-1,8
 427 1622 427 1622 472.5 1643 c 128,-1,9
 518 1664 518 1664 566.5 1673 c 128,-1,10
 615 1682 615 1682 661 1682 c 0,11,12
 708 1682 708 1682 747.5 1674 c 128,-1,13
 787 1666 787 1666 803 1660 c 1,14,-1
 803 1486 l 1,15,16
 788 1491 788 1491 771.5 1495 c 128,-1,17
 755 1499 755 1499 735 1501.5 c 128,-1,18
 715 1504 715 1504 689.5 1505 c 128,-1,19
 664 1506 664 1506 631 1506 c 0,20,21
 595 1506 595 1506 565.5 1492.5 c 128,-1,22
 536 1479 536 1479 514 1452 c 128,-1,23
 492 1425 492 1425 480 1384 c 128,-1,24
 468 1343 468 1343 468 1289 c 2,25,-1
 468 1140 l 1,26,-1
 750 1140 l 1,27,-1
 750 974 l 1,28,-1
 468 974 l 1,29,-1
 468 0 l 1,30,-1
 248 0 l 1,31,-1
 248 974 l 1,0,-1
EndSplineSet
EndChar

StartChar: g
Encoding: 103 103 70
Width: 1217
Flags: W
LayerCount: 2
Fore
SplineSet
110 -181 m 0,0,1
 110 -138 110 -138 124.5 -102 c 128,-1,2
 139 -66 139 -66 162 -36.5 c 128,-1,3
 185 -7 185 -7 213.5 15 c 128,-1,4
 242 37 242 37 269 52 c 1,5,6
 241 68 241 68 224 88.5 c 128,-1,7
 207 109 207 109 197 131.5 c 128,-1,8
 187 154 187 154 184 177 c 128,-1,9
 181 200 181 200 181 223 c 0,10,11
 183 280 183 280 219 338.5 c 128,-1,12
 255 397 255 397 321 442 c 1,13,14
 230 490 230 490 177 572 c 128,-1,15
 124 654 124 654 124 762 c 0,16,17
 124 862 124 862 158.5 935 c 128,-1,18
 193 1008 193 1008 253.5 1056.5 c 128,-1,19
 314 1105 314 1105 396.5 1129.5 c 128,-1,20
 479 1154 479 1154 574 1156 c 0,21,22
 655 1158 655 1158 729 1140.5 c 128,-1,23
 803 1123 803 1123 863 1087 c 1,24,25
 881 1099 881 1099 904.5 1110 c 128,-1,26
 928 1121 928 1121 956 1129.5 c 128,-1,27
 984 1138 984 1138 1014.5 1143 c 128,-1,28
 1045 1148 1045 1148 1076 1148 c 2,29,-1
 1187 1148 l 1,30,-1
 1187 973 l 1,31,-1
 978 973 l 1,32,33
 1002 932 1002 932 1015.5 883 c 128,-1,34
 1029 834 1029 834 1029 775 c 0,35,36
 1029 680 1029 680 993.5 607 c 128,-1,37
 958 534 958 534 896.5 484.5 c 128,-1,38
 835 435 835 435 751 409.5 c 128,-1,39
 667 384 667 384 570 384 c 0,40,41
 502 384 502 384 446 397 c 1,42,43
 418 377 418 377 400 347 c 128,-1,44
 382 317 382 317 382 283 c 0,45,46
 382 251 382 251 389 229.5 c 128,-1,47
 396 208 396 208 411.5 195.5 c 128,-1,48
 427 183 427 183 451.5 178 c 128,-1,49
 476 173 476 173 512 173 c 2,50,-1
 719 173 l 2,51,52
 849 173 849 173 931 145.5 c 128,-1,53
 1013 118 1013 118 1059 73 c 128,-1,54
 1105 28 1105 28 1122 -29 c 128,-1,55
 1139 -86 1139 -86 1139 -145 c 0,56,57
 1139 -231 1139 -231 1095 -300 c 128,-1,58
 1051 -369 1051 -369 975.5 -417.5 c 128,-1,59
 900 -466 900 -466 799.5 -491.5 c 128,-1,60
 699 -517 699 -517 585 -517 c 0,61,62
 476 -517 476 -517 388.5 -496.5 c 128,-1,63
 301 -476 301 -476 239 -434.5 c 128,-1,64
 177 -393 177 -393 143.5 -330 c 128,-1,65
 110 -267 110 -267 110 -181 c 0,0,1
575 531 m 0,66,67
 630 531 630 531 673.5 542.5 c 128,-1,68
 717 554 717 554 747.5 581 c 128,-1,69
 778 608 778 608 794 653.5 c 128,-1,70
 810 699 810 699 810 767 c 0,71,72
 810 885 810 885 755 946 c 128,-1,73
 700 1007 700 1007 585 1007 c 0,74,75
 537 1007 537 1007 493 997 c 128,-1,76
 449 987 449 987 416 961 c 128,-1,77
 383 935 383 935 363 889.5 c 128,-1,78
 343 844 343 844 343 772 c 0,79,80
 343 724 343 724 356 680.5 c 128,-1,81
 369 637 369 637 397 603.5 c 128,-1,82
 425 570 425 570 469 550.5 c 128,-1,83
 513 531 513 531 575 531 c 0,66,67
324 -155 m 0,84,85
 324 -207 324 -207 338.5 -246.5 c 128,-1,86
 353 -286 353 -286 385.5 -312.5 c 128,-1,87
 418 -339 418 -339 469 -352.5 c 128,-1,88
 520 -366 520 -366 593 -366 c 0,89,90
 660 -366 660 -366 720.5 -355 c 128,-1,91
 781 -344 781 -344 827.5 -322.5 c 128,-1,92
 874 -301 874 -301 901.5 -268.5 c 128,-1,93
 929 -236 929 -236 929 -193 c 0,94,95
 929 -147 929 -147 917.5 -111 c 128,-1,96
 906 -75 906 -75 874.5 -50.5 c 128,-1,97
 843 -26 843 -26 788 -13 c 128,-1,98
 733 0 733 0 647 0 c 2,99,-1
 545 0 l 2,100,101
 500 0 500 0 464 1 c 128,-1,102
 428 2 428 2 397 7 c 1,103,104
 383 -5 383 -5 370 -20 c 128,-1,105
 357 -35 357 -35 346.5 -54.5 c 128,-1,106
 336 -74 336 -74 330 -98.5 c 128,-1,107
 324 -123 324 -123 324 -155 c 0,84,85
EndSplineSet
EndChar

StartChar: h
Encoding: 104 104 71
Width: 1289
Flags: W
LayerCount: 2
Fore
SplineSet
176 1664 m 1,0,-1
 396 1664 l 1,1,-1
 396 1189 l 1,2,-1
 386 1027 l 1,3,4
 419 1051 419 1051 463 1073.5 c 128,-1,5
 507 1096 507 1096 557 1114 c 128,-1,6
 607 1132 607 1132 661 1143.5 c 128,-1,7
 715 1155 715 1155 768 1157 c 0,8,9
 861 1159 861 1159 927.5 1134 c 128,-1,10
 994 1109 994 1109 1036.5 1053 c 128,-1,11
 1079 997 1079 997 1099 908.5 c 128,-1,12
 1119 820 1119 820 1119 695 c 2,13,-1
 1119 0 l 1,14,-1
 899 0 l 1,15,-1
 899 711 l 2,16,17
 899 781 899 781 889 831.5 c 128,-1,18
 879 882 879 882 853.5 914.5 c 128,-1,19
 828 947 828 947 785 961.5 c 128,-1,20
 742 976 742 976 677 973 c 0,21,22
 649 972 649 972 614.5 965 c 128,-1,23
 580 958 580 958 543 945 c 128,-1,24
 506 932 506 932 468 913 c 128,-1,25
 430 894 430 894 396 869 c 1,26,-1
 396 0 l 1,27,-1
 176 0 l 1,28,-1
 176 1664 l 1,0,-1
EndSplineSet
EndChar

StartChar: dotlessi
Encoding: 305 305 73
Width: 606
Flags: W
LayerCount: 2
Fore
SplineSet
193 1138 m 1,0,-1
 413 1138 l 1,1,-1
 413 0 l 1,2,-1
 193 0 l 1,3,-1
 193 1138 l 1,0,-1
EndSplineSet
EndChar

StartChar: dotaccent
Encoding: 729 729 74
Width: 403
Flags: W
LayerCount: 2
Fore
SplineSet
191 1347 m 0,0,1
 163 1347 163 1347 137.5 1356.5 c 128,-1,2
 112 1366 112 1366 92.5 1383.5 c 128,-1,3
 73 1401 73 1401 61.5 1426 c 128,-1,4
 50 1451 50 1451 50 1482 c 0,5,6
 50 1515 50 1515 64 1543.5 c 128,-1,7
 78 1572 78 1572 101 1593 c 128,-1,8
 124 1614 124 1614 153 1626 c 128,-1,9
 182 1638 182 1638 212 1638 c 0,10,11
 248 1638 248 1638 274.5 1627.5 c 128,-1,12
 301 1617 301 1617 318.5 1598.5 c 128,-1,13
 336 1580 336 1580 344.5 1555.5 c 128,-1,14
 353 1531 353 1531 353 1503 c 0,15,16
 353 1468 353 1468 339.5 1439.5 c 128,-1,17
 326 1411 326 1411 303.5 1390.5 c 128,-1,18
 281 1370 281 1370 251.5 1358.5 c 128,-1,19
 222 1347 222 1347 191 1347 c 0,0,1
EndSplineSet
EndChar

StartChar: dotlessj
Encoding: 567 567 76
Width: 574
Flags: W
LayerCount: 2
Fore
SplineSet
193 1138 m 1,0,-1
 413 1138 l 1,1,-1
 413 37 l 2,2,3
 413 -110 413 -110 390 -213.5 c 128,-1,4
 367 -317 367 -317 322 -382.5 c 128,-1,5
 277 -448 277 -448 211 -477.5 c 128,-1,6
 145 -507 145 -507 60 -507 c 0,7,8
 48 -507 48 -507 27 -506 c 128,-1,9
 6 -505 6 -505 -15.5 -503.5 c 128,-1,10
 -37 -502 -37 -502 -55 -499.5 c 128,-1,11
 -73 -497 -73 -497 -79 -494 c 1,12,-1
 -79 -331 l 1,13,14
 -71 -335 -71 -335 -56.5 -339 c 128,-1,15
 -42 -343 -42 -343 -25.5 -346 c 128,-1,16
 -9 -349 -9 -349 8 -351 c 128,-1,17
 25 -353 25 -353 38 -353 c 0,18,19
 83 -353 83 -353 113 -333.5 c 128,-1,20
 143 -314 143 -314 160.5 -275.5 c 128,-1,21
 178 -237 178 -237 185.5 -180 c 128,-1,22
 193 -123 193 -123 193 -48 c 2,23,-1
 193 1138 l 1,0,-1
EndSplineSet
EndChar

StartChar: k
Encoding: 107 107 77
Width: 1163
Flags: W
LayerCount: 2
Fore
SplineSet
168 1661 m 1,0,-1
 388 1661 l 1,1,-1
 388 751 l 1,2,-1
 384 639 l 1,3,-1
 839 1140 l 1,4,-1
 1098 1140 l 1,5,-1
 668 691 l 1,6,-1
 1151 0 l 1,7,-1
 901 0 l 1,8,-1
 524 541 l 1,9,-1
 383 394 l 1,10,-1
 388 223 l 1,11,-1
 388 0 l 1,12,-1
 168 0 l 1,13,-1
 168 1661 l 1,0,-1
EndSplineSet
EndChar

StartChar: l
Encoding: 108 108 78
Width: 613
Flags: W
LayerCount: 2
Fore
SplineSet
197 1664 m 1,0,-1
 417 1664 l 1,1,-1
 417 0 l 1,2,-1
 197 0 l 1,3,-1
 197 1664 l 1,0,-1
EndSplineSet
EndChar

StartChar: m
Encoding: 109 109 79
Width: 1972
Flags: W
LayerCount: 2
Fore
SplineSet
176 1138 m 1,0,-1
 372 1138 l 1,1,-1
 373 1018 l 1,2,3
 405 1040 405 1040 449 1063.5 c 128,-1,4
 493 1087 493 1087 545 1107.5 c 128,-1,5
 597 1128 597 1128 653 1141.5 c 128,-1,6
 709 1155 709 1155 765 1157 c 0,7,8
 877 1159 877 1159 947.5 1126.5 c 128,-1,9
 1018 1094 1018 1094 1056 1014 c 1,10,11
 1089 1039 1089 1039 1135 1064.5 c 128,-1,12
 1181 1090 1181 1090 1234 1110 c 128,-1,13
 1287 1130 1287 1130 1344.5 1143 c 128,-1,14
 1402 1156 1402 1156 1459 1157 c 0,15,16
 1550 1159 1550 1159 1615.5 1137 c 128,-1,17
 1681 1115 1681 1115 1722 1062.5 c 128,-1,18
 1763 1010 1763 1010 1782.5 924.5 c 128,-1,19
 1802 839 1802 839 1802 714 c 2,20,-1
 1802 0 l 1,21,-1
 1582 0 l 1,22,-1
 1582 711 l 2,23,24
 1582 781 1582 781 1574 831.5 c 128,-1,25
 1566 882 1566 882 1543.5 914.5 c 128,-1,26
 1521 947 1521 947 1480.5 961.5 c 128,-1,27
 1440 976 1440 976 1374 973 c 0,28,29
 1344 972 1344 972 1309 964.5 c 128,-1,30
 1274 957 1274 957 1237 944 c 128,-1,31
 1200 931 1200 931 1163.5 912.5 c 128,-1,32
 1127 894 1127 894 1095 871 c 1,33,34
 1104 802 1104 802 1104 714 c 2,35,-1
 1104 0 l 1,36,-1
 884 0 l 1,37,-1
 884 711 l 2,38,39
 884 781 884 781 876 831.5 c 128,-1,40
 868 882 868 882 845.5 914.5 c 128,-1,41
 823 947 823 947 782 961.5 c 128,-1,42
 741 976 741 976 676 973 c 0,43,44
 649 972 649 972 614.5 965 c 128,-1,45
 580 958 580 958 543 945 c 128,-1,46
 506 932 506 932 468 913 c 128,-1,47
 430 894 430 894 396 869 c 1,48,-1
 396 0 l 1,49,-1
 176 0 l 1,50,-1
 176 1138 l 1,0,-1
EndSplineSet
EndChar

StartChar: n
Encoding: 110 110 80
Width: 1279
Flags: W
LayerCount: 2
Fore
SplineSet
176 1138 m 1,0,-1
 372 1138 l 1,1,-1
 373 1018 l 1,2,3
 405 1040 405 1040 450 1063.5 c 128,-1,4
 495 1087 495 1087 547.5 1107.5 c 128,-1,5
 600 1128 600 1128 657 1141.5 c 128,-1,6
 714 1155 714 1155 770 1157 c 0,7,8
 862 1159 862 1159 926.5 1136.5 c 128,-1,9
 991 1114 991 1114 1031.5 1061 c 128,-1,10
 1072 1008 1072 1008 1090.5 921.5 c 128,-1,11
 1109 835 1109 835 1109 710 c 2,12,-1
 1109 0 l 1,13,-1
 889 0 l 1,14,-1
 889 711 l 2,15,16
 889 782 889 782 880.5 833.5 c 128,-1,17
 872 885 872 885 849 918 c 128,-1,18
 826 951 826 951 784.5 965 c 128,-1,19
 743 979 743 979 676 975 c 0,20,21
 648 974 648 974 613.5 966.5 c 128,-1,22
 579 959 579 959 542 945.5 c 128,-1,23
 505 932 505 932 467.5 913 c 128,-1,24
 430 894 430 894 396 869 c 1,25,-1
 396 0 l 1,26,-1
 176 0 l 1,27,-1
 176 1138 l 1,0,-1
EndSplineSet
EndChar

StartChar: o
Encoding: 111 111 81
Width: 1213
Flags: W
LayerCount: 2
Fore
SplineSet
596 -16 m 0,0,1
 459 -16 459 -16 363.5 33.5 c 128,-1,2
 268 83 268 83 208 167 c 128,-1,3
 148 251 148 251 121 361.5 c 128,-1,4
 94 472 94 472 96 594 c 0,5,6
 98 731 98 731 138 836 c 128,-1,7
 178 941 178 941 248 1012 c 128,-1,8
 318 1083 318 1083 412 1119.5 c 128,-1,9
 506 1156 506 1156 616 1156 c 0,10,11
 753 1156 753 1156 849 1106.5 c 128,-1,12
 945 1057 945 1057 1005 973 c 128,-1,13
 1065 889 1065 889 1091.5 778.5 c 128,-1,14
 1118 668 1118 668 1117 546 c 0,15,16
 1115 409 1115 409 1074.5 304 c 128,-1,17
 1034 199 1034 199 964.5 128 c 128,-1,18
 895 57 895 57 800.5 20.5 c 128,-1,19
 706 -16 706 -16 596 -16 c 0,0,1
602 140 m 1,20,21
 674 138 674 138 729 166 c 128,-1,22
 784 194 784 194 820.5 247.5 c 128,-1,23
 857 301 857 301 875.5 379 c 128,-1,24
 894 457 894 457 894 556 c 0,25,26
 894 647 894 647 877.5 727.5 c 128,-1,27
 861 808 861 808 826 867.5 c 128,-1,28
 791 927 791 927 737.5 962 c 128,-1,29
 684 997 684 997 611 998 c 0,30,31
 467 1001 467 1001 393 894.5 c 128,-1,32
 319 788 319 788 319 591 c 0,33,34
 319 499 319 499 336 418 c 128,-1,35
 353 337 353 337 388 275.5 c 128,-1,36
 423 214 423 214 476 177.5 c 128,-1,37
 529 141 529 141 602 140 c 1,20,21
EndSplineSet
Substitution2: "Single Substitution lookup 16 subtable" ordmasculine
Substitution2: "'aalt' Access All Alternates in Latin lookup 0 subtable" ordmasculine
EndChar

StartChar: p
Encoding: 112 112 82
Width: 1238
Flags: W
LayerCount: 2
Fore
SplineSet
386 -139 m 1,0,-1
 386 -506 l 1,1,-1
 166 -506 l 1,2,-1
 166 1140 l 1,3,-1
 365 1140 l 1,4,-1
 365 1017 l 1,5,6
 384 1037 384 1037 411.5 1061.5 c 128,-1,7
 439 1086 439 1086 478 1107 c 128,-1,8
 517 1128 517 1128 569.5 1142 c 128,-1,9
 622 1156 622 1156 691 1156 c 0,10,11
 781 1156 781 1156 862.5 1123 c 128,-1,12
 944 1090 944 1090 1006 1022.5 c 128,-1,13
 1068 955 1068 955 1104.5 853 c 128,-1,14
 1141 751 1141 751 1141 612 c 0,15,16
 1141 474 1141 474 1100.5 358.5 c 128,-1,17
 1060 243 1060 243 985 159.5 c 128,-1,18
 910 76 910 76 804.5 30 c 128,-1,19
 699 -16 699 -16 570 -16 c 0,20,21
 513 -16 513 -16 465.5 -7.5 c 128,-1,22
 418 1 418 1 383 13 c 1,23,-1
 386 -139 l 1,0,-1
386 195 m 1,24,25
 418 167 418 167 468 155.5 c 128,-1,26
 518 144 518 144 591 144 c 0,27,28
 660 144 660 144 719 172 c 128,-1,29
 778 200 778 200 821.5 255.5 c 128,-1,30
 865 311 865 311 890 393 c 128,-1,31
 915 475 915 475 917 582 c 0,32,33
 918 685 918 685 899.5 760.5 c 128,-1,34
 881 836 881 836 844.5 885.5 c 128,-1,35
 808 935 808 935 754 959 c 128,-1,36
 700 983 700 983 630 983 c 0,37,38
 589 983 589 983 552.5 974 c 128,-1,39
 516 965 516 965 485 951 c 128,-1,40
 454 937 454 937 429 920.5 c 128,-1,41
 404 904 404 904 386 890 c 1,42,-1
 386 195 l 1,24,25
EndSplineSet
EndChar

StartChar: q
Encoding: 113 113 83
Width: 1237
Flags: W
LayerCount: 2
Fore
SplineSet
97 528 m 0,0,1
 97 666 97 666 137.5 781.5 c 128,-1,2
 178 897 178 897 253 980.5 c 128,-1,3
 328 1064 328 1064 433.5 1110 c 128,-1,4
 539 1156 539 1156 668 1156 c 0,5,6
 746 1156 746 1156 811 1141 c 128,-1,7
 876 1126 876 1126 915 1109 c 1,8,-1
 1073 1140 l 1,9,-1
 1073 -506 l 1,10,-1
 853 -506 l 1,11,-1
 853 -139 l 1,12,-1
 859 107 l 1,13,14
 839 87 839 87 811 65.5 c 128,-1,15
 783 44 783 44 745 26 c 128,-1,16
 707 8 707 8 658 -4 c 128,-1,17
 609 -16 609 -16 546 -16 c 0,18,19
 456 -16 456 -16 375 17 c 128,-1,20
 294 50 294 50 232 117.5 c 128,-1,21
 170 185 170 185 133.5 287 c 128,-1,22
 97 389 97 389 97 528 c 0,0,1
607 157 m 0,23,24
 648 157 648 157 685 166 c 128,-1,25
 722 175 722 175 753.5 189 c 128,-1,26
 785 203 785 203 810 219.5 c 128,-1,27
 835 236 835 236 853 250 c 1,28,-1
 853 945 l 1,29,30
 822 973 822 973 771 984.5 c 128,-1,31
 720 996 720 996 646 996 c 0,32,33
 578 996 578 996 519 968 c 128,-1,34
 460 940 460 940 416.5 884.5 c 128,-1,35
 373 829 373 829 347.5 747 c 128,-1,36
 322 665 322 665 321 558 c 0,37,38
 319 352 319 352 393.5 254.5 c 128,-1,39
 468 157 468 157 607 157 c 0,23,24
EndSplineSet
EndChar

StartChar: r
Encoding: 114 114 84
Width: 819
Flags: W
LayerCount: 2
Fore
SplineSet
168 1138 m 1,0,-1
 353 1138 l 1,1,-1
 367 1012 l 1,2,3
 383 1033 383 1033 415 1058.5 c 128,-1,4
 447 1084 447 1084 489 1106 c 128,-1,5
 531 1128 531 1128 579.5 1142.5 c 128,-1,6
 628 1157 628 1157 676 1157 c 0,7,8
 756 1157 756 1157 787 1143 c 1,9,-1
 787 937 l 1,10,11
 779 941 779 941 768 946 c 128,-1,12
 757 951 757 951 739.5 955 c 128,-1,13
 722 959 722 959 697 961.5 c 128,-1,14
 672 964 672 964 637 964 c 0,15,16
 595 964 595 964 558 955.5 c 128,-1,17
 521 947 521 947 489.5 933.5 c 128,-1,18
 458 920 458 920 432.5 903 c 128,-1,19
 407 886 407 886 388 869 c 1,20,-1
 388 0 l 1,21,-1
 168 0 l 1,22,-1
 168 1138 l 1,0,-1
EndSplineSet
EndChar

StartChar: s
Encoding: 115 115 85
Width: 977
Flags: W
LayerCount: 2
Fore
SplineSet
145 229 m 1,0,1
 157 221 157 221 188 207.5 c 128,-1,2
 219 194 219 194 262.5 180.5 c 128,-1,3
 306 167 306 167 358.5 157.5 c 128,-1,4
 411 148 411 148 465 147 c 0,5,6
 566 146 566 146 619 183 c 128,-1,7
 672 220 672 220 672 287 c 0,8,9
 672 322 672 322 653.5 350 c 128,-1,10
 635 378 635 378 603 402 c 128,-1,11
 571 426 571 426 528.5 447 c 128,-1,12
 486 468 486 468 437 489 c 0,13,14
 369 518 369 518 310.5 552.5 c 128,-1,15
 252 587 252 587 209 631.5 c 128,-1,16
 166 676 166 676 142 732 c 128,-1,17
 118 788 118 788 119 860 c 0,18,19
 120 934 120 934 153 989.5 c 128,-1,20
 186 1045 186 1045 241.5 1082 c 128,-1,21
 297 1119 297 1119 371.5 1137.5 c 128,-1,22
 446 1156 446 1156 531 1156 c 0,23,24
 583 1156 583 1156 629.5 1149.5 c 128,-1,25
 676 1143 676 1143 714.5 1133.5 c 128,-1,26
 753 1124 753 1124 780 1114 c 128,-1,27
 807 1104 807 1104 820 1097 c 1,28,-1
 784 931 l 1,29,30
 771 942 771 942 746 953.5 c 128,-1,31
 721 965 721 965 688 974 c 128,-1,32
 655 983 655 983 616.5 988.5 c 128,-1,33
 578 994 578 994 538 994 c 0,34,35
 432 994 432 994 378 961 c 128,-1,36
 324 928 324 928 322 872 c 0,37,38
 321 832 321 832 336 802 c 128,-1,39
 351 772 351 772 379.5 747.5 c 128,-1,40
 408 723 408 723 449.5 702 c 128,-1,41
 491 681 491 681 543 660 c 0,42,43
 600 637 600 637 659.5 605.5 c 128,-1,44
 719 574 719 574 767.5 531.5 c 128,-1,45
 816 489 816 489 846.5 432.5 c 128,-1,46
 877 376 877 376 877 303 c 0,47,48
 877 225 877 225 849 165.5 c 128,-1,49
 821 106 821 106 768.5 65.5 c 128,-1,50
 716 25 716 25 642 4.5 c 128,-1,51
 568 -16 568 -16 475 -16 c 0,52,53
 416 -16 416 -16 360 -9 c 128,-1,54
 304 -2 304 -2 255.5 9.5 c 128,-1,55
 207 21 207 21 169.5 35.5 c 128,-1,56
 132 50 132 50 112 65 c 1,57,-1
 145 229 l 1,0,1
EndSplineSet
EndChar

StartChar: t
Encoding: 116 116 86
Width: 850
Flags: W
LayerCount: 2
Fore
SplineSet
228 974 m 1,0,-1
 80 974 l 1,1,-1
 80 1093 l 1,2,3
 117 1104 117 1104 145 1111.5 c 128,-1,4
 173 1119 173 1119 193 1128.5 c 128,-1,5
 213 1138 213 1138 226.5 1152.5 c 128,-1,6
 240 1167 240 1167 249 1191 c 0,7,8
 263 1226 263 1226 278.5 1278.5 c 128,-1,9
 294 1331 294 1331 315 1400 c 1,10,-1
 447 1400 l 1,11,-1
 447 1140 l 1,12,-1
 769 1140 l 1,13,-1
 769 974 l 1,14,-1
 447 974 l 1,15,-1
 447 397 l 2,16,17
 447 315 447 315 451.5 267.5 c 128,-1,18
 456 220 456 220 469.5 196 c 128,-1,19
 483 172 483 172 507.5 166 c 128,-1,20
 532 160 532 160 573 160 c 0,21,22
 595 160 595 160 623 164 c 128,-1,23
 651 168 651 168 678.5 174 c 128,-1,24
 706 180 706 180 730 187.5 c 128,-1,25
 754 195 754 195 768 203 c 1,26,-1
 806 77 l 1,27,28
 783 60 783 60 747 43 c 128,-1,29
 711 26 711 26 668.5 13 c 128,-1,30
 626 0 626 0 580 -8 c 128,-1,31
 534 -16 534 -16 491 -16 c 0,32,33
 436 -16 436 -16 388 -4 c 128,-1,34
 340 8 340 8 304.5 40 c 128,-1,35
 269 72 269 72 248.5 128 c 128,-1,36
 228 184 228 184 228 273 c 2,37,-1
 228 974 l 1,0,-1
EndSplineSet
EndChar

StartChar: u
Encoding: 117 117 87
Width: 1249
Flags: W
LayerCount: 2
Fore
SplineSet
170 1140 m 1,0,-1
 390 1140 l 1,1,-1
 390 475 l 2,2,3
 390 369 390 369 401.5 307.5 c 128,-1,4
 413 246 413 246 438 214.5 c 128,-1,5
 463 183 463 183 503 174 c 128,-1,6
 543 165 543 165 599 165 c 0,7,8
 631 165 631 165 668 173 c 128,-1,9
 705 181 705 181 739.5 193 c 128,-1,10
 774 205 774 205 804 219 c 128,-1,11
 834 233 834 233 853 245 c 1,12,-1
 853 1140 l 1,13,-1
 1073 1140 l 1,14,-1
 1073 -16 l 1,15,-1
 988 -16 l 2,16,17
 962 -16 962 -16 941.5 -13.5 c 128,-1,18
 921 -11 921 -11 907 -2 c 128,-1,19
 893 7 893 7 885.5 24.5 c 128,-1,20
 878 42 878 42 878 72 c 2,21,-1
 878 100 l 1,22,23
 843 78 843 78 798 57.5 c 128,-1,24
 753 37 753 37 704.5 20.5 c 128,-1,25
 656 4 656 4 605.5 -6 c 128,-1,26
 555 -16 555 -16 509 -16 c 0,27,28
 400 -16 400 -16 333.5 19.5 c 128,-1,29
 267 55 267 55 230.5 119.5 c 128,-1,30
 194 184 194 184 182 274 c 128,-1,31
 170 364 170 364 170 474 c 2,32,-1
 170 1140 l 1,0,-1
EndSplineSet
EndChar

StartChar: v
Encoding: 118 118 88
Width: 1113
Flags: W
LayerCount: 2
Fore
SplineSet
19 1140 m 1,0,-1
 256 1140 l 1,1,-1
 482 491 l 1,2,-1
 566 219 l 1,3,-1
 643 491 l 1,4,-1
 860 1140 l 1,5,-1
 1094 1140 l 1,6,-1
 656 -16 l 1,7,-1
 471 -16 l 1,8,-1
 19 1140 l 1,0,-1
EndSplineSet
EndChar

StartChar: w
Encoding: 119 119 89
Width: 1632
Flags: W
LayerCount: 2
Fore
SplineSet
21 1140 m 1,0,-1
 241 1140 l 1,1,-1
 425 456 l 1,2,-1
 475 242 l 1,3,-1
 521 455 l 1,4,-1
 711 1140 l 1,5,-1
 930 1140 l 1,6,-1
 1119 456 l 1,7,-1
 1168 238 l 1,8,-1
 1218 449 l 1,9,-1
 1396 1140 l 1,10,-1
 1611 1140 l 1,11,-1
 1263 -16 l 1,12,-1
 1060 -16 l 1,13,-1
 856 729 l 1,14,-1
 819 911 l 1,15,-1
 779 729 l 1,16,-1
 578 -16 l 1,17,-1
 369 -16 l 1,18,-1
 21 1140 l 1,0,-1
EndSplineSet
EndChar

StartChar: x
Encoding: 120 120 90
Width: 1134
Flags: W
LayerCount: 2
Fore
SplineSet
451 578 m 1,0,-1
 47 1140 l 1,1,-1
 297 1140 l 1,2,-1
 547 762 l 1,3,-1
 572 720 l 1,4,-1
 593 764 l 1,5,-1
 844 1140 l 1,6,-1
 1091 1140 l 1,7,-1
 686 582 l 1,8,-1
 1100 0 l 1,9,-1
 845 0 l 1,10,-1
 595 379 l 1,11,-1
 561 434 l 1,12,-1
 533 376 l 1,13,-1
 301 0 l 1,14,-1
 50 0 l 1,15,-1
 451 578 l 1,0,-1
EndSplineSet
EndChar

StartChar: y
Encoding: 121 121 91
Width: 1116
Flags: W
LayerCount: 2
Fore
SplineSet
131 -314 m 1,0,1
 139 -317 139 -317 152 -319 c 128,-1,2
 165 -321 165 -321 178.5 -322.5 c 128,-1,3
 192 -324 192 -324 205 -324.5 c 128,-1,4
 218 -325 218 -325 227 -325 c 0,5,6
 258 -325 258 -325 299 -312.5 c 128,-1,7
 340 -300 340 -300 381.5 -264.5 c 128,-1,8
 423 -229 423 -229 460.5 -165.5 c 128,-1,9
 498 -102 498 -102 522 0 c 1,10,-1
 457 0 l 1,11,-1
 44 1140 l 1,12,-1
 279 1140 l 1,13,-1
 531 372 l 1,14,-1
 589 186 l 1,15,-1
 640 372 l 1,16,-1
 856 1140 l 1,17,-1
 1093 1140 l 1,18,19
 1056 1031 1056 1031 1015.5 907 c 128,-1,20
 975 783 975 783 934.5 659.5 c 128,-1,21
 894 536 894 536 856.5 419.5 c 128,-1,22
 819 303 819 303 788.5 208.5 c 128,-1,23
 758 114 758 114 737 49 c 128,-1,24
 716 -16 716 -16 709 -36 c 0,25,26
 640 -242 640 -242 550 -351.5 c 128,-1,27
 460 -461 460 -461 351 -492 c 0,28,29
 328 -498 328 -498 297 -502.5 c 128,-1,30
 266 -507 266 -507 243 -507 c 0,31,32
 232 -507 232 -507 214.5 -506 c 128,-1,33
 197 -505 197 -505 180 -503 c 128,-1,34
 163 -501 163 -501 149 -498.5 c 128,-1,35
 135 -496 135 -496 131 -493 c 1,36,-1
 131 -314 l 1,37,-1
 131 -314 l 1,0,1
EndSplineSet
EndChar

StartChar: z
Encoding: 122 122 92
Width: 1061
Flags: W
LayerCount: 2
Fore
SplineSet
635 889 m 1,0,-1
 692 972 l 1,1,-1
 142 972 l 1,2,-1
 142 1140 l 1,3,-1
 954 1140 l 1,4,-1
 989 1045 l 1,5,-1
 439 244 l 1,6,-1
 380 160 l 1,7,-1
 969 160 l 1,8,-1
 969 0 l 1,9,-1
 124 0 l 1,10,-1
 82 82 l 1,11,-1
 635 889 l 1,0,-1
EndSplineSet
EndChar

StartChar: braceleft
Encoding: 123 123 93
Width: 972
Flags: W
LayerCount: 2
Fore
SplineSet
327 571 m 2,0,1
 327 593 327 593 302 615.5 c 128,-1,2
 277 638 277 638 239 656.5 c 128,-1,3
 201 675 201 675 157 688.5 c 128,-1,4
 113 702 113 702 75 706 c 1,5,-1
 75 848 l 1,6,7
 113 852 113 852 157 863.5 c 128,-1,8
 201 875 201 875 239 892.5 c 128,-1,9
 277 910 277 910 302 931 c 128,-1,10
 327 952 327 952 327 975 c 2,11,-1
 327 1486 l 2,12,13
 327 1560 327 1560 336.5 1609 c 128,-1,14
 346 1658 346 1658 368.5 1687.5 c 128,-1,15
 391 1717 391 1717 429 1729.5 c 128,-1,16
 467 1742 467 1742 525 1742 c 0,17,18
 566 1742 566 1742 602 1740 c 128,-1,19
 638 1738 638 1738 672 1734.5 c 128,-1,20
 706 1731 706 1731 738 1726.5 c 128,-1,21
 770 1722 770 1722 802 1718 c 1,22,-1
 802 1596 l 1,23,-1
 536 1596 l 1,24,-1
 536 976 l 2,25,26
 536 947 536 947 524.5 924.5 c 128,-1,27
 513 902 513 902 492 882 c 0,28,29
 459 850 459 850 405.5 824.5 c 128,-1,30
 352 799 352 799 295 776 c 1,31,32
 353 753 353 753 407.5 724 c 128,-1,33
 462 695 462 695 496 660 c 0,34,35
 515 640 515 640 525.5 618 c 128,-1,36
 536 596 536 596 536 572 c 2,37,-1
 536 -49 l 1,38,-1
 802 -49 l 1,39,-1
 802 -161 l 1,40,41
 737 -179 737 -179 672 -187.5 c 128,-1,42
 607 -196 607 -196 525 -196 c 0,43,44
 467 -196 467 -196 429 -183.5 c 128,-1,45
 391 -171 391 -171 368.5 -141.5 c 128,-1,46
 346 -112 346 -112 336.5 -63 c 128,-1,47
 327 -14 327 -14 327 60 c 2,48,-1
 327 571 l 2,0,1
EndSplineSet
EndChar

StartChar: bar
Encoding: 124 124 94
Width: 855
Flags: W
LayerCount: 2
Fore
SplineSet
326 1780 m 1,0,-1
 529 1780 l 1,1,-1
 529 -188 l 1,2,-1
 326 -188 l 1,3,-1
 326 1780 l 1,0,-1
EndSplineSet
EndChar

StartChar: asciitilde
Encoding: 126 126 96
Width: 1438
Flags: W
LayerCount: 2
Fore
SplineSet
216 758 m 1,0,1
 228 789 228 789 255.5 826.5 c 128,-1,2
 283 864 283 864 324 895.5 c 128,-1,3
 365 927 365 927 417.5 948.5 c 128,-1,4
 470 970 470 970 532 970 c 0,5,6
 580 970 580 970 617.5 957.5 c 128,-1,7
 655 945 655 945 686.5 926.5 c 128,-1,8
 718 908 718 908 744.5 886 c 128,-1,9
 771 864 771 864 797.5 845.5 c 128,-1,10
 824 827 824 827 852.5 814.5 c 128,-1,11
 881 802 881 802 916 802 c 0,12,13
 986 802 986 802 1034 834.5 c 128,-1,14
 1082 867 1082 867 1118 916 c 1,15,-1
 1221 817 l 1,16,17
 1206 778 1206 778 1178.5 741.5 c 128,-1,18
 1151 705 1151 705 1111.5 676.5 c 128,-1,19
 1072 648 1072 648 1020 631 c 128,-1,20
 968 614 968 614 904 614 c 0,21,22
 856 614 856 614 819 626.5 c 128,-1,23
 782 639 782 639 751.5 658 c 128,-1,24
 721 677 721 677 695 698.5 c 128,-1,25
 669 720 669 720 643 739 c 128,-1,26
 617 758 617 758 588.5 770.5 c 128,-1,27
 560 783 560 783 524 783 c 0,28,29
 489 783 489 783 461 774 c 128,-1,30
 433 765 433 765 410 750 c 128,-1,31
 387 735 387 735 368 714 c 128,-1,32
 349 693 349 693 331 669 c 1,33,-1
 216 758 l 1,0,1
EndSplineSet
EndChar

StartChar: exclam
Encoding: 33 33 98
Width: 602
Flags: W
LayerCount: 2
Fore
SplineSet
182 1780 m 1,0,-1
 430 1780 l 1,1,-1
 406 506 l 1,2,-1
 210 506 l 1,3,-1
 182 1780 l 1,0,-1
147 130 m 0,4,5
 146 166 146 166 159.5 197.5 c 128,-1,6
 173 229 173 229 195.5 252.5 c 128,-1,7
 218 276 218 276 247 290 c 128,-1,8
 276 304 276 304 307 304 c 0,9,10
 343 304 343 304 370 292 c 128,-1,11
 397 280 397 280 415.5 259 c 128,-1,12
 434 238 434 238 444 210.5 c 128,-1,13
 454 183 454 183 455 153 c 0,14,15
 456 116 456 116 442.5 84 c 128,-1,16
 429 52 429 52 406.5 28.5 c 128,-1,17
 384 5 384 5 354.5 -8.5 c 128,-1,18
 325 -22 325 -22 293 -22 c 0,19,20
 264 -22 264 -22 238 -10.5 c 128,-1,21
 212 1 212 1 192 21 c 128,-1,22
 172 41 172 41 160 69 c 128,-1,23
 148 97 148 97 147 130 c 0,4,5
EndSplineSet
EndChar

StartChar: sterling
Encoding: 163 163 99
Width: 1532
Flags: W
LayerCount: 2
Fore
SplineSet
146 80 m 0,0,1
 146 115 146 115 162 146 c 128,-1,2
 178 177 178 177 210 200.5 c 128,-1,3
 242 224 242 224 291.5 239.5 c 128,-1,4
 341 255 341 255 408 258 c 1,5,6
 427 300 427 300 431.5 356 c 128,-1,7
 436 412 436 412 436 468 c 2,8,-1
 436 756 l 1,9,-1
 255 756 l 1,10,-1
 255 908 l 1,11,-1
 436 908 l 1,12,-1
 436 1045 l 2,13,14
 436 1156 436 1156 468 1247 c 128,-1,15
 500 1338 500 1338 560.5 1402.5 c 128,-1,16
 621 1467 621 1467 709 1502.5 c 128,-1,17
 797 1538 797 1538 909 1538 c 0,18,19
 971 1538 971 1538 1021.5 1529.5 c 128,-1,20
 1072 1521 1072 1521 1112.5 1507.5 c 128,-1,21
 1153 1494 1153 1494 1183.5 1476 c 128,-1,22
 1214 1458 1214 1458 1237 1439 c 1,23,-1
 1133 1281 l 1,24,25
 1112 1299 1112 1299 1088 1315.5 c 128,-1,26
 1064 1332 1064 1332 1034.5 1344.5 c 128,-1,27
 1005 1357 1005 1357 968.5 1364.5 c 128,-1,28
 932 1372 932 1372 886 1372 c 0,29,30
 844 1372 844 1372 802.5 1358.5 c 128,-1,31
 761 1345 761 1345 728 1306.5 c 128,-1,32
 695 1268 695 1268 674.5 1198 c 128,-1,33
 654 1128 654 1128 655 1015 c 1,34,-1
 655 908 l 1,35,-1
 1008 908 l 1,36,-1
 1008 756 l 1,37,-1
 656 756 l 1,38,-1
 657 721 l 1,39,40
 658 620 658 620 656.5 539.5 c 128,-1,41
 655 459 655 459 647 396.5 c 128,-1,42
 639 334 639 334 623.5 288.5 c 128,-1,43
 608 243 608 243 580 213 c 1,44,45
 627 205 627 205 663.5 192 c 128,-1,46
 700 179 700 179 739 167 c 128,-1,47
 778 155 778 155 824.5 146 c 128,-1,48
 871 137 871 137 937 137 c 0,49,50
 1010 137 1010 137 1058 153 c 128,-1,51
 1106 169 1106 169 1134.5 196 c 128,-1,52
 1163 223 1163 223 1174 258.5 c 128,-1,53
 1185 294 1185 294 1185 333 c 0,54,55
 1185 361 1185 361 1177.5 387 c 128,-1,56
 1170 413 1170 413 1159 433 c 128,-1,57
 1148 453 1148 453 1134.5 466 c 128,-1,58
 1121 479 1121 479 1109 483 c 1,59,-1
 1265 563 l 1,60,61
 1283 553 1283 553 1305 530.5 c 128,-1,62
 1327 508 1327 508 1346.5 476 c 128,-1,63
 1366 444 1366 444 1379.5 403.5 c 128,-1,64
 1393 363 1393 363 1393 317 c 0,65,66
 1393 143 1393 143 1282.5 61.5 c 128,-1,67
 1172 -20 1172 -20 963 -20 c 0,68,69
 859 -20 859 -20 779.5 -1 c 128,-1,70
 700 18 700 18 639 40 c 128,-1,71
 578 62 578 62 533.5 79 c 128,-1,72
 489 96 489 96 454 92 c 1,73,74
 439 75 439 75 417 58.5 c 128,-1,75
 395 42 395 42 368.5 28.5 c 128,-1,76
 342 15 342 15 313 6.5 c 128,-1,77
 284 -2 284 -2 254 -2 c 0,78,79
 237 -2 237 -2 218 4 c 128,-1,80
 199 10 199 10 183 20.5 c 128,-1,81
 167 31 167 31 156.5 46 c 128,-1,82
 146 61 146 61 146 80 c 0,0,1
EndSplineSet
EndChar

StartChar: brokenbar
Encoding: 166 166 100
Width: 855
Flags: W
LayerCount: 2
Fore
SplineSet
326 1780 m 1,0,-1
 529 1780 l 1,1,-1
 529 950 l 1,2,-1
 326 950 l 1,3,-1
 326 1780 l 1,0,-1
326 641 m 1,4,-1
 529 641 l 1,5,-1
 529 -186 l 1,6,-1
 326 -186 l 1,7,-1
 326 641 l 1,4,-1
EndSplineSet
EndChar

StartChar: dieresis
Encoding: 168 168 101
Width: 863
Flags: W
LayerCount: 2
Fore
SplineSet
649 1363 m 0,0,1
 622 1363 622 1363 598 1372 c 128,-1,2
 574 1381 574 1381 556.5 1398 c 128,-1,3
 539 1415 539 1415 528.5 1439 c 128,-1,4
 518 1463 518 1463 518 1493 c 0,5,6
 518 1524 518 1524 531.5 1551 c 128,-1,7
 545 1578 545 1578 566.5 1598.5 c 128,-1,8
 588 1619 588 1619 616 1630.5 c 128,-1,9
 644 1642 644 1642 673 1642 c 0,10,11
 707 1642 707 1642 731.5 1632 c 128,-1,12
 756 1622 756 1622 772 1604 c 128,-1,13
 788 1586 788 1586 795.5 1562.5 c 128,-1,14
 803 1539 803 1539 803 1512 c 0,15,16
 803 1479 803 1479 790 1451.5 c 128,-1,17
 777 1424 777 1424 756 1404.5 c 128,-1,18
 735 1385 735 1385 707 1374 c 128,-1,19
 679 1363 679 1363 649 1363 c 0,0,1
191 1363 m 0,20,21
 164 1363 164 1363 140 1372 c 128,-1,22
 116 1381 116 1381 98.5 1398 c 128,-1,23
 81 1415 81 1415 70.5 1439 c 128,-1,24
 60 1463 60 1463 60 1493 c 0,25,26
 60 1524 60 1524 73.5 1551 c 128,-1,27
 87 1578 87 1578 109 1598.5 c 128,-1,28
 131 1619 131 1619 158.5 1630.5 c 128,-1,29
 186 1642 186 1642 215 1642 c 0,30,31
 249 1642 249 1642 273.5 1632 c 128,-1,32
 298 1622 298 1622 314 1604 c 128,-1,33
 330 1586 330 1586 337.5 1562.5 c 128,-1,34
 345 1539 345 1539 345 1512 c 0,35,36
 345 1479 345 1479 332 1451.5 c 128,-1,37
 319 1424 319 1424 298 1404.5 c 128,-1,38
 277 1385 277 1385 249 1374 c 128,-1,39
 221 1363 221 1363 191 1363 c 0,20,21
EndSplineSet
EndChar

StartChar: copyright
Encoding: 169 169 102
Width: 2129
Flags: W
LayerCount: 2
Fore
SplineSet
1064 242 m 256,0,1
 943 242 943 242 831 273.5 c 128,-1,2
 719 305 719 305 622.5 362 c 128,-1,3
 526 419 526 419 447 499.5 c 128,-1,4
 368 580 368 580 311.5 678 c 128,-1,5
 255 776 255 776 224.5 888.5 c 128,-1,6
 194 1001 194 1001 194 1123 c 0,7,8
 194 1244 194 1244 224.5 1356.5 c 128,-1,9
 255 1469 255 1469 311.5 1566.5 c 128,-1,10
 368 1664 368 1664 447 1744 c 128,-1,11
 526 1824 526 1824 622.5 1881 c 128,-1,12
 719 1938 719 1938 830.5 1969 c 128,-1,13
 942 2000 942 2000 1064 2000 c 256,14,15
 1186 2000 1186 2000 1297.5 1969 c 128,-1,16
 1409 1938 1409 1938 1506 1881 c 128,-1,17
 1603 1824 1603 1824 1682 1744 c 128,-1,18
 1761 1664 1761 1664 1817 1566.5 c 128,-1,19
 1873 1469 1873 1469 1904 1356.5 c 128,-1,20
 1935 1244 1935 1244 1935 1123 c 0,21,22
 1935 1001 1935 1001 1904 888.5 c 128,-1,23
 1873 776 1873 776 1817 678 c 128,-1,24
 1761 580 1761 580 1682 499.5 c 128,-1,25
 1603 419 1603 419 1506 362 c 128,-1,26
 1409 305 1409 305 1297 273.5 c 128,-1,27
 1185 242 1185 242 1064 242 c 256,0,1
1064 371 m 256,28,29
 1169 371 1169 371 1263.5 398 c 128,-1,30
 1358 425 1358 425 1439 474 c 128,-1,31
 1520 523 1520 523 1585 591.5 c 128,-1,32
 1650 660 1650 660 1696 744 c 128,-1,33
 1742 828 1742 828 1767 923.5 c 128,-1,34
 1792 1019 1792 1019 1792 1123 c 0,35,36
 1792 1226 1792 1226 1767 1322 c 128,-1,37
 1742 1418 1742 1418 1696 1501.5 c 128,-1,38
 1650 1585 1650 1585 1585 1653.5 c 128,-1,39
 1520 1722 1520 1722 1439 1771 c 128,-1,40
 1358 1820 1358 1820 1263.5 1847 c 128,-1,41
 1169 1874 1169 1874 1064 1874 c 256,42,43
 959 1874 959 1874 864.5 1847 c 128,-1,44
 770 1820 770 1820 689 1771 c 128,-1,45
 608 1722 608 1722 543 1653.5 c 128,-1,46
 478 1585 478 1585 432 1501.5 c 128,-1,47
 386 1418 386 1418 361 1322 c 128,-1,48
 336 1226 336 1226 336 1123 c 0,49,50
 336 1019 336 1019 361 923.5 c 128,-1,51
 386 828 386 828 432 744 c 128,-1,52
 478 660 478 660 543 591.5 c 128,-1,53
 608 523 608 523 689 474 c 128,-1,54
 770 425 770 425 864.5 398 c 128,-1,55
 959 371 959 371 1064 371 c 256,28,29
1061 639 m 0,56,57
 957 639 957 639 875.5 678.5 c 128,-1,58
 794 718 794 718 737.5 784.5 c 128,-1,59
 681 851 681 851 651 937 c 128,-1,60
 621 1023 621 1023 621 1116 c 0,61,62
 621 1221 621 1221 653 1311.5 c 128,-1,63
 685 1402 685 1402 748 1468 c 128,-1,64
 811 1534 811 1534 903.5 1572 c 128,-1,65
 996 1610 996 1610 1117 1610 c 0,66,67
 1165 1610 1165 1610 1203.5 1604 c 128,-1,68
 1242 1598 1242 1598 1271 1589.5 c 128,-1,69
 1300 1581 1300 1581 1321 1571 c 128,-1,70
 1342 1561 1342 1561 1355 1554 c 1,71,-1
 1323 1390 l 1,72,73
 1281 1417 1281 1417 1227 1435 c 128,-1,74
 1173 1453 1173 1453 1098 1453 c 0,75,76
 1029 1453 1029 1453 976 1428 c 128,-1,77
 923 1403 923 1403 887.5 1359.5 c 128,-1,78
 852 1316 852 1316 833.5 1257 c 128,-1,79
 815 1198 815 1198 815 1131 c 0,80,81
 815 1050 815 1050 835 987.5 c 128,-1,82
 855 925 855 925 891.5 882.5 c 128,-1,83
 928 840 928 840 978 818 c 128,-1,84
 1028 796 1028 796 1088 796 c 0,85,86
 1127 796 1127 796 1163.5 801.5 c 128,-1,87
 1200 807 1200 807 1232 816 c 128,-1,88
 1264 825 1264 825 1290 835.5 c 128,-1,89
 1316 846 1316 846 1335 857 c 1,90,-1
 1380 733 l 1,91,92
 1356 713 1356 713 1321.5 695.5 c 128,-1,93
 1287 678 1287 678 1246 665.5 c 128,-1,94
 1205 653 1205 653 1158 646 c 128,-1,95
 1111 639 1111 639 1061 639 c 0,56,57
EndSplineSet
EndChar

StartChar: guilsinglleft
Encoding: 8249 8249 104
Width: 1204
Flags: W
LayerCount: 2
Fore
SplineSet
245 703 m 1,0,-1
 888 1133 l 1,1,-1
 945 970 l 1,2,-1
 460 614 l 1,3,-1
 945 263 l 1,4,-1
 888 104 l 1,5,-1
 245 519 l 1,6,-1
 245 703 l 1,0,-1
EndSplineSet
EndChar

StartChar: registered
Encoding: 174 174 105
Width: 2129
Flags: W
LayerCount: 2
Fore
SplineSet
1064 242 m 256,0,1
 943 242 943 242 831 273.5 c 128,-1,2
 719 305 719 305 622.5 362 c 128,-1,3
 526 419 526 419 447 499.5 c 128,-1,4
 368 580 368 580 311.5 678 c 128,-1,5
 255 776 255 776 224.5 888.5 c 128,-1,6
 194 1001 194 1001 194 1123 c 0,7,8
 194 1244 194 1244 224.5 1356.5 c 128,-1,9
 255 1469 255 1469 311.5 1566.5 c 128,-1,10
 368 1664 368 1664 447 1744 c 128,-1,11
 526 1824 526 1824 622.5 1881 c 128,-1,12
 719 1938 719 1938 830.5 1969 c 128,-1,13
 942 2000 942 2000 1064 2000 c 256,14,15
 1186 2000 1186 2000 1297.5 1969 c 128,-1,16
 1409 1938 1409 1938 1506 1881 c 128,-1,17
 1603 1824 1603 1824 1682 1744 c 128,-1,18
 1761 1664 1761 1664 1817 1566.5 c 128,-1,19
 1873 1469 1873 1469 1904 1356.5 c 128,-1,20
 1935 1244 1935 1244 1935 1123 c 0,21,22
 1935 1001 1935 1001 1904 888.5 c 128,-1,23
 1873 776 1873 776 1817 678 c 128,-1,24
 1761 580 1761 580 1682 499.5 c 128,-1,25
 1603 419 1603 419 1506 362 c 128,-1,26
 1409 305 1409 305 1297 273.5 c 128,-1,27
 1185 242 1185 242 1064 242 c 256,0,1
1064 371 m 256,28,29
 1169 371 1169 371 1263.5 398 c 128,-1,30
 1358 425 1358 425 1439 474 c 128,-1,31
 1520 523 1520 523 1585 591.5 c 128,-1,32
 1650 660 1650 660 1696 744 c 128,-1,33
 1742 828 1742 828 1767 923.5 c 128,-1,34
 1792 1019 1792 1019 1792 1123 c 0,35,36
 1792 1226 1792 1226 1767 1322 c 128,-1,37
 1742 1418 1742 1418 1696 1501.5 c 128,-1,38
 1650 1585 1650 1585 1585 1653.5 c 128,-1,39
 1520 1722 1520 1722 1439 1771 c 128,-1,40
 1358 1820 1358 1820 1263.5 1847 c 128,-1,41
 1169 1874 1169 1874 1064 1874 c 256,42,43
 959 1874 959 1874 864.5 1847 c 128,-1,44
 770 1820 770 1820 689 1771 c 128,-1,45
 608 1722 608 1722 543 1653.5 c 128,-1,46
 478 1585 478 1585 432 1501.5 c 128,-1,47
 386 1418 386 1418 361 1322 c 128,-1,48
 336 1226 336 1226 336 1123 c 0,49,50
 336 1019 336 1019 361 923.5 c 128,-1,51
 386 828 386 828 432 744 c 128,-1,52
 478 660 478 660 543 591.5 c 128,-1,53
 608 523 608 523 689 474 c 128,-1,54
 770 425 770 425 864.5 398 c 128,-1,55
 959 371 959 371 1064 371 c 256,28,29
738 1601 m 1,56,-1
 815 1601 l 2,57,58
 869 1601 869 1601 936.5 1604.5 c 128,-1,59
 1004 1608 1004 1608 1073 1608 c 0,60,61
 1168 1608 1168 1608 1236 1586 c 128,-1,62
 1304 1564 1304 1564 1347.5 1526.5 c 128,-1,63
 1391 1489 1391 1489 1411.5 1439.5 c 128,-1,64
 1432 1390 1432 1390 1432 1334 c 0,65,66
 1432 1279 1432 1279 1422 1231.5 c 128,-1,67
 1412 1184 1412 1184 1389 1145.5 c 128,-1,68
 1366 1107 1366 1107 1329 1078.5 c 128,-1,69
 1292 1050 1292 1050 1239 1034 c 1,70,71
 1265 1014 1265 1014 1286 987 c 128,-1,72
 1307 960 1307 960 1325 928.5 c 128,-1,73
 1343 897 1343 897 1359 863.5 c 128,-1,74
 1375 830 1375 830 1392 799 c 0,75,76
 1400 784 1400 784 1409 770 c 128,-1,77
 1418 756 1418 756 1429.5 738 c 128,-1,78
 1441 720 1441 720 1456.5 696.5 c 128,-1,79
 1472 673 1472 673 1495 639 c 1,80,-1
 1291 640 l 1,81,82
 1266 672 1266 672 1248.5 705 c 128,-1,83
 1231 738 1231 738 1212 778 c 0,84,85
 1196 812 1196 812 1180 849.5 c 128,-1,86
 1164 887 1164 887 1143.5 919 c 128,-1,87
 1123 951 1123 951 1098 975.5 c 128,-1,88
 1073 1000 1073 1000 1039 1009 c 1,89,90
 1019 1008 1019 1008 985.5 1008 c 128,-1,91
 952 1008 952 1008 915 1008 c 1,92,-1
 915 639 l 1,93,-1
 738 639 l 1,94,-1
 738 1601 l 1,56,-1
915 1140 m 1,95,96
 926 1139 926 1139 943 1138 c 128,-1,97
 960 1137 960 1137 978.5 1136.5 c 128,-1,98
 997 1136 997 1136 1014.5 1136 c 128,-1,99
 1032 1136 1032 1136 1045 1136 c 0,100,101
 1146 1136 1146 1136 1197 1175 c 128,-1,102
 1248 1214 1248 1214 1248 1311 c 0,103,104
 1248 1349 1248 1349 1238.5 1380.5 c 128,-1,105
 1229 1412 1229 1412 1204 1433.5 c 128,-1,106
 1179 1455 1179 1455 1135.5 1466.5 c 128,-1,107
 1092 1478 1092 1478 1024 1476 c 0,108,109
 992 1475 992 1475 967.5 1473.5 c 128,-1,110
 943 1472 943 1472 915 1465 c 1,111,-1
 915 1140 l 1,95,96
EndSplineSet
EndChar

StartChar: macron
Encoding: 175 175 106
Width: 647
Flags: W
LayerCount: 2
Fore
SplineSet
50 1588 m 1,0,-1
 597 1588 l 1,1,-1
 597 1425 l 1,2,-1
 50 1425 l 1,3,-1
 50 1588 l 1,0,-1
EndSplineSet
EndChar

StartChar: degree
Encoding: 176 176 107
Width: 912
Flags: W
LayerCount: 2
Fore
SplineSet
456 939 m 256,0,1
 385 939 385 939 323.5 964.5 c 128,-1,2
 262 990 262 990 215.5 1035.5 c 128,-1,3
 169 1081 169 1081 142.5 1143 c 128,-1,4
 116 1205 116 1205 116 1278 c 0,5,6
 116 1352 116 1352 142.5 1414 c 128,-1,7
 169 1476 169 1476 215 1521 c 128,-1,8
 261 1566 261 1566 323 1591.5 c 128,-1,9
 385 1617 385 1617 456 1617 c 256,10,11
 527 1617 527 1617 589 1591.5 c 128,-1,12
 651 1566 651 1566 697 1520.5 c 128,-1,13
 743 1475 743 1475 769.5 1413 c 128,-1,14
 796 1351 796 1351 796 1278 c 0,15,16
 796 1204 796 1204 769.5 1142 c 128,-1,17
 743 1080 743 1080 697 1035 c 128,-1,18
 651 990 651 990 589 964.5 c 128,-1,19
 527 939 527 939 456 939 c 256,0,1
456 1083 m 256,20,21
 494 1083 494 1083 528 1097.5 c 128,-1,22
 562 1112 562 1112 587 1138 c 128,-1,23
 612 1164 612 1164 626.5 1200 c 128,-1,24
 641 1236 641 1236 641 1278 c 256,25,26
 641 1320 641 1320 626.5 1355.5 c 128,-1,27
 612 1391 612 1391 587 1417 c 128,-1,28
 562 1443 562 1443 528 1457.5 c 128,-1,29
 494 1472 494 1472 456 1472 c 256,30,31
 418 1472 418 1472 384.5 1457.5 c 128,-1,32
 351 1443 351 1443 326 1417.5 c 128,-1,33
 301 1392 301 1392 286.5 1356 c 128,-1,34
 272 1320 272 1320 272 1278 c 256,35,36
 272 1236 272 1236 286.5 1200.5 c 128,-1,37
 301 1165 301 1165 326 1138.5 c 128,-1,38
 351 1112 351 1112 384.5 1097.5 c 128,-1,39
 418 1083 418 1083 456 1083 c 256,20,21
EndSplineSet
EndChar

StartChar: plusminus
Encoding: 177 177 108
Width: 1393
Flags: W
LayerCount: 2
Fore
SplineSet
250 165 m 1,0,-1
 1142 165 l 1,1,-1
 1142 0 l 1,2,-1
 250 0 l 1,3,-1
 250 165 l 1,0,-1
607 521 m 1,4,-1
 614 692 l 1,5,-1
 449 685 l 1,6,-1
 229 685 l 1,7,-1
 229 862 l 1,8,-1
 449 862 l 1,9,-1
 614 851 l 1,10,-1
 607 1023 l 1,11,-1
 607 1251 l 1,12,-1
 785 1251 l 1,13,-1
 785 1023 l 1,14,-1
 777 851 l 1,15,-1
 918 862 l 1,16,-1
 1164 862 l 1,17,-1
 1164 685 l 1,18,-1
 918 685 l 1,19,-1
 777 692 l 1,20,-1
 785 521 l 1,21,-1
 785 285 l 1,22,-1
 607 285 l 1,23,-1
 607 521 l 1,4,-1
EndSplineSet
EndChar

StartChar: acute
Encoding: 180 180 109
Width: 594
Flags: W
LayerCount: 2
Fore
SplineSet
50 1384 m 1,0,1
 136 1478 136 1478 225 1578.5 c 128,-1,2
 314 1679 314 1679 388 1783 c 1,3,-1
 544 1648 l 1,4,5
 532 1627 532 1627 504 1595 c 128,-1,6
 476 1563 476 1563 439.5 1526 c 128,-1,7
 403 1489 403 1489 361.5 1450.5 c 128,-1,8
 320 1412 320 1412 281.5 1379.5 c 128,-1,9
 243 1347 243 1347 211 1324 c 128,-1,10
 179 1301 179 1301 161 1294 c 1,11,-1
 50 1384 l 1,0,1
EndSplineSet
EndChar

StartChar: paragraph
Encoding: 182 182 110
Width: 1320
Flags: W
LayerCount: 2
Fore
SplineSet
517 777 m 1,0,1
 412 777 412 777 331 804 c 128,-1,2
 250 831 250 831 195 888 c 128,-1,3
 140 945 140 945 111.5 1034 c 128,-1,4
 83 1123 83 1123 83 1248 c 0,5,6
 83 1353 83 1353 119.5 1438 c 128,-1,7
 156 1523 156 1523 228.5 1584 c 128,-1,8
 301 1645 301 1645 408.5 1678 c 128,-1,9
 516 1711 516 1711 657 1711 c 0,10,11
 693 1711 693 1711 754 1708.5 c 128,-1,12
 815 1706 815 1706 883.5 1702.5 c 128,-1,13
 952 1699 952 1699 1017 1695.5 c 128,-1,14
 1082 1692 1082 1692 1126 1691 c 1,15,-1
 1126 0 l 1,16,-1
 942 0 l 1,17,-1
 942 1548 l 1,18,-1
 701 1548 l 1,19,-1
 701 0 l 1,20,-1
 517 0 l 1,21,-1
 517 777 l 1,0,1
EndSplineSet
EndChar

StartChar: cedilla
Encoding: 184 184 112
Width: 485
Flags: W
LayerCount: 2
Fore
SplineSet
334 34 m 1,0,-1
 377 30 l 1,1,2
 412 -7 412 -7 426 -76 c 128,-1,3
 440 -145 440 -145 434 -229 c 0,4,5
 429 -292 429 -292 407 -337 c 128,-1,6
 385 -382 385 -382 352 -410 c 128,-1,7
 319 -438 319 -438 278 -451 c 128,-1,8
 237 -464 237 -464 194 -464 c 0,9,10
 174 -464 174 -464 151.5 -462 c 128,-1,11
 129 -460 129 -460 109 -456 c 128,-1,12
 89 -452 89 -452 72.5 -447 c 128,-1,13
 56 -442 56 -442 47 -436 c 1,14,-1
 62 -294 l 1,15,16
 75 -302 75 -302 98 -305 c 128,-1,17
 121 -308 121 -308 144 -308 c 0,18,19
 168 -308 168 -308 190 -300 c 128,-1,20
 212 -292 212 -292 229 -274 c 128,-1,21
 246 -256 246 -256 257 -227.5 c 128,-1,22
 268 -199 268 -199 271 -158 c 1,23,24
 276 -122 276 -122 276 -93.5 c 128,-1,25
 276 -65 276 -65 273 -42.5 c 128,-1,26
 270 -20 270 -20 264 -2.5 c 128,-1,27
 258 15 258 15 251 30 c 1,28,-1
 334 34 l 1,0,-1
EndSplineSet
EndChar

StartChar: multiply
Encoding: 215 215 115
Width: 1370
Flags: W
LayerCount: 2
Fore
SplineSet
234 439 m 1,0,-1
 572 774 l 1,1,-1
 234 1119 l 1,2,-1
 364 1247 l 1,3,-1
 686 893 l 1,4,-1
 1008 1247 l 1,5,-1
 1138 1119 l 1,6,-1
 800 777 l 1,7,-1
 1138 439 l 1,8,-1
 1008 311 l 1,9,-1
 686 654 l 1,10,-1
 364 311 l 1,11,-1
 234 439 l 1,0,-1
EndSplineSet
EndChar

StartChar: germandbls
Encoding: 223 223 116
Width: 1268
Flags: W
LayerCount: 2
Fore
SplineSet
174 966 m 1,0,-1
 174 974 l 1,1,-1
 36 974 l 1,2,-1
 36 1103 l 1,3,-1
 189 1142 l 1,4,5
 211 1256 211 1256 260 1339 c 128,-1,6
 309 1422 309 1422 379 1475 c 128,-1,7
 449 1528 449 1528 535.5 1553.5 c 128,-1,8
 622 1579 622 1579 719 1579 c 0,9,10
 797 1579 797 1579 866 1561 c 128,-1,11
 935 1543 935 1543 986 1508 c 128,-1,12
 1037 1473 1037 1473 1067 1421.5 c 128,-1,13
 1097 1370 1097 1370 1097 1303 c 0,14,15
 1097 1247 1097 1247 1080.5 1203.5 c 128,-1,16
 1064 1160 1064 1160 1039 1124 c 128,-1,17
 1014 1088 1014 1088 985 1058 c 128,-1,18
 956 1028 956 1028 931 999 c 128,-1,19
 906 970 906 970 889.5 940.5 c 128,-1,20
 873 911 873 911 873 877 c 0,21,22
 873 838 873 838 888.5 807 c 128,-1,23
 904 776 904 776 929.5 748.5 c 128,-1,24
 955 721 955 721 987.5 695.5 c 128,-1,25
 1020 670 1020 670 1054.5 642.5 c 128,-1,26
 1089 615 1089 615 1121.5 583 c 128,-1,27
 1154 551 1154 551 1179.5 512 c 128,-1,28
 1205 473 1205 473 1220.5 424 c 128,-1,29
 1236 375 1236 375 1236 313 c 0,30,31
 1236 222 1236 222 1201.5 159 c 128,-1,32
 1167 96 1167 96 1110.5 57 c 128,-1,33
 1054 18 1054 18 983 1 c 128,-1,34
 912 -16 912 -16 839 -16 c 0,35,36
 801 -16 801 -16 765.5 -13 c 128,-1,37
 730 -10 730 -10 700 -5.5 c 128,-1,38
 670 -1 670 -1 646.5 5 c 128,-1,39
 623 11 623 11 608 17 c 1,40,-1
 608 190 l 1,41,42
 636 174 636 174 695.5 156 c 128,-1,43
 755 138 755 138 847 138 c 0,44,45
 877 138 877 138 907 145.5 c 128,-1,46
 937 153 937 153 960.5 170.5 c 128,-1,47
 984 188 984 188 998.5 217 c 128,-1,48
 1013 246 1013 246 1013 289 c 0,49,50
 1012 344 1012 344 986.5 385.5 c 128,-1,51
 961 427 961 427 923 463 c 128,-1,52
 885 499 885 499 840.5 534.5 c 128,-1,53
 796 570 796 570 758.5 614 c 128,-1,54
 721 658 721 658 695.5 715 c 128,-1,55
 670 772 670 772 670 851 c 0,56,57
 670 898 670 898 685.5 935.5 c 128,-1,58
 701 973 701 973 724 1005.5 c 128,-1,59
 747 1038 747 1038 774.5 1068 c 128,-1,60
 802 1098 802 1098 825 1129.5 c 128,-1,61
 848 1161 848 1161 863.5 1196 c 128,-1,62
 879 1231 879 1231 879 1275 c 0,63,64
 879 1350 879 1350 828 1386.5 c 128,-1,65
 777 1423 777 1423 682 1423 c 0,66,67
 619 1423 619 1423 566.5 1400 c 128,-1,68
 514 1377 514 1377 475.5 1322.5 c 128,-1,69
 437 1268 437 1268 415.5 1176.5 c 128,-1,70
 394 1085 394 1085 394 948 c 2,71,-1
 394 0 l 1,72,-1
 174 0 l 1,73,-1
 174 966 l 1,0,-1
EndSplineSet
EndChar

StartChar: eth
Encoding: 240 240 117
Width: 1209
Flags: W
LayerCount: 2
Fore
SplineSet
95 553 m 0,0,1
 95 694 95 694 132 805.5 c 128,-1,2
 169 917 169 917 236 994.5 c 128,-1,3
 303 1072 303 1072 397.5 1113 c 128,-1,4
 492 1154 492 1154 606 1154 c 1,5,6
 672 1153 672 1153 725.5 1133.5 c 128,-1,7
 779 1114 779 1114 820 1080 c 1,8,9
 779 1192 779 1192 710 1286 c 128,-1,10
 641 1380 641 1380 553 1455 c 1,11,-1
 419 1306 l 1,12,-1
 304 1396 l 1,13,-1
 437 1539 l 1,14,15
 386 1572 386 1572 332.5 1599 c 128,-1,16
 279 1626 279 1626 222 1646 c 1,17,-1
 274 1771 l 1,18,19
 347 1748 347 1748 413.5 1718.5 c 128,-1,20
 480 1689 480 1689 542 1653 c 1,21,22
 564 1676 564 1676 587.5 1704 c 128,-1,23
 611 1732 611 1732 631 1756 c 0,24,25
 654 1784 654 1784 676 1811 c 1,26,-1
 793 1721 l 1,27,28
 772 1697 772 1697 750 1671 c 0,29,30
 731 1649 731 1649 707.5 1623 c 128,-1,31
 684 1597 684 1597 661 1574 c 1,32,-1
 674 1564 l 2,33,34
 780 1482 780 1482 862 1379 c 128,-1,35
 944 1276 944 1276 1000 1155 c 128,-1,36
 1056 1034 1056 1034 1085 896.5 c 128,-1,37
 1114 759 1114 759 1114 608 c 0,38,39
 1114 449 1114 449 1077.5 330.5 c 128,-1,40
 1041 212 1041 212 974.5 133 c 128,-1,41
 908 54 908 54 814.5 14 c 128,-1,42
 721 -26 721 -26 607 -27 c 0,43,44
 490 -29 490 -29 395 11.5 c 128,-1,45
 300 52 300 52 233.5 127.5 c 128,-1,46
 167 203 167 203 131 311 c 128,-1,47
 95 419 95 419 95 553 c 0,0,1
616 124 m 0,48,49
 680 124 680 124 731.5 154.5 c 128,-1,50
 783 185 783 185 819.5 241 c 128,-1,51
 856 297 856 297 875.5 376.5 c 128,-1,52
 895 456 895 456 895 554 c 0,53,54
 895 593 895 593 895.5 629 c 128,-1,55
 896 665 896 665 896 700.5 c 128,-1,56
 896 736 896 736 894.5 772.5 c 128,-1,57
 893 809 893 809 890 849 c 1,58,59
 885 872 885 872 867 897 c 128,-1,60
 849 922 849 922 815.5 942.5 c 128,-1,61
 782 963 782 963 732 976.5 c 128,-1,62
 682 990 682 990 615 990 c 0,63,64
 538 990 538 990 481.5 958.5 c 128,-1,65
 425 927 425 927 387.5 870 c 128,-1,66
 350 813 350 813 331.5 734 c 128,-1,67
 313 655 313 655 313 561 c 0,68,69
 313 466 313 466 332 386 c 128,-1,70
 351 306 351 306 389 248 c 128,-1,71
 427 190 427 190 483.5 157 c 128,-1,72
 540 124 540 124 616 124 c 0,48,49
EndSplineSet
EndChar

StartChar: endash
Encoding: 8211 8211 118
Width: 1692
Flags: W
LayerCount: 2
Fore
SplineSet
240 860 m 1,0,-1
 1452 860 l 1,1,-1
 1452 683 l 1,2,-1
 240 683 l 1,3,-1
 240 860 l 1,0,-1
EndSplineSet
EndChar

StartChar: emdash
Encoding: 8212 8212 119
Width: 2343
Flags: W
LayerCount: 2
Fore
SplineSet
240 860 m 1,0,-1
 2103 860 l 1,1,-1
 2103 683 l 1,2,-1
 240 683 l 1,3,-1
 240 860 l 1,0,-1
EndSplineSet
EndChar

StartChar: quoteleft
Encoding: 8216 8216 120
Width: 520
Flags: W
LayerCount: 2
Fore
SplineSet
304 960 m 1,0,1
 259 976 259 976 221 1009.5 c 128,-1,2
 183 1043 183 1043 156 1090.5 c 128,-1,3
 129 1138 129 1138 113.5 1197.5 c 128,-1,4
 98 1257 98 1257 98 1326 c 0,5,6
 98 1403 98 1403 119.5 1469.5 c 128,-1,7
 141 1536 141 1536 172.5 1588 c 128,-1,8
 204 1640 204 1640 240 1677 c 128,-1,9
 276 1714 276 1714 305 1733 c 1,10,-1
 401 1672 l 1,11,-1
 401 1640 l 1,12,13
 378 1621 378 1621 360.5 1589.5 c 128,-1,14
 343 1558 343 1558 330 1520.5 c 128,-1,15
 317 1483 317 1483 310.5 1443.5 c 128,-1,16
 304 1404 304 1404 304 1368 c 0,17,18
 304 1329 304 1329 314.5 1293.5 c 128,-1,19
 325 1258 325 1258 341 1228.5 c 128,-1,20
 357 1199 357 1199 377 1178.5 c 128,-1,21
 397 1158 397 1158 417 1149 c 1,22,-1
 417 1087 l 1,23,-1
 304 960 l 1,24,-1
 304 960 l 1,0,1
EndSplineSet
EndChar

StartChar: quoteright
Encoding: 8217 8217 121
Width: 520
Flags: W
LayerCount: 2
Fore
SplineSet
127 1021 m 1,0,-1
 127 1053 l 1,1,2
 145 1072 145 1072 159.5 1103.5 c 128,-1,3
 174 1135 174 1135 183.5 1172.5 c 128,-1,4
 193 1210 193 1210 198.5 1249.5 c 128,-1,5
 204 1289 204 1289 204 1325 c 0,6,7
 204 1366 204 1366 195.5 1403.5 c 128,-1,8
 187 1441 187 1441 173.5 1471.5 c 128,-1,9
 160 1502 160 1502 143.5 1523.5 c 128,-1,10
 127 1545 127 1545 111 1555 c 1,11,-1
 111 1616 l 1,12,-1
 254 1733 l 1,13,14
 288 1717 288 1717 316.5 1690 c 128,-1,15
 345 1663 345 1663 366 1623 c 128,-1,16
 387 1583 387 1583 398.5 1530 c 128,-1,17
 410 1477 410 1477 410 1408 c 0,18,19
 410 1314 410 1314 390.5 1239.5 c 128,-1,20
 371 1165 371 1165 342.5 1109 c 128,-1,21
 314 1053 314 1053 281.5 1016 c 128,-1,22
 249 979 249 979 223 960 c 1,23,-1
 127 1021 l 1,0,-1
EndSplineSet
EndChar

StartChar: dagger
Encoding: 8224 8224 126
Width: 1026
Flags: W
LayerCount: 2
Fore
SplineSet
414 1128 m 1,0,-1
 124 1125 l 1,1,-1
 125 1288 l 1,2,-1
 414 1284 l 1,3,-1
 411 1658 l 1,4,-1
 615 1658 l 1,5,-1
 612 1284 l 1,6,-1
 902 1288 l 1,7,-1
 902 1125 l 1,8,-1
 612 1128 l 1,9,-1
 601 200 l 1,10,-1
 425 200 l 1,11,-1
 414 1128 l 1,0,-1
EndSplineSet
EndChar

StartChar: bullet
Encoding: 8226 8226 127
Width: 855
Flags: W
LayerCount: 2
Fore
SplineSet
418 499 m 256,0,1
 373 499 373 499 333 517 c 128,-1,2
 293 535 293 535 264.5 566 c 128,-1,3
 236 597 236 597 220 638 c 128,-1,4
 204 679 204 679 207 724 c 0,5,6
 210 772 210 772 229.5 813.5 c 128,-1,7
 249 855 249 855 280.5 885.5 c 128,-1,8
 312 916 312 916 352.5 934 c 128,-1,9
 393 952 393 952 438 952 c 256,10,11
 483 952 483 952 522.5 934.5 c 128,-1,12
 562 917 562 917 590.5 887 c 128,-1,13
 619 857 619 857 635 816 c 128,-1,14
 651 775 651 775 648 728 c 0,15,16
 646 681 646 681 626.5 639 c 128,-1,17
 607 597 607 597 575.5 566 c 128,-1,18
 544 535 544 535 503.5 517 c 128,-1,19
 463 499 463 499 418 499 c 256,0,1
EndSplineSet
EndChar

StartChar: logicalnot
Encoding: 172 172 130
Width: 1470
Flags: W
LayerCount: 2
Fore
SplineSet
240 852 m 1,0,-1
 1230 852 l 1,1,-1
 1230 323 l 1,2,-1
 1030 323 l 1,3,-1
 1030 688 l 1,4,-1
 240 688 l 1,5,-1
 240 852 l 1,0,-1
EndSplineSet
EndChar

StartChar: yen
Encoding: 165 165 131
Width: 1532
Flags: W
LayerCount: 2
Fore
SplineSet
274 436 m 1,0,-1
 659 436 l 1,1,-1
 659 667 l 1,2,-1
 274 667 l 1,3,-1
 274 810 l 1,4,-1
 610 810 l 1,5,-1
 164 1522 l 1,6,-1
 402 1522 l 1,7,-1
 706 997 l 1,8,-1
 770 863 l 1,9,-1
 832 1004 l 1,10,-1
 1144 1522 l 1,11,-1
 1377 1522 l 1,12,-1
 920 810 l 1,13,-1
 1239 810 l 1,14,-1
 1239 667 l 1,15,-1
 879 667 l 1,16,-1
 879 436 l 1,17,-1
 1239 436 l 1,18,-1
 1239 293 l 1,19,-1
 879 293 l 1,20,-1
 879 0 l 1,21,-1
 659 0 l 1,22,-1
 659 293 l 1,23,-1
 274 293 l 1,24,-1
 274 436 l 1,0,-1
EndSplineSet
EndChar

StartChar: divide
Encoding: 247 247 132
Width: 1393
Flags: W
LayerCount: 2
Fore
SplineSet
692 1029 m 0,0,1
 663 1029 663 1029 637.5 1039 c 128,-1,2
 612 1049 612 1049 593 1067 c 128,-1,3
 574 1085 574 1085 562.5 1110.5 c 128,-1,4
 551 1136 551 1136 551 1168 c 0,5,6
 551 1202 551 1202 565 1231 c 128,-1,7
 579 1260 579 1260 602 1282 c 128,-1,8
 625 1304 625 1304 654.5 1316.5 c 128,-1,9
 684 1329 684 1329 715 1329 c 0,10,11
 751 1329 751 1329 777.5 1318 c 128,-1,12
 804 1307 804 1307 821.5 1288 c 128,-1,13
 839 1269 839 1269 848 1243.5 c 128,-1,14
 857 1218 857 1218 857 1189 c 0,15,16
 857 1154 857 1154 843 1124.5 c 128,-1,17
 829 1095 829 1095 806 1074 c 128,-1,18
 783 1053 783 1053 753.5 1041 c 128,-1,19
 724 1029 724 1029 692 1029 c 0,0,1
229 858 m 1,20,-1
 1164 858 l 1,21,-1
 1164 688 l 1,22,-1
 229 688 l 1,23,-1
 229 858 l 1,20,-1
550 363 m 0,24,25
 550 397 550 397 564 426 c 128,-1,26
 578 455 578 455 601 477 c 128,-1,27
 624 499 624 499 653.5 511.5 c 128,-1,28
 683 524 683 524 714 524 c 0,29,30
 750 524 750 524 776.5 513 c 128,-1,31
 803 502 803 502 820.5 483.5 c 128,-1,32
 838 465 838 465 847 439.5 c 128,-1,33
 856 414 856 414 856 385 c 0,34,35
 856 349 856 349 842 319.5 c 128,-1,36
 828 290 828 290 805 269 c 128,-1,37
 782 248 782 248 752.5 236.5 c 128,-1,38
 723 225 723 225 691 225 c 0,39,40
 662 225 662 225 636.5 234.5 c 128,-1,41
 611 244 611 244 592 262 c 128,-1,42
 573 280 573 280 561.5 305.5 c 128,-1,43
 550 331 550 331 550 363 c 0,24,25
EndSplineSet
EndChar

StartChar: daggerdbl
Encoding: 8225 8225 133
Width: 1026
Flags: W
LayerCount: 2
Fore
SplineSet
124 639 m 1,0,-1
 413 636 l 1,1,-1
 413 1128 l 1,2,-1
 124 1125 l 1,3,-1
 125 1288 l 1,4,-1
 413 1285 l 1,5,-1
 410 1658 l 1,6,-1
 615 1658 l 1,7,-1
 611 1285 l 1,8,-1
 902 1288 l 1,9,-1
 902 1125 l 1,10,-1
 611 1128 l 1,11,-1
 611 636 l 1,12,-1
 901 639 l 1,13,-1
 901 476 l 1,14,-1
 611 479 l 1,15,-1
 595 -356 l 1,16,-1
 428 -356 l 1,17,-1
 413 479 l 1,18,-1
 124 476 l 1,19,-1
 124 639 l 1,0,-1
EndSplineSet
EndChar

StartChar: cent
Encoding: 162 162 134
Width: 1183
Flags: W
LayerCount: 2
Fore
SplineSet
157 558 m 0,0,1
 157 673 157 673 185.5 774.5 c 128,-1,2
 214 876 214 876 271.5 954.5 c 128,-1,3
 329 1033 329 1033 415.5 1084 c 128,-1,4
 502 1135 502 1135 617 1150 c 1,5,-1
 623 1377 l 1,6,-1
 772 1377 l 1,7,-1
 767 1154 l 1,8,9
 851 1148 851 1148 908 1130 c 128,-1,10
 965 1112 965 1112 988 1097 c 1,11,-1
 953 923 l 1,12,13
 908 955 908 955 846.5 970.5 c 128,-1,14
 785 986 785 986 697 986 c 0,15,16
 638 986 638 986 581 964.5 c 128,-1,17
 524 943 524 943 478.5 896 c 128,-1,18
 433 849 433 849 403.5 775 c 128,-1,19
 374 701 374 701 370 597 c 0,20,21
 366 488 366 488 390 404.5 c 128,-1,22
 414 321 414 321 457.5 264.5 c 128,-1,23
 501 208 501 208 561.5 179 c 128,-1,24
 622 150 622 150 691 150 c 0,25,26
 734 150 734 150 774.5 156 c 128,-1,27
 815 162 815 162 850.5 172 c 128,-1,28
 886 182 886 182 915 193.5 c 128,-1,29
 944 205 944 205 963 217 c 1,30,-1
 1008 92 l 1,31,32
 964 51 964 51 892 24 c 128,-1,33
 820 -3 820 -3 734 -12 c 1,34,-1
 731 -216 l 1,35,-1
 581 -216 l 1,36,-1
 585 -11 l 1,37,38
 482 2 482 2 402 50 c 128,-1,39
 322 98 322 98 267.5 173.5 c 128,-1,40
 213 249 213 249 185 347 c 128,-1,41
 157 445 157 445 157 558 c 0,0,1
EndSplineSet
EndChar

StartChar: circumflex
Encoding: 710 710 135
Width: 836
Flags: W
LayerCount: 2
Fore
SplineSet
47 1349 m 1,0,-1
 323 1682 l 1,1,-1
 521 1682 l 1,2,-1
 789 1350 l 1,3,-1
 654 1294 l 1,4,-1
 422 1516 l 1,5,-1
 173 1293 l 1,6,-1
 47 1349 l 1,0,-1
EndSplineSet
EndChar

StartChar: caron
Encoding: 711 711 136
Width: 824
Flags: W
LayerCount: 2
Fore
SplineSet
47 1626 m 1,0,-1
 173 1682 l 1,1,-1
 422 1459 l 1,2,-1
 654 1681 l 1,3,-1
 789 1625 l 1,4,-1
 521 1293 l 1,5,-1
 323 1293 l 1,6,-1
 47 1626 l 1,0,-1
EndSplineSet
EndChar

StartChar: breve
Encoding: 728 728 137
Width: 784
Flags: W
LayerCount: 2
Fore
SplineSet
392 1308 m 0,0,1
 306 1308 306 1308 239.5 1340 c 128,-1,2
 173 1372 173 1372 129 1425 c 128,-1,3
 85 1478 85 1478 64 1546 c 128,-1,4
 43 1614 43 1614 49 1685 c 1,5,-1
 203 1685 l 1,6,7
 203 1678 203 1678 204 1660.5 c 128,-1,8
 205 1643 205 1643 210 1620 c 128,-1,9
 215 1597 215 1597 226.5 1572.5 c 128,-1,10
 238 1548 238 1548 259 1527.5 c 128,-1,11
 280 1507 280 1507 312.5 1493.5 c 128,-1,12
 345 1480 345 1480 393 1480 c 0,13,14
 440 1480 440 1480 473 1493.5 c 128,-1,15
 506 1507 506 1507 527 1527.5 c 128,-1,16
 548 1548 548 1548 559.5 1572.5 c 128,-1,17
 571 1597 571 1597 577 1620 c 128,-1,18
 583 1643 583 1643 584 1660.5 c 128,-1,19
 585 1678 585 1678 585 1685 c 1,20,-1
 735 1685 l 1,21,22
 741 1614 741 1614 719 1546 c 128,-1,23
 697 1478 697 1478 651.5 1425 c 128,-1,24
 606 1372 606 1372 539.5 1340 c 128,-1,25
 473 1308 473 1308 392 1308 c 0,0,1
EndSplineSet
EndChar

StartChar: ring
Encoding: 730 730 138
Width: 731
Flags: W
LayerCount: 2
Fore
SplineSet
362 1328 m 0,0,1
 290 1328 290 1328 231 1348 c 128,-1,2
 172 1368 172 1368 130.5 1404.5 c 128,-1,3
 89 1441 89 1441 66.5 1492.5 c 128,-1,4
 44 1544 44 1544 45 1607 c 0,5,6
 46 1679 46 1679 74.5 1729.5 c 128,-1,7
 103 1780 103 1780 148 1812 c 128,-1,8
 193 1844 193 1844 249.5 1858.5 c 128,-1,9
 306 1873 306 1873 365 1873 c 0,10,11
 438 1873 438 1873 497.5 1855.5 c 128,-1,12
 557 1838 557 1838 599 1804 c 128,-1,13
 641 1770 641 1770 663.5 1720 c 128,-1,14
 686 1670 686 1670 686 1606 c 0,15,16
 685 1534 685 1534 658.5 1482 c 128,-1,17
 632 1430 632 1430 587.5 1395.5 c 128,-1,18
 543 1361 543 1361 484.5 1344.5 c 128,-1,19
 426 1328 426 1328 362 1328 c 0,0,1
363 1454 m 0,20,21
 400 1454 400 1454 431 1462.5 c 128,-1,22
 462 1471 462 1471 484.5 1489 c 128,-1,23
 507 1507 507 1507 519.5 1536 c 128,-1,24
 532 1565 532 1565 532 1605 c 0,25,26
 532 1640 532 1640 519 1666.5 c 128,-1,27
 506 1693 506 1693 483 1711.5 c 128,-1,28
 460 1730 460 1730 429.5 1739.5 c 128,-1,29
 399 1749 399 1749 363 1749 c 0,30,31
 333 1749 333 1749 304 1742.5 c 128,-1,32
 275 1736 275 1736 252 1719.5 c 128,-1,33
 229 1703 229 1703 215 1675.5 c 128,-1,34
 201 1648 201 1648 201 1607 c 0,35,36
 201 1540 201 1540 244.5 1498 c 128,-1,37
 288 1456 288 1456 363 1454 c 0,20,21
EndSplineSet
EndChar

StartChar: tilde
Encoding: 732 732 139
Width: 927
Flags: W
LayerCount: 2
Fore
SplineSet
47 1453 m 1,0,1
 64 1490 64 1490 91 1525.5 c 128,-1,2
 118 1561 118 1561 153.5 1588 c 128,-1,3
 189 1615 189 1615 230.5 1631.5 c 128,-1,4
 272 1648 272 1648 317 1648 c 0,5,6
 357 1648 357 1648 387.5 1638 c 128,-1,7
 418 1628 418 1628 442 1612.5 c 128,-1,8
 466 1597 466 1597 486 1579.5 c 128,-1,9
 506 1562 506 1562 525.5 1546.5 c 128,-1,10
 545 1531 545 1531 565.5 1521 c 128,-1,11
 586 1511 586 1511 612 1511 c 0,12,13
 646 1511 646 1511 673 1520 c 128,-1,14
 700 1529 700 1529 722 1543 c 128,-1,15
 744 1557 744 1557 762 1574.5 c 128,-1,16
 780 1592 780 1592 795 1609 c 1,17,-1
 881 1537 l 1,18,19
 862 1497 862 1497 834.5 1462 c 128,-1,20
 807 1427 807 1427 772.5 1400.5 c 128,-1,21
 738 1374 738 1374 697.5 1359 c 128,-1,22
 657 1344 657 1344 611 1344 c 0,23,24
 568 1344 568 1344 537 1354 c 128,-1,25
 506 1364 506 1364 481.5 1379.5 c 128,-1,26
 457 1395 457 1395 438 1413 c 128,-1,27
 419 1431 419 1431 400 1446.5 c 128,-1,28
 381 1462 381 1462 361 1472 c 128,-1,29
 341 1482 341 1482 315 1482 c 0,30,31
 285 1482 285 1482 258.5 1473 c 128,-1,32
 232 1464 232 1464 209 1449.5 c 128,-1,33
 186 1435 186 1435 166.5 1418 c 128,-1,34
 147 1401 147 1401 132 1385 c 1,35,-1
 47 1453 l 1,0,1
EndSplineSet
EndChar

StartChar: hungarumlaut
Encoding: 733 733 140
Width: 1035
Flags: W
LayerCount: 2
Fore
SplineSet
42 1390 m 1,0,-1
 301 1798 l 1,1,-1
 463 1687 l 1,2,3
 448 1661 448 1661 423.5 1627 c 128,-1,4
 399 1593 399 1593 370 1556.5 c 128,-1,5
 341 1520 341 1520 309.5 1483 c 128,-1,6
 278 1446 278 1446 247.5 1414 c 128,-1,7
 217 1382 217 1382 190.5 1357 c 128,-1,8
 164 1332 164 1332 145 1319 c 1,9,-1
 42 1390 l 1,0,-1
541 1390 m 1,10,-1
 808 1789 l 1,11,-1
 963 1679 l 1,12,13
 950 1655 950 1655 927 1622 c 128,-1,14
 904 1589 904 1589 875 1553 c 128,-1,15
 846 1517 846 1517 813.5 1480.5 c 128,-1,16
 781 1444 781 1444 749.5 1412 c 128,-1,17
 718 1380 718 1380 690 1355.5 c 128,-1,18
 662 1331 662 1331 642 1319 c 1,19,-1
 541 1390 l 1,10,-1
EndSplineSet
EndChar

StartChar: ogonek
Encoding: 731 731 141
Width: 640
Flags: W
LayerCount: 2
Fore
SplineSet
52 -302 m 0,0,1
 51 -256 51 -256 73 -211.5 c 128,-1,2
 95 -167 95 -167 131.5 -128 c 128,-1,3
 168 -89 168 -89 215.5 -57 c 128,-1,4
 263 -25 263 -25 314 -2 c 1,5,-1
 414 8 l 1,6,-1
 512 5 l 1,7,8
 468 -13 468 -13 421 -43 c 128,-1,9
 374 -73 374 -73 335 -109.5 c 128,-1,10
 296 -146 296 -146 271.5 -186 c 128,-1,11
 247 -226 247 -226 247 -263 c 0,12,13
 247 -367 247 -367 376 -367 c 0,14,15
 404 -367 404 -367 432 -361 c 128,-1,16
 460 -355 460 -355 485.5 -347 c 128,-1,17
 511 -339 511 -339 532 -331 c 128,-1,18
 553 -323 553 -323 566 -318 c 1,19,-1
 584 -437 l 1,20,21
 565 -449 565 -449 538 -462 c 128,-1,22
 511 -475 511 -475 475.5 -486 c 128,-1,23
 440 -497 440 -497 396.5 -504 c 128,-1,24
 353 -511 353 -511 301 -511 c 0,25,26
 254 -511 254 -511 209.5 -497.5 c 128,-1,27
 165 -484 165 -484 130 -457.5 c 128,-1,28
 95 -431 95 -431 74 -392 c 128,-1,29
 53 -353 53 -353 52 -302 c 0,0,1
EndSplineSet
EndChar

StartChar: twosuperior
Encoding: 178 178 143
Width: 1194
Flags: W
LayerCount: 2
Fore
SplineSet
205 775 m 1,0,1
 242 794 242 794 295 827.5 c 128,-1,2
 348 861 348 861 406 905 c 128,-1,3
 464 949 464 949 521.5 1001 c 128,-1,4
 579 1053 579 1053 624.5 1109.5 c 128,-1,5
 670 1166 670 1166 698.5 1225.5 c 128,-1,6
 727 1285 727 1285 727 1344 c 0,7,8
 727 1392 727 1392 713.5 1426.5 c 128,-1,9
 700 1461 700 1461 675.5 1483.5 c 128,-1,10
 651 1506 651 1506 616.5 1516.5 c 128,-1,11
 582 1527 582 1527 541 1527 c 0,12,13
 457 1527 457 1527 391 1490.5 c 128,-1,14
 325 1454 325 1454 266 1385 c 1,15,-1
 175 1494 l 1,16,17
 199 1528 199 1528 238.5 1562.5 c 128,-1,18
 278 1597 278 1597 330 1624.5 c 128,-1,19
 382 1652 382 1652 445 1669 c 128,-1,20
 508 1686 508 1686 579 1686 c 0,21,22
 674 1686 674 1686 742.5 1659.5 c 128,-1,23
 811 1633 811 1633 855 1590 c 128,-1,24
 899 1547 899 1547 920 1492.5 c 128,-1,25
 941 1438 941 1438 941 1382 c 0,26,27
 941 1301 941 1301 911 1225 c 128,-1,28
 881 1149 881 1149 827 1079 c 128,-1,29
 773 1009 773 1009 699 945 c 128,-1,30
 625 881 625 881 538 825 c 1,31,-1
 996 830 l 1,32,-1
 996 665 l 1,33,-1
 248 665 l 1,34,-1
 205 775 l 1,0,1
EndSplineSet
EndChar

StartChar: onesuperior
Encoding: 185 185 144
Width: 1026
Flags: W
LayerCount: 2
Fore
SplineSet
468 1426 m 1,0,1
 436 1419 436 1419 412 1412.5 c 128,-1,2
 388 1406 388 1406 365.5 1399.5 c 128,-1,3
 343 1393 343 1393 318.5 1387 c 128,-1,4
 294 1381 294 1381 262 1375 c 1,5,-1
 222 1496 l 1,6,7
 267 1509 267 1509 321 1535.5 c 128,-1,8
 375 1562 375 1562 425.5 1591 c 128,-1,9
 476 1620 476 1620 516 1647 c 128,-1,10
 556 1674 556 1674 574 1689 c 1,11,-1
 679 1664 l 1,12,-1
 679 663 l 1,13,-1
 468 663 l 1,14,-1
 468 1426 l 1,0,1
EndSplineSet
EndChar

StartChar: fraction
Encoding: 8260 8260 145
Width: 1026
Flags: W
LayerCount: 2
Fore
SplineSet
682 1530 m 1,0,-1
 882 1530 l 1,1,-1
 340 0 l 1,2,-1
 143 0 l 1,3,-1
 682 1530 l 1,0,-1
EndSplineSet
EndChar

StartChar: onequarter
Encoding: 188 188 146
Width: 2479
Flags: W
LayerCount: 2
Fore
SplineSet
1803 1144 m 1,0,-1
 1871 1144 l 1,1,-1
 2002 1067 l 1,2,-1
 1586 455 l 1,3,-1
 1544 392 l 1,4,-1
 1874 392 l 1,5,-1
 1880 638 l 1,6,-1
 2065 658 l 1,7,-1
 2065 392 l 1,8,-1
 2269 392 l 1,9,-1
 2270 235 l 1,10,-1
 2065 235 l 1,11,-1
 2065 -47 l 1,12,-1
 1871 -47 l 1,13,-1
 1872 235 l 1,14,-1
 1353 235 l 1,15,-1
 1301 329 l 1,16,-1
 1803 1144 l 1,0,-1
1287 1530 m 1,17,-1
 1487 1530 l 1,18,-1
 945 0 l 1,19,-1
 748 0 l 1,20,-1
 1287 1530 l 1,17,-1
491 1426 m 1,21,22
 459 1419 459 1419 435 1412.5 c 128,-1,23
 411 1406 411 1406 388.5 1399.5 c 128,-1,24
 366 1393 366 1393 341.5 1387 c 128,-1,25
 317 1381 317 1381 285 1375 c 1,26,-1
 245 1496 l 1,27,28
 290 1509 290 1509 344 1535.5 c 128,-1,29
 398 1562 398 1562 448.5 1591 c 128,-1,30
 499 1620 499 1620 539 1647 c 128,-1,31
 579 1674 579 1674 597 1689 c 1,32,-1
 702 1664 l 1,33,-1
 702 663 l 1,34,-1
 491 663 l 1,35,-1
 491 1426 l 1,21,22
EndSplineSet
Ligature2: "'frac' Diagonal Fractions in Latin lookup 10 subtable" one slash four
EndChar

StartChar: threequarters
Encoding: 190 190 147
Width: 2479
Flags: W
LayerCount: 2
Fore
SplineSet
1803 1144 m 1,0,-1
 1871 1144 l 1,1,-1
 2002 1067 l 1,2,-1
 1586 455 l 1,3,-1
 1544 392 l 1,4,-1
 1874 392 l 1,5,-1
 1880 638 l 1,6,-1
 2065 658 l 1,7,-1
 2065 392 l 1,8,-1
 2269 392 l 1,9,-1
 2270 235 l 1,10,-1
 2065 235 l 1,11,-1
 2065 -47 l 1,12,-1
 1871 -47 l 1,13,-1
 1872 235 l 1,14,-1
 1353 235 l 1,15,-1
 1301 329 l 1,16,-1
 1803 1144 l 1,0,-1
188 748 m 1,17,18
 214 743 214 743 235.5 739 c 128,-1,19
 257 735 257 735 279.5 732 c 128,-1,20
 302 729 302 729 328.5 728 c 128,-1,21
 355 727 355 727 391 727 c 0,22,23
 464 728 464 728 514 740.5 c 128,-1,24
 564 753 564 753 595 777 c 128,-1,25
 626 801 626 801 639.5 837 c 128,-1,26
 653 873 653 873 653 921 c 0,27,28
 653 961 653 961 635.5 993.5 c 128,-1,29
 618 1026 618 1026 588 1049 c 128,-1,30
 558 1072 558 1072 517 1085 c 128,-1,31
 476 1098 476 1098 428 1101 c 1,32,-1
 340 1073 l 1,33,-1
 303 1201 l 1,34,35
 319 1204 319 1204 339.5 1210 c 128,-1,36
 360 1216 360 1216 381 1223.5 c 128,-1,37
 402 1231 402 1231 422 1239 c 128,-1,38
 442 1247 442 1247 458 1254 c 0,39,40
 487 1267 487 1267 512.5 1284 c 128,-1,41
 538 1301 538 1301 556.5 1323 c 128,-1,42
 575 1345 575 1345 585 1371 c 128,-1,43
 595 1397 595 1397 594 1429 c 0,44,45
 593 1459 593 1459 578.5 1481 c 128,-1,46
 564 1503 564 1503 541 1517.5 c 128,-1,47
 518 1532 518 1532 488 1539 c 128,-1,48
 458 1546 458 1546 426 1546 c 0,49,50
 402 1546 402 1546 373 1540.5 c 128,-1,51
 344 1535 344 1535 313.5 1524.5 c 128,-1,52
 283 1514 283 1514 253 1499.5 c 128,-1,53
 223 1485 223 1485 197 1467 c 1,54,-1
 135 1586 l 1,55,56
 169 1614 169 1614 213.5 1633.5 c 128,-1,57
 258 1653 258 1653 302 1666 c 128,-1,58
 346 1679 346 1679 385.5 1685 c 128,-1,59
 425 1691 425 1691 448 1691 c 0,60,61
 535 1691 535 1691 598.5 1672 c 128,-1,62
 662 1653 662 1653 703.5 1620.5 c 128,-1,63
 745 1588 745 1588 765 1544.5 c 128,-1,64
 785 1501 785 1501 785 1453 c 0,65,66
 785 1366 785 1366 734 1297.5 c 128,-1,67
 683 1229 683 1229 577 1183 c 1,68,69
 647 1180 647 1180 699 1157 c 128,-1,70
 751 1134 751 1134 785.5 1098 c 128,-1,71
 820 1062 820 1062 837 1017.5 c 128,-1,72
 854 973 854 973 854 927 c 0,73,74
 854 855 854 855 828.5 791 c 128,-1,75
 803 727 803 727 749 680 c 128,-1,76
 695 633 695 633 611 605.5 c 128,-1,77
 527 578 527 578 411 578 c 0,78,79
 354 578 354 578 300 587.5 c 128,-1,80
 246 597 246 597 202 606 c 1,81,-1
 188 748 l 1,17,18
1287 1530 m 1,82,-1
 1487 1530 l 1,83,-1
 945 0 l 1,84,-1
 748 0 l 1,85,-1
 1287 1530 l 1,82,-1
EndSplineSet
Ligature2: "'frac' Diagonal Fractions in Latin lookup 10 subtable" three slash four
EndChar

StartChar: threesuperior
Encoding: 179 179 148
Width: 1194
Flags: W
LayerCount: 2
Fore
SplineSet
335 748 m 1,0,1
 361 743 361 743 382.5 739 c 128,-1,2
 404 735 404 735 426.5 732 c 128,-1,3
 449 729 449 729 475.5 728 c 128,-1,4
 502 727 502 727 538 727 c 0,5,6
 611 728 611 728 661 740.5 c 128,-1,7
 711 753 711 753 742 777 c 128,-1,8
 773 801 773 801 786.5 837 c 128,-1,9
 800 873 800 873 800 921 c 0,10,11
 800 961 800 961 782.5 993.5 c 128,-1,12
 765 1026 765 1026 735 1049 c 128,-1,13
 705 1072 705 1072 664 1085 c 128,-1,14
 623 1098 623 1098 575 1101 c 1,15,-1
 487 1073 l 1,16,-1
 450 1201 l 1,17,18
 466 1204 466 1204 486.5 1210 c 128,-1,19
 507 1216 507 1216 528 1223.5 c 128,-1,20
 549 1231 549 1231 569 1239 c 128,-1,21
 589 1247 589 1247 605 1254 c 0,22,23
 634 1267 634 1267 659.5 1284 c 128,-1,24
 685 1301 685 1301 703.5 1323 c 128,-1,25
 722 1345 722 1345 732 1371 c 128,-1,26
 742 1397 742 1397 741 1429 c 0,27,28
 740 1459 740 1459 725.5 1481 c 128,-1,29
 711 1503 711 1503 688 1517.5 c 128,-1,30
 665 1532 665 1532 635 1539 c 128,-1,31
 605 1546 605 1546 573 1546 c 0,32,33
 549 1546 549 1546 520 1540.5 c 128,-1,34
 491 1535 491 1535 460.5 1524.5 c 128,-1,35
 430 1514 430 1514 400 1499.5 c 128,-1,36
 370 1485 370 1485 344 1467 c 1,37,-1
 282 1586 l 1,38,39
 316 1614 316 1614 360.5 1633.5 c 128,-1,40
 405 1653 405 1653 449 1666 c 128,-1,41
 493 1679 493 1679 532.5 1685 c 128,-1,42
 572 1691 572 1691 595 1691 c 0,43,44
 682 1691 682 1691 745.5 1672 c 128,-1,45
 809 1653 809 1653 850.5 1620.5 c 128,-1,46
 892 1588 892 1588 912 1544.5 c 128,-1,47
 932 1501 932 1501 932 1453 c 0,48,49
 932 1366 932 1366 881 1297.5 c 128,-1,50
 830 1229 830 1229 724 1183 c 1,51,52
 794 1180 794 1180 846 1157 c 128,-1,53
 898 1134 898 1134 932.5 1098 c 128,-1,54
 967 1062 967 1062 984 1017.5 c 128,-1,55
 1001 973 1001 973 1001 927 c 0,56,57
 1001 855 1001 855 975.5 791 c 128,-1,58
 950 727 950 727 896 680 c 128,-1,59
 842 633 842 633 758 605.5 c 128,-1,60
 674 578 674 578 558 578 c 0,61,62
 501 578 501 578 447 587.5 c 128,-1,63
 393 597 393 597 349 606 c 1,64,-1
 335 748 l 1,0,1
EndSplineSet
EndChar

StartChar: grave.cap
Encoding: 65537 -1 149
Width: 597
Flags: W
LayerCount: 2
Fore
SplineSet
447 1593 m 1,0,1
 423 1601 423 1601 389.5 1619 c 128,-1,2
 356 1637 356 1637 318 1660 c 128,-1,3
 280 1683 280 1683 241 1710 c 128,-1,4
 202 1737 202 1737 166 1764.5 c 128,-1,5
 130 1792 130 1792 99.5 1818.5 c 128,-1,6
 69 1845 69 1845 50 1867 c 1,7,-1
 196 2000 l 1,8,9
 197 1997 197 1997 222.5 1972.5 c 128,-1,10
 248 1948 248 1948 285.5 1913.5 c 128,-1,11
 323 1879 323 1879 366.5 1839.5 c 128,-1,12
 410 1800 410 1800 448 1766.5 c 128,-1,13
 486 1733 486 1733 511.5 1709.5 c 128,-1,14
 537 1686 537 1686 539 1685 c 1,15,-1
 447 1593 l 1,16,-1
 447 1593 l 1,0,1
EndSplineSet
EndChar

StartChar: dieresis.cap
Encoding: 65538 -1 150
Width: 893
Flags: W
LayerCount: 2
Fore
SplineSet
683 1687 m 0,0,1
 655 1687 655 1687 630 1696 c 128,-1,2
 605 1705 605 1705 586.5 1722.5 c 128,-1,3
 568 1740 568 1740 557 1764.5 c 128,-1,4
 546 1789 546 1789 546 1820 c 0,5,6
 546 1853 546 1853 559.5 1881.5 c 128,-1,7
 573 1910 573 1910 595.5 1930.5 c 128,-1,8
 618 1951 618 1951 646.5 1963 c 128,-1,9
 675 1975 675 1975 705 1975 c 0,10,11
 740 1975 740 1975 766 1964.5 c 128,-1,12
 792 1954 792 1954 809 1936 c 128,-1,13
 826 1918 826 1918 834.5 1893.5 c 128,-1,14
 843 1869 843 1869 843 1841 c 0,15,16
 843 1806 843 1806 830 1778 c 128,-1,17
 817 1750 817 1750 794.5 1729.5 c 128,-1,18
 772 1709 772 1709 743 1698 c 128,-1,19
 714 1687 714 1687 683 1687 c 0,0,1
187 1687 m 0,20,21
 159 1687 159 1687 134 1696 c 128,-1,22
 109 1705 109 1705 90.5 1722.5 c 128,-1,23
 72 1740 72 1740 61 1764.5 c 128,-1,24
 50 1789 50 1789 50 1820 c 0,25,26
 50 1853 50 1853 63.5 1881.5 c 128,-1,27
 77 1910 77 1910 99.5 1930.5 c 128,-1,28
 122 1951 122 1951 150.5 1963 c 128,-1,29
 179 1975 179 1975 209 1975 c 0,30,31
 244 1975 244 1975 270 1964.5 c 128,-1,32
 296 1954 296 1954 313 1936 c 128,-1,33
 330 1918 330 1918 338.5 1893.5 c 128,-1,34
 347 1869 347 1869 347 1841 c 0,35,36
 347 1806 347 1806 334 1778 c 128,-1,37
 321 1750 321 1750 298.5 1729.5 c 128,-1,38
 276 1709 276 1709 247 1698 c 128,-1,39
 218 1687 218 1687 187 1687 c 0,20,21
EndSplineSet
EndChar

StartChar: commaaccent
Encoding: 63171 63171 151
Width: 358
Flags: W
LayerCount: 2
Fore
SplineSet
198 -82 m 1,0,1
 216 -91 216 -91 233.5 -109.5 c 128,-1,2
 251 -128 251 -128 264.5 -155 c 128,-1,3
 278 -182 278 -182 286.5 -217 c 128,-1,4
 295 -252 295 -252 295 -294 c 0,5,6
 295 -346 295 -346 280 -390 c 128,-1,7
 265 -434 265 -434 242.5 -468.5 c 128,-1,8
 220 -503 220 -503 193 -526.5 c 128,-1,9
 166 -550 166 -550 143 -560 c 1,10,-1
 68 -519 l 1,11,-1
 68 -493 l 1,12,13
 83 -475 83 -475 95 -435.5 c 128,-1,14
 107 -396 107 -396 107 -348 c 0,15,16
 107 -329 107 -329 102.5 -308.5 c 128,-1,17
 98 -288 98 -288 89 -270.5 c 128,-1,18
 80 -253 80 -253 67.5 -240 c 128,-1,19
 55 -227 55 -227 40 -224 c 1,20,-1
 40 -174 l 1,21,-1
 198 -82 l 1,0,1
EndSplineSet
EndChar

StartChar: circumflex.cap
Encoding: 65539 -1 152
Width: 815
Flags: W
LayerCount: 2
Fore
SplineSet
48 1674 m 1,0,-1
 307 1975 l 1,1,-1
 504 1975 l 1,2,-1
 766 1677 l 1,3,-1
 622 1617 l 1,4,-1
 406 1819 l 1,5,-1
 185 1617 l 1,6,-1
 48 1674 l 1,0,-1
EndSplineSet
EndChar

StartChar: caron.cap
Encoding: 65540 -1 153
Width: 759
Flags: W
LayerCount: 2
Fore
SplineSet
48 1940 m 1,0,-1
 176 2000 l 1,1,-1
 392 1826 l 1,2,-1
 613 2000 l 1,3,-1
 733 1943 l 1,4,-1
 491 1680 l 1,5,-1
 294 1680 l 1,6,-1
 48 1940 l 1,0,-1
EndSplineSet
EndChar

StartChar: breve.cap
Encoding: 65541 -1 154
Width: 781
Flags: W
LayerCount: 2
Fore
SplineSet
391 1642 m 0,0,1
 304 1642 304 1642 237.5 1672.5 c 128,-1,2
 171 1703 171 1703 127 1753 c 128,-1,3
 83 1803 83 1803 63 1867.5 c 128,-1,4
 43 1932 43 1932 49 2000 c 1,5,-1
 202 2000 l 1,6,7
 202 1994 202 1994 203 1978 c 128,-1,8
 204 1962 204 1962 209 1941.5 c 128,-1,9
 214 1921 214 1921 225.5 1898.5 c 128,-1,10
 237 1876 237 1876 258 1857.5 c 128,-1,11
 279 1839 279 1839 311 1827 c 128,-1,12
 343 1815 343 1815 391 1815 c 0,13,14
 438 1815 438 1815 471 1827 c 128,-1,15
 504 1839 504 1839 525.5 1857.5 c 128,-1,16
 547 1876 547 1876 558.5 1898.5 c 128,-1,17
 570 1921 570 1921 575.5 1941.5 c 128,-1,18
 581 1962 581 1962 582.5 1978 c 128,-1,19
 584 1994 584 1994 584 2000 c 1,20,-1
 733 2000 l 1,21,22
 739 1932 739 1932 717.5 1867.5 c 128,-1,23
 696 1803 696 1803 651 1753 c 128,-1,24
 606 1703 606 1703 539.5 1672.5 c 128,-1,25
 473 1642 473 1642 391 1642 c 0,0,1
EndSplineSet
EndChar

StartChar: ring.cap
Encoding: 65542 -1 155
Width: 731
Flags: W
LayerCount: 2
Fore
SplineSet
362 1455 m 0,0,1
 290 1455 290 1455 231 1475 c 128,-1,2
 172 1495 172 1495 130.5 1531.5 c 128,-1,3
 89 1568 89 1568 66.5 1619.5 c 128,-1,4
 44 1671 44 1671 45 1734 c 0,5,6
 46 1806 46 1806 74.5 1856.5 c 128,-1,7
 103 1907 103 1907 148 1939 c 128,-1,8
 193 1971 193 1971 249.5 1985.5 c 128,-1,9
 306 2000 306 2000 365 2000 c 0,10,11
 438 2000 438 2000 497.5 1982.5 c 128,-1,12
 557 1965 557 1965 599 1931 c 128,-1,13
 641 1897 641 1897 663.5 1847 c 128,-1,14
 686 1797 686 1797 686 1733 c 0,15,16
 685 1661 685 1661 658.5 1609 c 128,-1,17
 632 1557 632 1557 587.5 1522.5 c 128,-1,18
 543 1488 543 1488 484.5 1471.5 c 128,-1,19
 426 1455 426 1455 362 1455 c 0,0,1
363 1581 m 0,20,21
 400 1581 400 1581 431 1589.5 c 128,-1,22
 462 1598 462 1598 484.5 1616 c 128,-1,23
 507 1634 507 1634 519.5 1663 c 128,-1,24
 532 1692 532 1692 532 1732 c 0,25,26
 532 1767 532 1767 519 1793.5 c 128,-1,27
 506 1820 506 1820 483 1838.5 c 128,-1,28
 460 1857 460 1857 429.5 1866.5 c 128,-1,29
 399 1876 399 1876 363 1876 c 0,30,31
 333 1876 333 1876 304 1869.5 c 128,-1,32
 275 1863 275 1863 252 1846.5 c 128,-1,33
 229 1830 229 1830 215 1802.5 c 128,-1,34
 201 1775 201 1775 201 1734 c 0,35,36
 201 1667 201 1667 244.5 1625 c 128,-1,37
 288 1583 288 1583 363 1581 c 0,20,21
EndSplineSet
EndChar

StartChar: tilde.cap
Encoding: 65543 -1 156
Width: 927
Flags: W
LayerCount: 2
Fore
SplineSet
47 1771 m 1,0,1
 65 1814 65 1814 96 1849.5 c 128,-1,2
 127 1885 127 1885 165.5 1911 c 128,-1,3
 204 1937 204 1937 246.5 1951.5 c 128,-1,4
 289 1966 289 1966 329 1966 c 0,5,6
 388 1966 388 1966 426.5 1944.5 c 128,-1,7
 465 1923 465 1923 495.5 1896.5 c 128,-1,8
 526 1870 526 1870 554 1848.5 c 128,-1,9
 582 1827 582 1827 620 1827 c 0,10,11
 647 1827 647 1827 672 1836.5 c 128,-1,12
 697 1846 697 1846 719.5 1860 c 128,-1,13
 742 1874 742 1874 761 1891.5 c 128,-1,14
 780 1909 780 1909 795 1926 c 1,15,-1
 881 1855 l 1,16,17
 863 1812 863 1812 832 1776.5 c 128,-1,18
 801 1741 801 1741 762.5 1715.5 c 128,-1,19
 724 1690 724 1690 682 1675.5 c 128,-1,20
 640 1661 640 1661 600 1661 c 256,21,22
 560 1661 560 1661 530.5 1671.5 c 128,-1,23
 501 1682 501 1682 477 1698 c 128,-1,24
 453 1714 453 1714 433 1733 c 128,-1,25
 413 1752 413 1752 394 1768 c 128,-1,26
 375 1784 375 1784 354 1794.5 c 128,-1,27
 333 1805 333 1805 307 1805 c 0,28,29
 280 1805 280 1805 255 1795.5 c 128,-1,30
 230 1786 230 1786 208 1771 c 128,-1,31
 186 1756 186 1756 166.5 1738 c 128,-1,32
 147 1720 147 1720 132 1703 c 1,33,-1
 47 1771 l 1,0,1
EndSplineSet
EndChar

StartChar: hungarumlaut.cap
Encoding: 65544 -1 157
Width: 962
Flags: W
LayerCount: 2
Fore
SplineSet
56 1710 m 1,0,1
 58 1712 58 1712 73.5 1733 c 128,-1,2
 89 1754 89 1754 111.5 1785.5 c 128,-1,3
 134 1817 134 1817 160 1853 c 128,-1,4
 186 1889 186 1889 208.5 1920.5 c 128,-1,5
 231 1952 231 1952 246.5 1974.5 c 128,-1,6
 262 1997 262 1997 263 2000 c 1,7,-1
 435 1913 l 1,8,9
 405 1871 405 1871 371.5 1830 c 128,-1,10
 338 1789 338 1789 305 1752.5 c 128,-1,11
 272 1716 272 1716 240 1687 c 128,-1,12
 208 1658 208 1658 180 1641 c 1,13,-1
 56 1710 l 1,0,1
524 1710 m 1,14,15
 526 1712 526 1712 542.5 1732.5 c 128,-1,16
 559 1753 559 1753 582.5 1783.5 c 128,-1,17
 606 1814 606 1814 633 1849 c 128,-1,18
 660 1884 660 1884 683.5 1915 c 128,-1,19
 707 1946 707 1946 723 1967.5 c 128,-1,20
 739 1989 739 1989 740 1992 c 1,21,-1
 903 1904 l 1,22,23
 876 1866 876 1866 844 1826.5 c 128,-1,24
 812 1787 812 1787 778.5 1751.5 c 128,-1,25
 745 1716 745 1716 711.5 1687 c 128,-1,26
 678 1658 678 1658 649 1641 c 1,27,-1
 524 1710 l 1,14,15
EndSplineSet
EndChar

StartChar: percent
Encoding: 37 37 158
Width: 1962
Flags: W
LayerCount: 2
Fore
SplineSet
1207 1530 m 1,0,-1
 1397 1530 l 1,1,-1
 747 0 l 1,2,-1
 557 0 l 1,3,-1
 1207 1530 l 1,0,-1
429 665 m 0,4,5
 345 663 345 663 279 696 c 128,-1,6
 213 729 213 729 167.5 785.5 c 128,-1,7
 122 842 122 842 98.5 917 c 128,-1,8
 75 992 75 992 75 1075 c 0,9,10
 75 1175 75 1175 106.5 1252.5 c 128,-1,11
 138 1330 138 1330 191.5 1383.5 c 128,-1,12
 245 1437 245 1437 314 1465.5 c 128,-1,13
 383 1494 383 1494 458 1496 c 0,14,15
 551 1498 551 1498 617.5 1466.5 c 128,-1,16
 684 1435 684 1435 727.5 1378.5 c 128,-1,17
 771 1322 771 1322 791.5 1246 c 128,-1,18
 812 1170 812 1170 812 1083 c 0,19,20
 812 983 812 983 780.5 906 c 128,-1,21
 749 829 749 829 695.5 776 c 128,-1,22
 642 723 642 723 573 695 c 128,-1,23
 504 667 504 667 429 665 c 0,4,5
442 812 m 0,24,25
 527 812 527 812 572 882 c 128,-1,26
 617 952 617 952 617 1076 c 0,27,28
 617 1138 617 1138 605.5 1188.5 c 128,-1,29
 594 1239 594 1239 572 1275 c 128,-1,30
 550 1311 550 1311 518 1330.5 c 128,-1,31
 486 1350 486 1350 446 1350 c 0,32,33
 361 1350 361 1350 315.5 1278 c 128,-1,34
 270 1206 270 1206 270 1083 c 0,35,36
 270 1025 270 1025 281.5 975.5 c 128,-1,37
 293 926 293 926 315 889.5 c 128,-1,38
 337 853 337 853 369 832.5 c 128,-1,39
 401 812 401 812 442 812 c 0,24,25
1150 460 m 0,40,41
 1150 560 1150 560 1181.5 637.5 c 128,-1,42
 1213 715 1213 715 1266.5 768.5 c 128,-1,43
 1320 822 1320 822 1389.5 850.5 c 128,-1,44
 1459 879 1459 879 1534 881 c 0,45,46
 1626 883 1626 883 1693 851.5 c 128,-1,47
 1760 820 1760 820 1803 763.5 c 128,-1,48
 1846 707 1846 707 1866.5 631 c 128,-1,49
 1887 555 1887 555 1887 468 c 0,50,51
 1887 368 1887 368 1855.5 291 c 128,-1,52
 1824 214 1824 214 1770.5 161.5 c 128,-1,53
 1717 109 1717 109 1648 81 c 128,-1,54
 1579 53 1579 53 1504 51 c 0,55,56
 1420 49 1420 49 1354 81.5 c 128,-1,57
 1288 114 1288 114 1243 170.5 c 128,-1,58
 1198 227 1198 227 1174 302 c 128,-1,59
 1150 377 1150 377 1150 460 c 0,40,41
1346 468 m 0,60,61
 1346 410 1346 410 1357.5 360.5 c 128,-1,62
 1369 311 1369 311 1390.5 274.5 c 128,-1,63
 1412 238 1412 238 1444 217.5 c 128,-1,64
 1476 197 1476 197 1517 197 c 0,65,66
 1602 197 1602 197 1647 267 c 128,-1,67
 1692 337 1692 337 1692 461 c 0,68,69
 1692 523 1692 523 1680.5 573.5 c 128,-1,70
 1669 624 1669 624 1647.5 660 c 128,-1,71
 1626 696 1626 696 1594 716 c 128,-1,72
 1562 736 1562 736 1521 736 c 0,73,74
 1436 736 1436 736 1391 664 c 128,-1,75
 1346 592 1346 592 1346 468 c 0,60,61
EndSplineSet
Ligature2: "'frac' Diagonal Fractions in Latin lookup 10 subtable" zero slash zero
EndChar

StartChar: oslash
Encoding: 248 248 159
Width: 1213
Flags: W
LayerCount: 2
Fore
SplineSet
357 37 m 1,0,1
 286 73 286 73 236 131 c 128,-1,2
 186 189 186 189 154.5 261.5 c 128,-1,3
 123 334 123 334 109 419 c 128,-1,4
 95 504 95 504 96 594 c 0,5,6
 98 731 98 731 138 836 c 128,-1,7
 178 941 178 941 248 1012 c 128,-1,8
 318 1083 318 1083 412 1119.5 c 128,-1,9
 506 1156 506 1156 616 1156 c 0,10,11
 648 1156 648 1156 677 1153 c 128,-1,12
 706 1150 706 1150 733 1145 c 1,13,-1
 800 1342 l 1,14,-1
 925 1306 l 1,15,-1
 856 1103 l 1,16,17
 926 1067 926 1067 976.5 1009 c 128,-1,18
 1027 951 1027 951 1058.5 878.5 c 128,-1,19
 1090 806 1090 806 1104 721 c 128,-1,20
 1118 636 1118 636 1117 546 c 0,21,22
 1115 409 1115 409 1074.5 304 c 128,-1,23
 1034 199 1034 199 964.5 128 c 128,-1,24
 895 57 895 57 800.5 20.5 c 128,-1,25
 706 -16 706 -16 596 -16 c 0,26,27
 564 -16 564 -16 535.5 -13 c 128,-1,28
 507 -10 507 -10 480 -5 c 1,29,-1
 414 -200 l 1,30,-1
 289 -164 l 1,31,-1
 357 37 l 1,0,1
680 988 m 1,32,33
 649 996 649 996 611 998 c 1,34,35
 467 1001 467 1001 393 894.5 c 128,-1,36
 319 788 319 788 319 591 c 0,37,38
 319 479 319 479 344 384 c 128,-1,39
 369 289 369 289 421 226 c 1,40,-1
 680 988 l 1,32,33
533 151 m 1,41,42
 566 140 566 140 602 140 c 0,43,44
 674 138 674 138 729 166 c 128,-1,45
 784 194 784 194 820.5 247.5 c 128,-1,46
 857 301 857 301 875.5 379 c 128,-1,47
 894 457 894 457 894 556 c 0,48,49
 894 667 894 667 869 761 c 128,-1,50
 844 855 844 855 792 915 c 1,51,-1
 533 151 l 1,41,42
EndSplineSet
EndChar

StartChar: aogonek
Encoding: 261 261 160
Width: 1131
Flags: W
LayerCount: 2
Fore
SplineSet
94 305 m 0,0,1
 94 416 94 416 154 494 c 128,-1,2
 214 572 214 572 316 614 c 0,3,4
 365 634 365 634 421 648 c 128,-1,5
 477 662 477 662 534 671 c 128,-1,6
 591 680 591 680 646.5 684 c 128,-1,7
 702 688 702 688 750 688 c 1,8,-1
 750 803 l 2,9,10
 750 864 750 864 736.5 901 c 128,-1,11
 723 938 723 938 695 958 c 128,-1,12
 667 978 667 978 625.5 984.5 c 128,-1,13
 584 991 584 991 527 991 c 0,14,15
 487 991 487 991 439.5 983 c 128,-1,16
 392 975 392 975 346.5 963 c 128,-1,17
 301 951 301 951 263 936.5 c 128,-1,18
 225 922 225 922 204 908 c 1,19,-1
 150 1052 l 1,20,21
 166 1062 166 1062 210 1079.5 c 128,-1,22
 254 1097 254 1097 314 1114 c 128,-1,23
 374 1131 374 1131 444.5 1144 c 128,-1,24
 515 1157 515 1157 584 1157 c 0,25,26
 670 1157 670 1157 741 1142.5 c 128,-1,27
 812 1128 812 1128 863 1088 c 128,-1,28
 914 1048 914 1048 942 977 c 128,-1,29
 970 906 970 906 970 794 c 2,30,-1
 970 -16 l 1,31,-1
 955 -16 l 1,32,33
 917 -40 917 -40 884 -68 c 128,-1,34
 851 -96 851 -96 826.5 -126.5 c 128,-1,35
 802 -157 802 -157 788 -190.5 c 128,-1,36
 774 -224 774 -224 775 -259 c 0,37,38
 776 -291 776 -291 786 -311.5 c 128,-1,39
 796 -332 796 -332 813.5 -343.5 c 128,-1,40
 831 -355 831 -355 854 -359.5 c 128,-1,41
 877 -364 877 -364 903 -364 c 0,42,43
 937 -364 937 -364 973 -356 c 128,-1,44
 1009 -348 1009 -348 1042 -335 c 1,45,-1
 1042 -453 l 1,46,47
 1021 -469 1021 -469 993 -480.5 c 128,-1,48
 965 -492 965 -492 933.5 -499 c 128,-1,49
 902 -506 902 -506 869 -509 c 128,-1,50
 836 -512 836 -512 805 -512 c 0,51,52
 752 -512 752 -512 707.5 -498.5 c 128,-1,53
 663 -485 663 -485 630 -458.5 c 128,-1,54
 597 -432 597 -432 578 -392.5 c 128,-1,55
 559 -353 559 -353 559 -302 c 1,56,57
 558 -258 558 -258 578 -214 c 128,-1,58
 598 -170 598 -170 631 -130.5 c 128,-1,59
 664 -91 664 -91 706.5 -57.5 c 128,-1,60
 749 -24 749 -24 793 -1 c 1,61,62
 778 9 778 9 770.5 29.5 c 128,-1,63
 763 50 763 50 763 88 c 2,64,-1
 763 96 l 1,65,66
 740 75 740 75 706 55 c 128,-1,67
 672 35 672 35 630.5 19 c 128,-1,68
 589 3 589 3 541.5 -6.5 c 128,-1,69
 494 -16 494 -16 443 -16 c 0,70,71
 367 -16 367 -16 303 6 c 128,-1,72
 239 28 239 28 192.5 69.5 c 128,-1,73
 146 111 146 111 120 170.5 c 128,-1,74
 94 230 94 230 94 305 c 0,0,1
311 324 m 0,75,76
 311 148 311 148 508 148 c 0,77,78
 546 148 546 148 585.5 157 c 128,-1,79
 625 166 625 166 658.5 178.5 c 128,-1,80
 692 191 692 191 716.5 205 c 128,-1,81
 741 219 741 219 750 229 c 1,82,-1
 750 548 l 1,83,84
 719 548 719 548 678 545 c 128,-1,85
 637 542 637 542 594 535 c 128,-1,86
 551 528 551 528 510 518 c 128,-1,87
 469 508 469 508 438 493 c 0,88,89
 410 480 410 480 387 464.5 c 128,-1,90
 364 449 364 449 347 428.5 c 128,-1,91
 330 408 330 408 320.5 382.5 c 128,-1,92
 311 357 311 357 311 324 c 0,75,76
EndSplineSet
EndChar

StartChar: Thorn
Encoding: 222 222 161
Width: 1262
Flags: W
LayerCount: 2
Fore
SplineSet
194 1522 m 1,0,-1
 417 1522 l 1,1,-1
 417 1247 l 1,2,3
 470 1251 470 1251 528.5 1255 c 128,-1,4
 587 1259 587 1259 650 1259 c 0,5,6
 909 1259 909 1259 1045.5 1145 c 128,-1,7
 1182 1031 1182 1031 1182 793 c 0,8,9
 1182 673 1182 673 1144.5 578.5 c 128,-1,10
 1107 484 1107 484 1033.5 418.5 c 128,-1,11
 960 353 960 353 851.5 319 c 128,-1,12
 743 285 743 285 601 285 c 0,13,14
 536 285 536 285 491 287.5 c 128,-1,15
 446 290 446 290 417 292 c 1,16,-1
 417 0 l 1,17,-1
 194 0 l 1,18,-1
 194 1522 l 1,0,-1
417 455 m 1,19,20
 462 449 462 449 501.5 448 c 128,-1,21
 541 447 541 447 579 447 c 0,22,23
 654 447 654 447 723 459.5 c 128,-1,24
 792 472 792 472 844.5 509 c 128,-1,25
 897 546 897 546 928.5 613.5 c 128,-1,26
 960 681 960 681 960 790 c 0,27,28
 960 956 960 956 865 1030.5 c 128,-1,29
 770 1105 770 1105 576 1099 c 0,30,31
 536 1097 536 1097 495.5 1093.5 c 128,-1,32
 455 1090 455 1090 417 1082 c 1,33,-1
 417 455 l 1,19,20
EndSplineSet
EndChar

StartChar: ordfeminine
Encoding: 170 170 162
Width: 1034
Flags: W
LayerCount: 2
Fore
SplineSet
431 677 m 0,0,1
 363 677 363 677 307 693 c 128,-1,2
 251 709 251 709 211 740.5 c 128,-1,3
 171 772 171 772 148.5 818.5 c 128,-1,4
 126 865 126 865 126 925 c 0,5,6
 126 976 126 976 139 1015.5 c 128,-1,7
 152 1055 152 1055 176 1085.5 c 128,-1,8
 200 1116 200 1116 233 1138 c 128,-1,9
 266 1160 266 1160 306 1176 c 1,10,11
 350 1192 350 1192 398 1203 c 128,-1,12
 446 1214 446 1214 494.5 1220.5 c 128,-1,13
 543 1227 543 1227 589.5 1229.5 c 128,-1,14
 636 1232 636 1232 678 1232 c 1,15,-1
 678 1296 l 2,16,17
 678 1347 678 1347 665.5 1376.5 c 128,-1,18
 653 1406 653 1406 628.5 1421 c 128,-1,19
 604 1436 604 1436 568 1440 c 128,-1,20
 532 1444 532 1444 485 1444 c 0,21,22
 452 1444 452 1444 410.5 1435.5 c 128,-1,23
 369 1427 369 1427 329.5 1415 c 128,-1,24
 290 1403 290 1403 257 1389 c 128,-1,25
 224 1375 224 1375 208 1364 c 1,26,-1
 152 1485 l 1,27,28
 166 1498 166 1498 205 1517.5 c 128,-1,29
 244 1537 244 1537 296.5 1555 c 128,-1,30
 349 1573 349 1573 410 1586 c 128,-1,31
 471 1599 471 1599 529 1599 c 0,32,33
 609 1599 609 1599 673 1584.5 c 128,-1,34
 737 1570 737 1570 782 1535.5 c 128,-1,35
 827 1501 827 1501 851.5 1444 c 128,-1,36
 876 1387 876 1387 876 1302 c 2,37,-1
 876 687 l 1,38,-1
 805 687 l 2,39,40
 778 687 778 687 756.5 687.5 c 128,-1,41
 735 688 735 688 720 694 c 128,-1,42
 705 700 705 700 697 715 c 128,-1,43
 689 730 689 730 689 759 c 2,44,-1
 689 773 l 1,45,46
 672 755 672 755 645.5 738 c 128,-1,47
 619 721 619 721 586 707.5 c 128,-1,48
 553 694 553 694 513.5 685.5 c 128,-1,49
 474 677 474 677 431 677 c 0,0,1
467 824 m 0,50,51
 504 824 504 824 538.5 831.5 c 128,-1,52
 573 839 573 839 601.5 849 c 128,-1,53
 630 859 630 859 649.5 870 c 128,-1,54
 669 881 669 881 677 888 c 1,55,-1
 678 887 l 1,56,-1
 678 1110 l 1,57,58
 642 1110 642 1110 605.5 1109.5 c 128,-1,59
 569 1109 569 1109 534.5 1106 c 128,-1,60
 500 1103 500 1103 467.5 1096 c 128,-1,61
 435 1089 435 1089 408 1076 c 0,62,63
 363 1054 363 1054 341.5 1023.5 c 128,-1,64
 320 993 320 993 320 939 c 0,65,66
 320 909 320 909 331.5 887.5 c 128,-1,67
 343 866 343 866 363 852 c 128,-1,68
 383 838 383 838 409.5 831 c 128,-1,69
 436 824 436 824 467 824 c 0,50,51
EndSplineSet
EndChar

StartChar: ordmasculine
Encoding: 186 186 163
Width: 1033
Flags: W
LayerCount: 2
Fore
SplineSet
511 677 m 0,0,1
 415 677 415 677 340.5 710.5 c 128,-1,2
 266 744 266 744 214.5 806 c 128,-1,3
 163 868 163 868 136.5 955.5 c 128,-1,4
 110 1043 110 1043 111 1151 c 0,5,6
 113 1274 113 1274 152 1359 c 128,-1,7
 191 1444 191 1444 251.5 1497.5 c 128,-1,8
 312 1551 312 1551 386.5 1575 c 128,-1,9
 461 1599 461 1599 533 1599 c 0,10,11
 628 1599 628 1599 701.5 1565 c 128,-1,12
 775 1531 775 1531 824.5 1469 c 128,-1,13
 874 1407 874 1407 898.5 1321 c 128,-1,14
 923 1235 923 1235 922 1131 c 0,15,16
 920 1008 920 1008 884 921.5 c 128,-1,17
 848 835 848 835 790.5 781 c 128,-1,18
 733 727 733 727 660 702 c 128,-1,19
 587 677 587 677 511 677 c 0,0,1
522 825 m 0,20,21
 569 826 569 826 605 843 c 128,-1,22
 641 860 641 860 665 896.5 c 128,-1,23
 689 933 689 933 701.5 990.5 c 128,-1,24
 714 1048 714 1048 714 1129 c 0,25,26
 714 1204 714 1204 701.5 1264.5 c 128,-1,27
 689 1325 689 1325 665 1367 c 128,-1,28
 641 1409 641 1409 605 1431 c 128,-1,29
 569 1453 569 1453 522 1452 c 0,30,31
 478 1451 478 1451 441 1434.5 c 128,-1,32
 404 1418 404 1418 377 1382.5 c 128,-1,33
 350 1347 350 1347 334.5 1290 c 128,-1,34
 319 1233 319 1233 319 1151 c 0,35,36
 319 1076 319 1076 333 1015.5 c 128,-1,37
 347 955 347 955 373 912.5 c 128,-1,38
 399 870 399 870 436.5 847 c 128,-1,39
 474 824 474 824 522 825 c 0,20,21
EndSplineSet
EndChar

StartChar: section
Encoding: 167 167 164
Width: 1358
Flags: W
LayerCount: 2
Fore
SplineSet
267 66 m 1,0,1
 287 51 287 51 323 34.5 c 128,-1,2
 359 18 359 18 407.5 3.5 c 128,-1,3
 456 -11 456 -11 516 -20 c 128,-1,4
 576 -29 576 -29 645 -29 c 0,5,6
 701 -29 701 -29 753 -20.5 c 128,-1,7
 805 -12 805 -12 845 7 c 128,-1,8
 885 26 885 26 909 56 c 128,-1,9
 933 86 933 86 933 130 c 0,10,11
 933 178 933 178 902 214 c 128,-1,12
 871 250 871 250 820.5 280 c 128,-1,13
 770 310 770 310 705.5 337 c 128,-1,14
 641 364 641 364 574 392.5 c 128,-1,15
 507 421 507 421 442.5 454.5 c 128,-1,16
 378 488 378 488 327.5 532 c 128,-1,17
 277 576 277 576 246 633.5 c 128,-1,18
 215 691 215 691 215 767 c 0,19,20
 215 857 215 857 253.5 935.5 c 128,-1,21
 292 1014 292 1014 354 1076 c 1,22,23
 297 1124 297 1124 261.5 1185 c 128,-1,24
 226 1246 226 1246 226 1332 c 0,25,26
 226 1399 226 1399 246 1450 c 128,-1,27
 266 1501 266 1501 300.5 1539 c 128,-1,28
 335 1577 335 1577 381 1602.5 c 128,-1,29
 427 1628 427 1628 479 1644 c 128,-1,30
 531 1660 531 1660 585 1666.5 c 128,-1,31
 639 1673 639 1673 691 1673 c 0,32,33
 761 1673 761 1673 819 1666.5 c 128,-1,34
 877 1660 877 1660 922.5 1649.5 c 128,-1,35
 968 1639 968 1639 1001.5 1626 c 128,-1,36
 1035 1613 1035 1613 1057 1600 c 1,37,-1
 1015 1434 l 1,38,39
 998 1446 998 1446 970 1459 c 128,-1,40
 942 1472 942 1472 901.5 1483.5 c 128,-1,41
 861 1495 861 1495 807.5 1502 c 128,-1,42
 754 1509 754 1509 687 1509 c 0,43,44
 636 1509 636 1509 589 1500.5 c 128,-1,45
 542 1492 542 1492 505.5 1473.5 c 128,-1,46
 469 1455 469 1455 447.5 1426 c 128,-1,47
 426 1397 426 1397 426 1356 c 0,48,49
 426 1303 426 1303 457 1261.5 c 128,-1,50
 488 1220 488 1220 538.5 1185 c 128,-1,51
 589 1150 589 1150 653.5 1119 c 128,-1,52
 718 1088 718 1088 785 1055 c 128,-1,53
 852 1022 852 1022 916.5 984.5 c 128,-1,54
 981 947 981 947 1031.5 899.5 c 128,-1,55
 1082 852 1082 852 1113 792 c 128,-1,56
 1144 732 1144 732 1144 653 c 0,57,58
 1144 572 1144 572 1113 499 c 128,-1,59
 1082 426 1082 426 1031 366 c 1,60,61
 1077 326 1077 326 1104.5 273.5 c 128,-1,62
 1132 221 1132 221 1132 150 c 0,63,64
 1132 84 1132 84 1111 32.5 c 128,-1,65
 1090 -19 1090 -19 1053.5 -57 c 128,-1,66
 1017 -95 1017 -95 969 -121 c 128,-1,67
 921 -147 921 -147 866.5 -163 c 128,-1,68
 812 -179 812 -179 754 -186 c 128,-1,69
 696 -193 696 -193 641 -193 c 0,70,71
 571 -193 571 -193 506 -184.5 c 128,-1,72
 441 -176 441 -176 386 -162.5 c 128,-1,73
 331 -149 331 -149 289.5 -132.5 c 128,-1,74
 248 -116 248 -116 225 -100 c 1,75,-1
 267 66 l 1,0,1
416 803 m 0,76,77
 416 753 416 753 437.5 714.5 c 128,-1,78
 459 676 459 676 496 645.5 c 128,-1,79
 533 615 533 615 581.5 590.5 c 128,-1,80
 630 566 630 566 684 543 c 128,-1,81
 738 520 738 520 794.5 497.5 c 128,-1,82
 851 475 851 475 903 449 c 1,83,84
 920 491 920 491 932.5 535.5 c 128,-1,85
 945 580 945 580 945 617 c 0,86,87
 945 668 945 668 924.5 708 c 128,-1,88
 904 748 904 748 868.5 781 c 128,-1,89
 833 814 833 814 786.5 841.5 c 128,-1,90
 740 869 740 869 687.5 894.5 c 128,-1,91
 635 920 635 920 579.5 945 c 128,-1,92
 524 970 524 970 472 998 c 1,93,94
 450 953 450 953 433 900.5 c 128,-1,95
 416 848 416 848 416 803 c 0,76,77
EndSplineSet
EndChar

StartChar: acute.cap
Encoding: 65545 -1 165
Width: 597
Flags: W
LayerCount: 2
Fore
SplineSet
58 1685 m 1,0,1
 60 1686 60 1686 85.5 1709.5 c 128,-1,2
 111 1733 111 1733 149 1766.5 c 128,-1,3
 187 1800 187 1800 230.5 1839.5 c 128,-1,4
 274 1879 274 1879 311.5 1913.5 c 128,-1,5
 349 1948 349 1948 374.5 1972.5 c 128,-1,6
 400 1997 400 1997 401 2000 c 1,7,-1
 547 1867 l 1,8,9
 512 1831 512 1831 462 1789.5 c 128,-1,10
 412 1748 412 1748 357 1709.5 c 128,-1,11
 302 1671 302 1671 248 1639.5 c 128,-1,12
 194 1608 194 1608 151 1593 c 1,13,-1
 58 1685 l 1,0,1
EndSplineSet
EndChar

StartChar: AE
Encoding: 198 198 166
Width: 1860
Flags: W
LayerCount: 2
Fore
SplineSet
652 1522 m 1,0,-1
 1713 1522 l 1,1,-1
 1713 1350 l 1,2,-1
 1060 1350 l 1,3,-1
 1060 870 l 1,4,-1
 1539 870 l 1,5,-1
 1539 698 l 1,6,-1
 1060 698 l 1,7,-1
 1060 175 l 1,8,-1
 1786 175 l 1,9,-1
 1786 0 l 1,10,-1
 837 0 l 1,11,-1
 837 385 l 1,12,-1
 345 385 l 1,13,-1
 173 0 l 1,14,-1
 -73 0 l 1,15,-1
 652 1522 l 1,0,-1
837 551 m 1,16,-1
 837 1376 l 1,17,-1
 790 1376 l 1,18,-1
 420 551 l 1,19,-1
 837 551 l 1,16,-1
EndSplineSet
EndChar

StartChar: dollar
Encoding: 36 36 167
Width: 1372
Flags: W
LayerCount: 2
Fore
SplineSet
288 254 m 1,0,1
 316 237 316 237 356 220 c 128,-1,2
 396 203 396 203 443.5 190 c 128,-1,3
 491 177 491 177 543 169 c 128,-1,4
 595 161 595 161 647 161 c 0,5,6
 719 161 719 161 775 173 c 128,-1,7
 831 185 831 185 870 210.5 c 128,-1,8
 909 236 909 236 929.5 276 c 128,-1,9
 950 316 950 316 950 372 c 256,10,11
 950 428 950 428 927.5 470 c 128,-1,12
 905 512 905 512 862 547.5 c 128,-1,13
 819 583 819 583 756 616.5 c 128,-1,14
 693 650 693 650 613 689 c 0,15,16
 542 723 542 723 473.5 768 c 128,-1,17
 405 813 405 813 351.5 870 c 128,-1,18
 298 927 298 927 265 995.5 c 128,-1,19
 232 1064 232 1064 232 1147 c 0,20,21
 232 1241 232 1241 265 1309 c 128,-1,22
 298 1377 298 1377 353.5 1423.5 c 128,-1,23
 409 1470 409 1470 481.5 1496 c 128,-1,24
 554 1522 554 1522 633 1531 c 1,25,-1
 635 1762 l 1,26,-1
 798 1762 l 1,27,-1
 796 1536 l 1,28,29
 853 1533 853 1533 899.5 1525 c 128,-1,30
 946 1517 946 1517 983 1506 c 128,-1,31
 1020 1495 1020 1495 1047 1482.5 c 128,-1,32
 1074 1470 1074 1470 1092 1459 c 1,33,-1
 1047 1283 l 1,34,35
 1021 1299 1021 1299 992 1313.5 c 128,-1,36
 963 1328 963 1328 926.5 1339 c 128,-1,37
 890 1350 890 1350 843 1356.5 c 128,-1,38
 796 1363 796 1363 735 1363 c 0,39,40
 681 1363 681 1363 629 1352.5 c 128,-1,41
 577 1342 577 1342 536 1319.5 c 128,-1,42
 495 1297 495 1297 470 1261.5 c 128,-1,43
 445 1226 445 1226 445 1177 c 0,44,45
 445 1121 445 1121 461.5 1080.5 c 128,-1,46
 478 1040 478 1040 514.5 1005.5 c 128,-1,47
 551 971 551 971 608.5 937.5 c 128,-1,48
 666 904 666 904 748 862 c 0,49,50
 797 837 797 837 847 809 c 128,-1,51
 897 781 897 781 944 749.5 c 128,-1,52
 991 718 991 718 1032 681.5 c 128,-1,53
 1073 645 1073 645 1103.5 601.5 c 128,-1,54
 1134 558 1134 558 1151.5 507.5 c 128,-1,55
 1169 457 1169 457 1169 398 c 0,56,57
 1169 304 1169 304 1139 232 c 128,-1,58
 1109 160 1109 160 1055 109 c 128,-1,59
 1001 58 1001 58 925 28.5 c 128,-1,60
 849 -1 849 -1 757 -11 c 1,61,-1
 755 -237 l 1,62,-1
 592 -237 l 1,63,-1
 594 -14 l 1,64,65
 530 -10 530 -10 472.5 -0.5 c 128,-1,66
 415 9 415 9 368.5 21 c 128,-1,67
 322 33 322 33 287.5 46 c 128,-1,68
 253 59 253 59 235 71 c 1,69,-1
 288 254 l 1,0,1
EndSplineSet
EndChar

StartChar: Oslash
Encoding: 216 216 168
Width: 1569
Flags: W
LayerCount: 2
Fore
SplineSet
459 55 m 1,0,1
 372 101 372 101 304.5 172 c 128,-1,2
 237 243 237 243 190.5 335.5 c 128,-1,3
 144 428 144 428 120.5 538 c 128,-1,4
 97 648 97 648 100 772 c 0,5,6
 104 962 104 962 160.5 1105.5 c 128,-1,7
 217 1249 217 1249 313 1345 c 128,-1,8
 409 1441 409 1441 536 1489.5 c 128,-1,9
 663 1538 663 1538 808 1538 c 0,10,11
 855 1538 855 1538 899 1532.5 c 128,-1,12
 943 1527 943 1527 985 1516 c 1,13,-1
 1065 1738 l 1,14,-1
 1190 1702 l 1,15,-1
 1107 1471 l 1,16,17
 1193 1428 1193 1428 1261.5 1360 c 128,-1,18
 1330 1292 1330 1292 1376.5 1201.5 c 128,-1,19
 1423 1111 1423 1111 1447 1000 c 128,-1,20
 1471 889 1471 889 1469 761 c 0,21,22
 1465 571 1465 571 1411.5 427 c 128,-1,23
 1358 283 1358 283 1265.5 185.5 c 128,-1,24
 1173 88 1173 88 1048.5 37.5 c 128,-1,25
 924 -13 924 -13 778 -16 c 0,26,27
 671 -18 671 -18 580 8 c 1,28,-1
 505 -200 l 1,29,-1
 380 -164 l 1,30,-1
 459 55 l 1,0,1
925 1349 m 1,31,32
 896 1358 896 1358 865 1363 c 128,-1,33
 834 1368 834 1368 801 1368 c 0,34,35
 705 1368 705 1368 618.5 1331.5 c 128,-1,36
 532 1295 532 1295 466.5 1219.5 c 128,-1,37
 401 1144 401 1144 363 1029 c 128,-1,38
 325 914 325 914 325 758 c 0,39,40
 325 680 325 680 337.5 605 c 128,-1,41
 350 530 350 530 375.5 463.5 c 128,-1,42
 401 397 401 397 439 341 c 128,-1,43
 477 285 477 285 527 244 c 1,44,-1
 925 1349 l 1,31,32
641 179 m 1,45,46
 707 155 707 155 785 155 c 0,47,48
 889 155 889 155 973.5 195 c 128,-1,49
 1058 235 1058 235 1118 313 c 128,-1,50
 1178 391 1178 391 1210.5 506 c 128,-1,51
 1243 621 1243 621 1243 772 c 0,52,53
 1243 853 1243 853 1230.5 928.5 c 128,-1,54
 1218 1004 1218 1004 1192.5 1071 c 128,-1,55
 1167 1138 1167 1138 1129 1193.5 c 128,-1,56
 1091 1249 1091 1249 1041 1288 c 1,57,-1
 641 179 l 1,45,46
EndSplineSet
EndChar

StartChar: Lslash
Encoding: 321 321 169
Width: 1080
Flags: W
LayerCount: 2
Fore
SplineSet
194 613 m 1,0,-1
 71 568 l 1,1,-1
 18 704 l 1,2,-1
 194 769 l 1,3,-1
 194 1522 l 1,4,-1
 422 1522 l 1,5,-1
 422 853 l 1,6,-1
 812 997 l 1,7,-1
 865 859 l 1,8,-1
 422 696 l 1,9,-1
 422 175 l 1,10,-1
 1026 175 l 1,11,-1
 1026 0 l 1,12,-1
 194 0 l 1,13,-1
 194 613 l 1,0,-1
EndSplineSet
EndChar

StartChar: Euro
Encoding: 8364 8364 170
Width: 1505
Flags: W
LayerCount: 2
Fore
SplineSet
114 654 m 1,0,-1
 307 654 l 1,1,2
 306 670 306 670 306 686.5 c 128,-1,3
 306 703 306 703 306 720 c 0,4,5
 306 763 306 763 308.5 803.5 c 128,-1,6
 311 844 311 844 316 883 c 1,7,-1
 146 883 l 1,8,-1
 146 1026 l 1,9,-1
 343 1026 l 1,10,11
 374 1145 374 1145 431 1238 c 128,-1,12
 488 1331 488 1331 567.5 1396.5 c 128,-1,13
 647 1462 647 1462 747.5 1497.5 c 128,-1,14
 848 1533 848 1533 967 1538 c 0,15,16
 1047 1541 1047 1541 1103.5 1534.5 c 128,-1,17
 1160 1528 1160 1528 1202 1517.5 c 128,-1,18
 1244 1507 1244 1507 1276 1495.5 c 128,-1,19
 1308 1484 1308 1484 1339 1477 c 1,20,-1
 1286 1303 l 1,21,22
 1257 1319 1257 1319 1228.5 1331.5 c 128,-1,23
 1200 1344 1200 1344 1163 1352.5 c 128,-1,24
 1126 1361 1126 1361 1077.5 1366 c 128,-1,25
 1029 1371 1029 1371 961 1371 c 0,26,27
 889 1371 889 1371 827.5 1349 c 128,-1,28
 766 1327 766 1327 716 1283.5 c 128,-1,29
 666 1240 666 1240 629.5 1175.5 c 128,-1,30
 593 1111 593 1111 572 1026 c 1,31,-1
 1101 1026 l 1,32,-1
 1101 883 l 1,33,-1
 549 883 l 1,34,35
 547 859 547 859 546 834.5 c 128,-1,36
 545 810 545 810 545 784 c 0,37,38
 545 750 545 750 546 718 c 128,-1,39
 547 686 547 686 549 654 c 1,40,-1
 1067 654 l 1,41,-1
 1067 511 l 1,42,-1
 565 511 l 1,43,44
 580 428 580 428 608 358 c 128,-1,45
 636 288 636 288 682.5 238 c 128,-1,46
 729 188 729 188 796 160 c 128,-1,47
 863 132 863 132 955 132 c 0,48,49
 1009 132 1009 132 1061.5 139 c 128,-1,50
 1114 146 1114 146 1160 159 c 128,-1,51
 1206 172 1206 172 1245 188.5 c 128,-1,52
 1284 205 1284 205 1311 225 c 1,53,-1
 1371 60 l 1,54,55
 1349 56 1349 56 1328 48.5 c 128,-1,56
 1307 41 1307 41 1282 31 c 128,-1,57
 1257 21 1257 21 1226 10.5 c 128,-1,58
 1195 0 1195 0 1152.5 -8.5 c 128,-1,59
 1110 -17 1110 -17 1054.5 -22.5 c 128,-1,60
 999 -28 999 -28 926 -28 c 0,61,62
 798 -28 798 -28 696 10 c 128,-1,63
 594 48 594 48 518.5 118.5 c 128,-1,64
 443 189 443 189 394 288.5 c 128,-1,65
 345 388 345 388 323 511 c 1,66,-1
 114 511 l 1,67,-1
 114 654 l 1,0,-1
EndSplineSet
EndChar

StartChar: mu
Encoding: 181 181 171
Width: 1360
Flags: W
LayerCount: 2
Fore
SplineSet
415 -371 m 1,0,-1
 210 -371 l 1,1,-1
 210 1140 l 1,2,-1
 429 1140 l 1,3,-1
 429 399 l 2,4,5
 429 331 429 331 444 284.5 c 128,-1,6
 459 238 459 238 489.5 209.5 c 128,-1,7
 520 181 520 181 566.5 169 c 128,-1,8
 613 157 613 157 675 157 c 0,9,10
 705 157 705 157 735.5 165.5 c 128,-1,11
 766 174 766 174 794.5 187 c 128,-1,12
 823 200 823 200 848 215.5 c 128,-1,13
 873 231 873 231 893 245 c 1,14,-1
 893 1140 l 1,15,-1
 1113 1140 l 1,16,-1
 1113 234 l 2,17,18
 1113 211 1113 211 1115 196 c 128,-1,19
 1117 181 1117 181 1121.5 172.5 c 128,-1,20
 1126 164 1126 164 1132.5 161 c 128,-1,21
 1139 158 1139 158 1147 158 c 0,22,23
 1157 158 1157 158 1177 163 c 128,-1,24
 1197 168 1197 168 1225 185 c 1,25,-1
 1256 87 l 1,26,27
 1251 79 1251 79 1232 61.5 c 128,-1,28
 1213 44 1213 44 1184.5 26.5 c 128,-1,29
 1156 9 1156 9 1119.5 -4.5 c 128,-1,30
 1083 -18 1083 -18 1043 -18 c 0,31,32
 1016 -18 1016 -18 993 -11 c 128,-1,33
 970 -4 970 -4 954 12.5 c 128,-1,34
 938 29 938 29 929.5 55 c 128,-1,35
 921 81 921 81 923 120 c 1,36,37
 905 100 905 100 881.5 76.5 c 128,-1,38
 858 53 858 53 825.5 32.5 c 128,-1,39
 793 12 793 12 751 -2 c 128,-1,40
 709 -16 709 -16 655 -16 c 0,41,42
 560 -16 560 -16 494 6.5 c 128,-1,43
 428 29 428 29 383 88 c 1,44,-1
 415 -371 l 1,0,-1
EndSplineSet
EndChar

StartChar: eogonek
Encoding: 281 281 172
Width: 1123
Flags: W
LayerCount: 2
Fore
SplineSet
97 572 m 0,0,1
 97 696 97 696 129.5 802 c 128,-1,2
 162 908 162 908 226 986 c 128,-1,3
 290 1064 290 1064 385.5 1109 c 128,-1,4
 481 1154 481 1154 606 1156 c 0,5,6
 691 1157 691 1157 766 1130.5 c 128,-1,7
 841 1104 841 1104 897.5 1049.5 c 128,-1,8
 954 995 954 995 988.5 914 c 128,-1,9
 1023 833 1023 833 1026 726 c 1,10,11
 1026 661 1026 661 1024.5 610.5 c 128,-1,12
 1023 560 1023 560 1015 522 c 1,13,-1
 312 522 l 1,14,15
 312 517 312 517 312.5 512 c 128,-1,16
 313 507 313 507 313 502 c 0,17,18
 318 401 318 401 347 333.5 c 128,-1,19
 376 266 376 266 422.5 225.5 c 128,-1,20
 469 185 469 185 530 167.5 c 128,-1,21
 591 150 591 150 661 150 c 0,22,23
 689 150 689 150 729.5 155 c 128,-1,24
 770 160 770 160 810.5 168.5 c 128,-1,25
 851 177 851 177 887.5 188.5 c 128,-1,26
 924 200 924 200 945 212 c 1,27,-1
 987 86 l 1,28,-1
 971 74 l 1,29,-1
 972 74 l 1,30,31
 919 41 919 41 875 -2 c 128,-1,32
 831 -45 831 -45 799.5 -90 c 128,-1,33
 768 -135 768 -135 751 -179 c 128,-1,34
 734 -223 734 -223 735 -259 c 0,35,36
 736 -291 736 -291 746 -311.5 c 128,-1,37
 756 -332 756 -332 773.5 -343.5 c 128,-1,38
 791 -355 791 -355 814 -359.5 c 128,-1,39
 837 -364 837 -364 863 -364 c 0,40,41
 897 -364 897 -364 933 -356 c 128,-1,42
 969 -348 969 -348 1002 -335 c 1,43,-1
 1002 -453 l 1,44,45
 981 -469 981 -469 953 -480.5 c 128,-1,46
 925 -492 925 -492 893.5 -499 c 128,-1,47
 862 -506 862 -506 829 -509 c 128,-1,48
 796 -512 796 -512 765 -512 c 0,49,50
 712 -512 712 -512 667.5 -498.5 c 128,-1,51
 623 -485 623 -485 590 -458.5 c 128,-1,52
 557 -432 557 -432 538 -392.5 c 128,-1,53
 519 -353 519 -353 519 -302 c 1,54,55
 518 -266 518 -266 532.5 -225 c 128,-1,56
 547 -184 547 -184 573 -144 c 128,-1,57
 599 -104 599 -104 634.5 -68.5 c 128,-1,58
 670 -33 670 -33 712 -8 c 1,59,60
 683 -12 683 -12 655.5 -14 c 128,-1,61
 628 -16 628 -16 602 -16 c 0,62,63
 480 -16 480 -16 386 24 c 128,-1,64
 292 64 292 64 228 139.5 c 128,-1,65
 164 215 164 215 130.5 324 c 128,-1,66
 97 433 97 433 97 572 c 0,0,1
820 668 m 1,67,68
 824 729 824 729 817 788.5 c 128,-1,69
 810 848 810 848 785.5 895 c 128,-1,70
 761 942 761 942 715 971 c 128,-1,71
 669 1000 669 1000 594 1000 c 0,72,73
 543 1000 543 1000 497 982.5 c 128,-1,74
 451 965 451 965 414 926 c 128,-1,75
 377 887 377 887 352 823.5 c 128,-1,76
 327 760 327 760 317 668 c 1,77,-1
 820 668 l 1,67,68
EndSplineSet
EndChar

StartChar: thorn
Encoding: 254 254 173
Width: 1238
Flags: W
LayerCount: 2
Fore
SplineSet
372 20 m 1,0,-1
 386 -169 l 1,1,-1
 386 -507 l 1,2,-1
 166 -507 l 1,3,-1
 166 64 l 1,4,-1
 372 20 l 1,0,-1
166 1661 m 1,5,-1
 386 1661 l 1,6,-1
 386 1189 l 1,7,-1
 378 1030 l 1,8,9
 398 1050 398 1050 425.5 1072.5 c 128,-1,10
 453 1095 453 1095 490.5 1113.5 c 128,-1,11
 528 1132 528 1132 577.5 1144 c 128,-1,12
 627 1156 627 1156 691 1156 c 0,13,14
 781 1156 781 1156 862.5 1123 c 128,-1,15
 944 1090 944 1090 1006 1022.5 c 128,-1,16
 1068 955 1068 955 1104.5 853 c 128,-1,17
 1141 751 1141 751 1141 612 c 0,18,19
 1141 474 1141 474 1100 358 c 128,-1,20
 1059 242 1059 242 983.5 158.5 c 128,-1,21
 908 75 908 75 802 28.5 c 128,-1,22
 696 -18 696 -18 566 -18 c 0,23,24
 506 -18 506 -18 442.5 -9 c 128,-1,25
 379 0 379 0 322.5 12.5 c 128,-1,26
 266 25 266 25 224 39 c 128,-1,27
 182 53 182 53 166 64 c 1,28,-1
 166 1661 l 1,5,-1
386 184 m 1,29,30
 443 144 443 144 591 144 c 0,31,32
 660 144 660 144 719 172 c 128,-1,33
 778 200 778 200 821.5 255.5 c 128,-1,34
 865 311 865 311 890 393 c 128,-1,35
 915 475 915 475 917 582 c 0,36,37
 918 685 918 685 899.5 760.5 c 128,-1,38
 881 836 881 836 844.5 885.5 c 128,-1,39
 808 935 808 935 754 959 c 128,-1,40
 700 983 700 983 630 983 c 0,41,42
 589 983 589 983 552.5 974 c 128,-1,43
 516 965 516 965 485 951 c 128,-1,44
 454 937 454 937 429 920.5 c 128,-1,45
 404 904 404 904 386 890 c 1,46,-1
 386 184 l 1,29,30
EndSplineSet
EndChar

StartChar: lslash
Encoding: 322 322 174
Width: 613
Flags: W
LayerCount: 2
Fore
SplineSet
197 749 m 1,0,-1
 50 693 l 1,1,-1
 50 844 l 1,2,-1
 197 903 l 1,3,-1
 197 1664 l 1,4,-1
 417 1664 l 1,5,-1
 417 991 l 1,6,-1
 616 1071 l 1,7,-1
 616 910 l 1,8,-1
 417 834 l 1,9,-1
 417 0 l 1,10,-1
 197 0 l 1,11,-1
 197 749 l 1,0,-1
EndSplineSet
EndChar

StartChar: oe
Encoding: 339 339 175
Width: 1920
Flags: W
LayerCount: 2
Fore
SplineSet
593 -16 m 0,0,1
 457 -16 457 -16 361.5 33.5 c 128,-1,2
 266 83 266 83 206.5 167 c 128,-1,3
 147 251 147 251 120.5 361.5 c 128,-1,4
 94 472 94 472 96 594 c 0,5,6
 98 731 98 731 138.5 836 c 128,-1,7
 179 941 179 941 248.5 1012 c 128,-1,8
 318 1083 318 1083 412 1119.5 c 128,-1,9
 506 1156 506 1156 616 1156 c 0,10,11
 756 1156 756 1156 851.5 1104 c 128,-1,12
 947 1052 947 1052 1006 963 c 1,13,14
 1070 1051 1070 1051 1169 1102.5 c 128,-1,15
 1268 1154 1268 1154 1403 1156 c 0,16,17
 1488 1157 1488 1157 1563.5 1130.5 c 128,-1,18
 1639 1104 1639 1104 1695.5 1049.5 c 128,-1,19
 1752 995 1752 995 1786 914 c 128,-1,20
 1820 833 1820 833 1823 726 c 1,21,22
 1823 661 1823 661 1821.5 610.5 c 128,-1,23
 1820 560 1820 560 1812 522 c 1,24,-1
 1109 522 l 1,25,26
 1109 517 1109 517 1109.5 512 c 128,-1,27
 1110 507 1110 507 1110 502 c 0,28,29
 1115 401 1115 401 1143.5 334 c 128,-1,30
 1172 267 1172 267 1218 226 c 128,-1,31
 1264 185 1264 185 1325 168 c 128,-1,32
 1386 151 1386 151 1455 151 c 0,33,34
 1484 151 1484 151 1525 156 c 128,-1,35
 1566 161 1566 161 1607.5 169 c 128,-1,36
 1649 177 1649 177 1686 188.5 c 128,-1,37
 1723 200 1723 200 1744 212 c 1,38,-1
 1786 86 l 1,39,40
 1758 63 1758 63 1713 44.5 c 128,-1,41
 1668 26 1668 26 1615.5 12.5 c 128,-1,42
 1563 -1 1563 -1 1506.5 -8.5 c 128,-1,43
 1450 -16 1450 -16 1399 -16 c 0,44,45
 1263 -16 1263 -16 1162.5 32.5 c 128,-1,46
 1062 81 1062 81 998 175 c 1,47,48
 928 80 928 80 824 32 c 128,-1,49
 720 -16 720 -16 593 -16 c 0,0,1
1616 668 m 1,50,51
 1620 729 1620 729 1613 788.5 c 128,-1,52
 1606 848 1606 848 1581.5 895 c 128,-1,53
 1557 942 1557 942 1511 971 c 128,-1,54
 1465 1000 1465 1000 1390 1000 c 0,55,56
 1339 1000 1339 1000 1293 982.5 c 128,-1,57
 1247 965 1247 965 1210.5 926 c 128,-1,58
 1174 887 1174 887 1149 823.5 c 128,-1,59
 1124 760 1124 760 1114 668 c 1,60,-1
 1616 668 l 1,50,51
599 140 m 0,61,62
 671 138 671 138 726.5 166 c 128,-1,63
 782 194 782 194 819.5 247.5 c 128,-1,64
 857 301 857 301 876 379 c 128,-1,65
 895 457 895 457 895 556 c 0,66,67
 895 647 895 647 878 727.5 c 128,-1,68
 861 808 861 808 826 867.5 c 128,-1,69
 791 927 791 927 737 962 c 128,-1,70
 683 997 683 997 610 998 c 0,71,72
 539 999 539 999 484.5 973 c 128,-1,73
 430 947 430 947 393.5 895 c 128,-1,74
 357 843 357 843 338 766.5 c 128,-1,75
 319 690 319 690 319 591 c 0,76,77
 319 499 319 499 336 418 c 128,-1,78
 353 337 353 337 387.5 275.5 c 128,-1,79
 422 214 422 214 474.5 177.5 c 128,-1,80
 527 141 527 141 599 140 c 0,61,62
EndSplineSet
EndChar

StartChar: OE
Encoding: 338 338 177
Width: 2063
Flags: W
LayerCount: 2
Fore
SplineSet
775 -16 m 0,0,1
 617 -19 617 -19 491 39.5 c 128,-1,2
 365 98 365 98 277 203 c 128,-1,3
 189 308 189 308 143 453 c 128,-1,4
 97 598 97 598 100 769 c 0,5,6
 104 957 104 957 157 1099 c 128,-1,7
 210 1241 210 1241 303 1336.5 c 128,-1,8
 396 1432 396 1432 524 1482.5 c 128,-1,9
 652 1533 652 1533 805 1538 c 0,10,11
 856 1540 856 1540 918.5 1531.5 c 128,-1,12
 981 1523 981 1523 1040 1498 c 1,13,-1
 1040 1522 l 1,14,-1
 1916 1522 l 1,15,-1
 1916 1350 l 1,16,-1
 1263 1350 l 1,17,-1
 1263 870 l 1,18,-1
 1742 870 l 1,19,-1
 1742 698 l 1,20,-1
 1263 698 l 1,21,-1
 1263 175 l 1,22,-1
 1989 175 l 1,23,-1
 1989 0 l 1,24,-1
 1040 0 l 1,25,-1
 1040 50 l 1,26,27
 986 20 986 20 923 3 c 128,-1,28
 860 -14 860 -14 775 -16 c 0,0,1
784 152 m 0,29,30
 936 152 936 152 1040 232 c 1,31,-1
 1040 1309 l 1,32,33
 992 1340 992 1340 933.5 1354.5 c 128,-1,34
 875 1369 875 1369 800 1369 c 0,35,36
 706 1369 706 1369 620 1333.5 c 128,-1,37
 534 1298 534 1298 468 1223 c 128,-1,38
 402 1148 402 1148 363 1032.5 c 128,-1,39
 324 917 324 917 324 758 c 0,40,41
 324 638 324 638 353.5 528 c 128,-1,42
 383 418 383 418 441 334.5 c 128,-1,43
 499 251 499 251 585 201.5 c 128,-1,44
 671 152 671 152 784 152 c 0,29,30
EndSplineSet
EndChar

StartChar: hbar
Encoding: 295 295 191
Width: 1289
Flags: W
LayerCount: 2
Fore
SplineSet
176 1284 m 1,0,-1
 36 1284 l 1,1,-1
 36 1416 l 1,2,-1
 176 1416 l 1,3,-1
 176 1664 l 1,4,-1
 396 1664 l 1,5,-1
 396 1416 l 1,6,-1
 628 1416 l 1,7,-1
 628 1284 l 1,8,-1
 396 1284 l 1,9,-1
 396 1189 l 1,10,-1
 386 1027 l 1,11,12
 419 1051 419 1051 463 1073.5 c 128,-1,13
 507 1096 507 1096 557 1114 c 128,-1,14
 607 1132 607 1132 661 1143.5 c 128,-1,15
 715 1155 715 1155 768 1157 c 0,16,17
 861 1159 861 1159 927.5 1134 c 128,-1,18
 994 1109 994 1109 1036.5 1053 c 128,-1,19
 1079 997 1079 997 1099 908.5 c 128,-1,20
 1119 820 1119 820 1119 695 c 2,21,-1
 1119 0 l 1,22,-1
 899 0 l 1,23,-1
 899 711 l 2,24,25
 899 781 899 781 889 831.5 c 128,-1,26
 879 882 879 882 853.5 914.5 c 128,-1,27
 828 947 828 947 785 961.5 c 128,-1,28
 742 976 742 976 677 973 c 0,29,30
 649 972 649 972 614.5 965 c 128,-1,31
 580 958 580 958 543 945 c 128,-1,32
 506 932 506 932 468 913 c 128,-1,33
 430 894 430 894 396 869 c 1,34,-1
 396 0 l 1,35,-1
 176 0 l 1,36,-1
 176 1284 l 1,0,-1
EndSplineSet
EndChar

StartChar: trademark
Encoding: 8482 8482 192
Width: 2218
Flags: W
LayerCount: 2
Fore
SplineSet
1049 1543 m 1,0,-1
 1342 1543 l 1,1,-1
 1486 1138 l 1,2,-1
 1524 997 l 1,3,-1
 1554 1138 l 1,4,-1
 1683 1543 l 1,5,-1
 1959 1543 l 1,6,-1
 2033 767 l 1,7,-1
 1856 767 l 1,8,-1
 1817 1303 l 1,9,-1
 1810 1428 l 1,10,-1
 1767 1295 l 1,11,-1
 1584 760 l 1,12,-1
 1466 760 l 1,13,-1
 1257 1295 l 1,14,-1
 1206 1430 l 1,15,-1
 1203 1303 l 1,16,-1
 1178 767 l 1,17,-1
 1008 767 l 1,18,-1
 1049 1543 l 1,0,-1
426 1391 m 1,19,-1
 178 1390 l 1,20,-1
 177 1543 l 1,21,-1
 866 1543 l 1,22,-1
 866 1390 l 1,23,-1
 610 1391 l 1,24,-1
 610 767 l 1,25,-1
 426 767 l 1,26,-1
 426 1391 l 1,19,-1
EndSplineSet
EndChar

StartChar: perthousand
Encoding: 8240 8240 193
Width: 2800
Flags: W
LayerCount: 2
Fore
SplineSet
1988 460 m 0,0,1
 1988 560 1988 560 2019.5 637.5 c 128,-1,2
 2051 715 2051 715 2104.5 768.5 c 128,-1,3
 2158 822 2158 822 2227.5 850.5 c 128,-1,4
 2297 879 2297 879 2372 881 c 0,5,6
 2464 883 2464 883 2531 851.5 c 128,-1,7
 2598 820 2598 820 2641 763.5 c 128,-1,8
 2684 707 2684 707 2704.5 631 c 128,-1,9
 2725 555 2725 555 2725 468 c 0,10,11
 2725 368 2725 368 2693.5 291 c 128,-1,12
 2662 214 2662 214 2608.5 161.5 c 128,-1,13
 2555 109 2555 109 2486 81 c 128,-1,14
 2417 53 2417 53 2342 51 c 0,15,16
 2258 49 2258 49 2192 81.5 c 128,-1,17
 2126 114 2126 114 2081 170.5 c 128,-1,18
 2036 227 2036 227 2012 302 c 128,-1,19
 1988 377 1988 377 1988 460 c 0,0,1
2184 468 m 0,20,21
 2184 410 2184 410 2195.5 360.5 c 128,-1,22
 2207 311 2207 311 2228.5 274.5 c 128,-1,23
 2250 238 2250 238 2282 217.5 c 128,-1,24
 2314 197 2314 197 2355 197 c 0,25,26
 2440 197 2440 197 2485 267 c 128,-1,27
 2530 337 2530 337 2530 461 c 0,28,29
 2530 523 2530 523 2518.5 573.5 c 128,-1,30
 2507 624 2507 624 2485.5 660 c 128,-1,31
 2464 696 2464 696 2432 716 c 128,-1,32
 2400 736 2400 736 2359 736 c 0,33,34
 2274 736 2274 736 2229 664 c 128,-1,35
 2184 592 2184 592 2184 468 c 0,20,21
1207 1530 m 1,36,-1
 1397 1530 l 1,37,-1
 747 0 l 1,38,-1
 557 0 l 1,39,-1
 1207 1530 l 1,36,-1
429 665 m 0,40,41
 345 663 345 663 279 696 c 128,-1,42
 213 729 213 729 167.5 785.5 c 128,-1,43
 122 842 122 842 98.5 917 c 128,-1,44
 75 992 75 992 75 1075 c 0,45,46
 75 1175 75 1175 106.5 1252.5 c 128,-1,47
 138 1330 138 1330 191.5 1383.5 c 128,-1,48
 245 1437 245 1437 314 1465.5 c 128,-1,49
 383 1494 383 1494 458 1496 c 0,50,51
 551 1498 551 1498 617.5 1466.5 c 128,-1,52
 684 1435 684 1435 727.5 1378.5 c 128,-1,53
 771 1322 771 1322 791.5 1246 c 128,-1,54
 812 1170 812 1170 812 1083 c 0,55,56
 812 983 812 983 780.5 906 c 128,-1,57
 749 829 749 829 695.5 776 c 128,-1,58
 642 723 642 723 573 695 c 128,-1,59
 504 667 504 667 429 665 c 0,40,41
442 812 m 0,60,61
 527 812 527 812 572 882 c 128,-1,62
 617 952 617 952 617 1076 c 0,63,64
 617 1138 617 1138 605.5 1188.5 c 128,-1,65
 594 1239 594 1239 572 1275 c 128,-1,66
 550 1311 550 1311 518 1330.5 c 128,-1,67
 486 1350 486 1350 446 1350 c 0,68,69
 361 1350 361 1350 315.5 1278 c 128,-1,70
 270 1206 270 1206 270 1083 c 0,71,72
 270 1025 270 1025 281.5 975.5 c 128,-1,73
 293 926 293 926 315 889.5 c 128,-1,74
 337 853 337 853 369 832.5 c 128,-1,75
 401 812 401 812 442 812 c 0,60,61
1150 460 m 0,76,77
 1150 560 1150 560 1181.5 637.5 c 128,-1,78
 1213 715 1213 715 1266.5 768.5 c 128,-1,79
 1320 822 1320 822 1389.5 850.5 c 128,-1,80
 1459 879 1459 879 1534 881 c 0,81,82
 1626 883 1626 883 1693 851.5 c 128,-1,83
 1760 820 1760 820 1803 763.5 c 128,-1,84
 1846 707 1846 707 1866.5 631 c 128,-1,85
 1887 555 1887 555 1887 468 c 0,86,87
 1887 368 1887 368 1855.5 291 c 128,-1,88
 1824 214 1824 214 1770.5 161.5 c 128,-1,89
 1717 109 1717 109 1648 81 c 128,-1,90
 1579 53 1579 53 1504 51 c 0,91,92
 1420 49 1420 49 1354 81.5 c 128,-1,93
 1288 114 1288 114 1243 170.5 c 128,-1,94
 1198 227 1198 227 1174 302 c 128,-1,95
 1150 377 1150 377 1150 460 c 0,76,77
1346 468 m 0,96,97
 1346 410 1346 410 1357.5 360.5 c 128,-1,98
 1369 311 1369 311 1390.5 274.5 c 128,-1,99
 1412 238 1412 238 1444 217.5 c 128,-1,100
 1476 197 1476 197 1517 197 c 0,101,102
 1602 197 1602 197 1647 267 c 128,-1,103
 1692 337 1692 337 1692 461 c 0,104,105
 1692 523 1692 523 1680.5 573.5 c 128,-1,106
 1669 624 1669 624 1647.5 660 c 128,-1,107
 1626 696 1626 696 1594 716 c 128,-1,108
 1562 736 1562 736 1521 736 c 0,109,110
 1436 736 1436 736 1391 664 c 128,-1,111
 1346 592 1346 592 1346 468 c 0,96,97
EndSplineSet
Ligature2: "'frac' Diagonal Fractions in Latin lookup 10 subtable" zero slash zero zero
EndChar

StartChar: Eth
Encoding: 208 208 194
Width: 1472
Flags: W
LayerCount: 2
Fore
SplineSet
194 720 m 1,0,-1
 66 720 l 1,1,-1
 66 869 l 1,2,-1
 194 869 l 1,3,-1
 194 1522 l 1,4,-1
 306 1522 l 2,5,6
 343 1522 343 1522 386 1524.5 c 128,-1,7
 429 1527 429 1527 475.5 1530 c 128,-1,8
 522 1533 522 1533 570 1535.5 c 128,-1,9
 618 1538 618 1538 666 1538 c 0,10,11
 849 1538 849 1538 985 1488.5 c 128,-1,12
 1121 1439 1121 1439 1210.5 1344.5 c 128,-1,13
 1300 1250 1300 1250 1344 1114 c 128,-1,14
 1388 978 1388 978 1388 804 c 0,15,16
 1388 609 1388 609 1336 455.5 c 128,-1,17
 1284 302 1284 302 1187.5 196 c 128,-1,18
 1091 90 1091 90 952.5 35.5 c 128,-1,19
 814 -19 814 -19 642 -16 c 0,20,21
 604 -15 604 -15 558 -12.5 c 128,-1,22
 512 -10 512 -10 463.5 -7 c 128,-1,23
 415 -4 415 -4 367.5 -2 c 128,-1,24
 320 0 320 0 279 0 c 2,25,-1
 194 0 l 1,26,-1
 194 720 l 1,0,-1
418 168 m 1,27,28
 443 162 443 162 474.5 158.5 c 128,-1,29
 506 155 506 155 540.5 152.5 c 128,-1,30
 575 150 575 150 610 149.5 c 128,-1,31
 645 149 645 149 677 149 c 0,32,33
 782 151 782 151 869.5 187 c 128,-1,34
 957 223 957 223 1021 298 c 128,-1,35
 1085 373 1085 373 1120.5 490 c 128,-1,36
 1156 607 1156 607 1156 771 c 0,37,38
 1156 940 1156 940 1121.5 1055.5 c 128,-1,39
 1087 1171 1087 1171 1019 1242.5 c 128,-1,40
 951 1314 951 1314 849.5 1345.5 c 128,-1,41
 748 1377 748 1377 614 1377 c 0,42,43
 552 1377 552 1377 501.5 1372.5 c 128,-1,44
 451 1368 451 1368 418 1361 c 1,45,-1
 418 869 l 1,46,-1
 812 869 l 1,47,-1
 812 720 l 1,48,-1
 418 720 l 1,49,-1
 418 168 l 1,27,28
EndSplineSet
EndChar

StartChar: florin
Encoding: 402 402 195
Width: 1169
Flags: W
LayerCount: 2
Fore
SplineSet
397 972 m 1,0,-1
 192 972 l 1,1,-1
 200 1086 l 1,2,-1
 409 1140 l 1,3,-1
 417 1204 l 2,4,5
 433 1336 433 1336 476 1428 c 128,-1,6
 519 1520 519 1520 580.5 1577 c 128,-1,7
 642 1634 642 1634 719.5 1659.5 c 128,-1,8
 797 1685 797 1685 882 1685 c 0,9,10
 949 1685 949 1685 985 1678.5 c 128,-1,11
 1021 1672 1021 1672 1032 1667 c 1,12,-1
 1019 1488 l 1,13,14
 1005 1496 1005 1496 963.5 1501.5 c 128,-1,15
 922 1507 922 1507 854 1507 c 0,16,17
 815 1507 815 1507 779.5 1496 c 128,-1,18
 744 1485 744 1485 715.5 1458 c 128,-1,19
 687 1431 687 1431 667 1384.5 c 128,-1,20
 647 1338 647 1338 639 1268 c 2,21,-1
 624 1140 l 1,22,-1
 923 1140 l 1,23,-1
 910 972 l 1,24,-1
 611 972 l 1,25,-1
 500 -356 l 1,26,-1
 285 -356 l 1,27,-1
 397 972 l 1,0,-1
EndSplineSet
EndChar

StartChar: Delta
Encoding: 8710 8710 197
Width: 1577
Flags: W
LayerCount: 2
Fore
SplineSet
743 1508 m 1,0,-1
 775 1508 l 1,1,-1
 1521 27 l 1,2,-1
 1505 0 l 1,3,-1
 69 0 l 1,4,-1
 55 22 l 1,5,-1
 743 1508 l 1,0,-1
1220 174 m 1,6,-1
 768 1123 l 1,7,-1
 340 174 l 1,8,-1
 1220 174 l 1,6,-1
EndSplineSet
EndChar

StartChar: lessequal
Encoding: 8804 8804 198
Width: 1368
Flags: W
LayerCount: 2
Fore
SplineSet
160 850 m 1,0,-1
 1130 1281 l 1,1,-1
 1130 1079 l 1,2,-1
 389 773 l 1,3,-1
 1130 467 l 1,4,-1
 1130 264 l 1,5,-1
 160 695 l 1,6,-1
 160 850 l 1,0,-1
160 162 m 1,7,-1
 1130 162 l 1,8,-1
 1130 0 l 1,9,-1
 160 0 l 1,10,-1
 160 162 l 1,7,-1
EndSplineSet
EndChar

StartChar: notequal
Encoding: 8800 8800 200
Width: 1399
Flags: W
LayerCount: 2
Fore
SplineSet
494 433 m 1,0,-1
 242 433 l 1,1,-1
 242 599 l 1,2,-1
 555 599 l 1,3,-1
 681 949 l 1,4,-1
 242 949 l 1,5,-1
 242 1116 l 1,6,-1
 743 1116 l 1,7,-1
 820 1319 l 1,8,-1
 992 1319 l 1,9,-1
 915 1116 l 1,10,-1
 1157 1116 l 1,11,-1
 1157 949 l 1,12,-1
 852 949 l 1,13,-1
 726 599 l 1,14,-1
 1157 599 l 1,15,-1
 1157 433 l 1,16,-1
 664 433 l 1,17,-1
 580 203 l 1,18,-1
 410 203 l 1,19,-1
 494 433 l 1,0,-1
EndSplineSet
EndChar

StartChar: lozenge
Encoding: 9674 9674 201
Width: 1175
Flags: W
LayerCount: 2
Fore
SplineSet
50 762 m 1,0,-1
 50 775 l 1,1,-1
 586 1516 l 1,2,-1
 590 1516 l 1,3,-1
 1125 775 l 1,4,-1
 1125 762 l 1,5,-1
 590 0 l 1,6,-1
 585 0 l 1,7,-1
 50 762 l 1,0,-1
589 293 m 1,8,-1
 908 769 l 1,9,-1
 908 772 l 1,10,-1
 589 1226 l 1,11,-1
 586 1226 l 1,12,-1
 267 772 l 1,13,-1
 267 766 l 1,14,-1
 586 293 l 1,15,-1
 589 293 l 1,8,-1
EndSplineSet
EndChar

StartChar: Omega
Encoding: 8486 8486 202
Width: 1804
Flags: W
LayerCount: 2
Fore
SplineSet
198 154 m 1,0,-1
 531 154 l 1,1,2
 472 200 472 200 412.5 273 c 128,-1,3
 353 346 353 346 304 437.5 c 128,-1,4
 255 529 255 529 224.5 636 c 128,-1,5
 194 743 194 743 194 859 c 0,6,7
 194 977 194 977 222 1074 c 128,-1,8
 250 1171 250 1171 299 1247.5 c 128,-1,9
 348 1324 348 1324 415 1380 c 128,-1,10
 482 1436 482 1436 559.5 1472.5 c 128,-1,11
 637 1509 637 1509 722.5 1527 c 128,-1,12
 808 1545 808 1545 894 1545 c 0,13,14
 1041 1545 1041 1545 1166 1501 c 128,-1,15
 1291 1457 1291 1457 1383 1370 c 128,-1,16
 1475 1283 1475 1283 1527 1155 c 128,-1,17
 1579 1027 1579 1027 1579 859 c 0,18,19
 1579 746 1579 746 1553.5 641 c 128,-1,20
 1528 536 1528 536 1484.5 445 c 128,-1,21
 1441 354 1441 354 1383.5 280 c 128,-1,22
 1326 206 1326 206 1262 154 c 1,23,-1
 1620 154 l 1,24,-1
 1620 0 l 1,25,-1
 1039 0 l 1,26,-1
 1039 151 l 1,27,28
 1101 191 1101 191 1158.5 259 c 128,-1,29
 1216 327 1216 327 1260 417 c 128,-1,30
 1304 507 1304 507 1330 616.5 c 128,-1,31
 1356 726 1356 726 1356 851 c 0,32,33
 1356 996 1356 996 1314.5 1097.5 c 128,-1,34
 1273 1199 1273 1199 1207 1262.5 c 128,-1,35
 1141 1326 1141 1326 1059 1354.5 c 128,-1,36
 977 1383 977 1383 895 1383 c 0,37,38
 809 1383 809 1383 723.5 1355 c 128,-1,39
 638 1327 638 1327 570 1264 c 128,-1,40
 502 1201 502 1201 460 1099.5 c 128,-1,41
 418 998 418 998 418 851 c 0,42,43
 418 726 418 726 450 616.5 c 128,-1,44
 482 507 482 507 531.5 417 c 128,-1,45
 581 327 581 327 641.5 259 c 128,-1,46
 702 191 702 191 760 151 c 1,47,-1
 760 0 l 1,48,-1
 199 0 l 1,49,-1
 198 154 l 1,0,-1
EndSplineSet
EndChar

StartChar: radical
Encoding: 8730 8730 203
Width: 1602
Flags: W
LayerCount: 2
Fore
SplineSet
84 604 m 1,0,-1
 267 716 l 1,1,-1
 461 716 l 1,2,-1
 774 -56 l 1,3,-1
 1366 1870 l 1,4,-1
 1582 1870 l 1,5,-1
 870 -354 l 1,6,-1
 696 -354 l 1,7,-1
 304 522 l 1,8,-1
 179 446 l 1,9,-1
 84 604 l 1,0,-1
EndSplineSet
EndChar

StartChar: summation
Encoding: 8721 8721 204
Width: 1593
Flags: W
LayerCount: 2
Fore
SplineSet
778 675 m 1,0,-1
 227 1442 l 1,1,-1
 257 1522 l 1,2,-1
 1290 1522 l 1,3,-1
 1290 1356 l 1,4,-1
 518 1356 l 1,5,-1
 1008 681 l 1,6,-1
 533 -14 l 1,7,-1
 1305 -14 l 1,8,-1
 1305 -170 l 1,9,-1
 253 -170 l 1,10,-1
 227 -116 l 1,11,-1
 778 675 l 1,0,-1
EndSplineSet
EndChar

StartChar: integral
Encoding: 8747 8747 205
Width: 1042
Flags: W
LayerCount: 2
Fore
SplineSet
194 -261 m 1,0,1
 204 -271 204 -271 223 -287 c 128,-1,2
 242 -303 242 -303 269.5 -318 c 128,-1,3
 297 -333 297 -333 332.5 -343.5 c 128,-1,4
 368 -354 368 -354 412 -354 c 0,5,6
 468 -354 468 -354 511 -340.5 c 128,-1,7
 554 -327 554 -327 583.5 -291 c 128,-1,8
 613 -255 613 -255 628 -192 c 128,-1,9
 643 -129 643 -129 643 -30 c 256,10,11
 643 69 643 69 613 169.5 c 128,-1,12
 583 270 583 270 538 371.5 c 128,-1,13
 493 473 493 473 440 575.5 c 128,-1,14
 387 678 387 678 342 782 c 128,-1,15
 297 886 297 886 267 991 c 128,-1,16
 237 1096 237 1096 237 1203 c 0,17,18
 237 1307 237 1307 263 1395.5 c 128,-1,19
 289 1484 289 1484 342.5 1548.5 c 128,-1,20
 396 1613 396 1613 476.5 1649 c 128,-1,21
 557 1685 557 1685 666 1685 c 0,22,23
 765 1685 765 1685 842 1655.5 c 128,-1,24
 919 1626 919 1626 964 1558 c 1,25,-1
 852 1445 l 1,26,27
 830 1476 830 1476 781 1498.5 c 128,-1,28
 732 1521 732 1521 661 1521 c 0,29,30
 599 1521 599 1521 556.5 1498 c 128,-1,31
 514 1475 514 1475 488 1433 c 128,-1,32
 462 1391 462 1391 450 1332.5 c 128,-1,33
 438 1274 438 1274 438 1202 c 0,34,35
 438 1102 438 1102 468 1002 c 128,-1,36
 498 902 498 902 543 801 c 128,-1,37
 588 700 588 700 640 598 c 128,-1,38
 692 496 692 496 737 392 c 128,-1,39
 782 288 782 288 812 182.5 c 128,-1,40
 842 77 842 77 842 -30 c 0,41,42
 842 -135 842 -135 821.5 -224.5 c 128,-1,43
 801 -314 801 -314 753.5 -379 c 128,-1,44
 706 -444 706 -444 629 -481 c 128,-1,45
 552 -518 552 -518 439 -518 c 0,46,47
 383 -518 383 -518 332.5 -507.5 c 128,-1,48
 282 -497 282 -497 239 -480 c 128,-1,49
 196 -463 196 -463 163.5 -440.5 c 128,-1,50
 131 -418 131 -418 111 -395 c 1,51,-1
 194 -261 l 1,52,-1
 194 -261 l 1,0,1
EndSplineSet
EndChar

StartChar: pi
Encoding: 960 960 206
Width: 1556
Flags: W
LayerCount: 2
Fore
SplineSet
178 97 m 1,0,1
 192 100 192 100 226.5 116.5 c 128,-1,2
 261 133 261 133 300 161 c 0,3,4
 341 191 341 191 365 226 c 128,-1,5
 389 261 389 261 402.5 301.5 c 128,-1,6
 416 342 416 342 421.5 388 c 128,-1,7
 427 434 427 434 432 487 c 1,8,-1
 467 956 l 1,9,-1
 414 956 l 2,10,11
 379 956 379 956 351 947.5 c 128,-1,12
 323 939 323 939 301 926 c 128,-1,13
 279 913 279 913 261.5 897.5 c 128,-1,14
 244 882 244 882 231 867 c 1,15,-1
 120 920 l 1,16,17
 121 929 121 929 125.5 943.5 c 128,-1,18
 130 958 130 958 137 974 c 128,-1,19
 144 990 144 990 152.5 1006 c 128,-1,20
 161 1022 161 1022 170 1035 c 0,21,22
 211 1089 211 1089 277.5 1114.5 c 128,-1,23
 344 1140 344 1140 449 1140 c 2,24,-1
 1162 1140 l 2,25,26
 1224 1140 1224 1140 1259.5 1157 c 128,-1,27
 1295 1174 1295 1174 1309 1215 c 1,28,-1
 1451 1215 l 1,29,30
 1447 1144 1447 1144 1425.5 1095 c 128,-1,31
 1404 1046 1404 1046 1366.5 1014.5 c 128,-1,32
 1329 983 1329 983 1276 969 c 128,-1,33
 1223 955 1223 955 1156 955 c 2,34,-1
 1152 955 l 1,35,-1
 1123 255 l 2,36,37
 1121 223 1121 223 1126.5 202 c 128,-1,38
 1132 181 1132 181 1141.5 169 c 128,-1,39
 1151 157 1151 157 1164.5 152.5 c 128,-1,40
 1178 148 1178 148 1192 148 c 0,41,42
 1214 148 1214 148 1237 161.5 c 128,-1,43
 1260 175 1260 175 1280.5 195 c 128,-1,44
 1301 215 1301 215 1317.5 238.5 c 128,-1,45
 1334 262 1334 262 1345 282 c 1,46,-1
 1452 233 l 1,47,48
 1444 187 1444 187 1416.5 141 c 128,-1,49
 1389 95 1389 95 1346 58.5 c 128,-1,50
 1303 22 1303 22 1247.5 -1 c 128,-1,51
 1192 -24 1192 -24 1128 -24 c 0,52,53
 1070 -24 1070 -24 1029.5 -5.5 c 128,-1,54
 989 13 989 13 964 48.5 c 128,-1,55
 939 84 939 84 929.5 134.5 c 128,-1,56
 920 185 920 185 924 249 c 2,57,-1
 973 955 l 1,58,-1
 652 955 l 1,59,-1
 624 428 l 2,60,61
 619 342 619 342 606 284.5 c 128,-1,62
 593 227 593 227 572.5 185.5 c 128,-1,63
 552 144 552 144 524.5 113.5 c 128,-1,64
 497 83 497 83 463 52 c 0,65,66
 434 25 434 25 395.5 6 c 128,-1,67
 357 -13 357 -13 312 -24 c 1,68,-1
 178 97 l 1,69,-1
 178 97 l 1,0,1
EndSplineSet
EndChar

StartChar: product
Encoding: 8719 8719 207
Width: 1657
Flags: W
LayerCount: 2
Fore
SplineSet
331 1356 m 1,0,-1
 138 1356 l 1,1,-1
 138 1522 l 1,2,-1
 1519 1522 l 1,3,-1
 1519 1356 l 1,4,-1
 1326 1356 l 1,5,-1
 1326 -170 l 1,6,-1
 1101 -170 l 1,7,-1
 1101 1356 l 1,8,-1
 556 1356 l 1,9,-1
 556 -170 l 1,10,-1
 331 -170 l 1,11,-1
 331 1356 l 1,0,-1
EndSplineSet
EndChar

StartChar: partialdiff
Encoding: 8706 8706 208
Width: 1367
Flags: W
LayerCount: 2
Fore
SplineSet
166 447 m 0,0,1
 158 592 158 592 200.5 704.5 c 128,-1,2
 243 817 243 817 322 893.5 c 128,-1,3
 401 970 401 970 509.5 1010 c 128,-1,4
 618 1050 618 1050 742 1050 c 0,5,6
 811 1050 811 1050 879 1039 c 128,-1,7
 947 1028 947 1028 1010 1005 c 1,8,9
 998 1113 998 1113 965 1207.5 c 128,-1,10
 932 1302 932 1302 872 1371.5 c 128,-1,11
 812 1441 812 1441 721.5 1481 c 128,-1,12
 631 1521 631 1521 505 1521 c 0,13,14
 475 1521 475 1521 441.5 1517 c 128,-1,15
 408 1513 408 1513 376.5 1506 c 128,-1,16
 345 1499 345 1499 317 1489 c 128,-1,17
 289 1479 289 1479 270 1467 c 1,18,-1
 197 1593 l 1,19,20
 231 1617 231 1617 274.5 1634.5 c 128,-1,21
 318 1652 318 1652 365 1663.5 c 128,-1,22
 412 1675 412 1675 459 1680 c 128,-1,23
 506 1685 506 1685 547 1685 c 0,24,25
 674 1685 674 1685 774 1650 c 128,-1,26
 874 1615 874 1615 949.5 1553.5 c 128,-1,27
 1025 1492 1025 1492 1077.5 1409 c 128,-1,28
 1130 1326 1130 1326 1163 1230 c 128,-1,29
 1196 1134 1196 1134 1211 1030 c 128,-1,30
 1226 926 1226 926 1226 822 c 0,31,32
 1226 709 1226 709 1214 602 c 128,-1,33
 1202 495 1202 495 1175 400.5 c 128,-1,34
 1148 306 1148 306 1105 227 c 128,-1,35
 1062 148 1062 148 1000 91 c 128,-1,36
 938 34 938 34 856 2 c 128,-1,37
 774 -30 774 -30 670 -30 c 0,38,39
 567 -30 567 -30 477.5 3.5 c 128,-1,40
 388 37 388 37 320.5 99 c 128,-1,41
 253 161 253 161 212.5 249 c 128,-1,42
 172 337 172 337 166 447 c 0,0,1
377 481 m 0,43,44
 381 407 381 407 398 343 c 128,-1,45
 415 279 415 279 451 232 c 128,-1,46
 487 185 487 185 544.5 158.5 c 128,-1,47
 602 132 602 132 688 132 c 0,48,49
 760 132 760 132 812 164 c 128,-1,50
 864 196 864 196 901 249.5 c 128,-1,51
 938 303 938 303 960.5 372.5 c 128,-1,52
 983 442 983 442 996 517.5 c 128,-1,53
 1009 593 1009 593 1013.5 669 c 128,-1,54
 1018 745 1018 745 1018 811 c 2,55,-1
 1018 839 l 1,56,57
 951 874 951 874 880.5 885.5 c 128,-1,58
 810 897 810 897 725 897 c 0,59,60
 660 897 660 897 595.5 872 c 128,-1,61
 531 847 531 847 480.5 795.5 c 128,-1,62
 430 744 430 744 400.5 665.5 c 128,-1,63
 371 587 371 587 377 481 c 0,43,44
EndSplineSet
EndChar

StartChar: infinity
Encoding: 8734 8734 209
Width: 1804
Flags: W
LayerCount: 2
Fore
SplineSet
493 226 m 0,0,1
 395 224 395 224 317.5 254.5 c 128,-1,2
 240 285 240 285 186 337 c 128,-1,3
 132 389 132 389 103 458 c 128,-1,4
 74 527 74 527 74 602 c 0,5,6
 74 706 74 706 107.5 782.5 c 128,-1,7
 141 859 141 859 198 909 c 128,-1,8
 255 959 255 959 331.5 983.5 c 128,-1,9
 408 1008 408 1008 494 1008 c 0,10,11
 570 1008 570 1008 630.5 987 c 128,-1,12
 691 966 691 966 740.5 931 c 128,-1,13
 790 896 790 896 830.5 850.5 c 128,-1,14
 871 805 871 805 907 757 c 1,15,16
 941 804 941 804 984 849 c 128,-1,17
 1027 894 1027 894 1078.5 929 c 128,-1,18
 1130 964 1130 964 1189 985.5 c 128,-1,19
 1248 1007 1248 1007 1314 1008 c 0,20,21
 1422 1009 1422 1009 1500.5 976.5 c 128,-1,22
 1579 944 1579 944 1630 890.5 c 128,-1,23
 1681 837 1681 837 1705.5 768.5 c 128,-1,24
 1730 700 1730 700 1730 631 c 0,25,26
 1730 535 1730 535 1701 459.5 c 128,-1,27
 1672 384 1672 384 1616.5 332 c 128,-1,28
 1561 280 1561 280 1481.5 252.5 c 128,-1,29
 1402 225 1402 225 1300 225 c 0,30,31
 1226 225 1226 225 1167.5 245 c 128,-1,32
 1109 265 1109 265 1062 299 c 128,-1,33
 1015 333 1015 333 976 376.5 c 128,-1,34
 937 420 937 420 903 467 c 1,35,36
 869 420 869 420 826 376.5 c 128,-1,37
 783 333 783 333 731 300 c 128,-1,38
 679 267 679 267 619.5 247 c 128,-1,39
 560 227 560 227 493 226 c 0,0,1
516 378 m 0,40,41
 558 378 558 378 596.5 394.5 c 128,-1,42
 635 411 635 411 670.5 441 c 128,-1,43
 706 471 706 471 739 511.5 c 128,-1,44
 772 552 772 552 804 600 c 1,45,46
 775 641 775 641 744.5 684.5 c 128,-1,47
 714 728 714 728 679 763.5 c 128,-1,48
 644 799 644 799 603 821.5 c 128,-1,49
 562 844 562 844 514 844 c 0,50,51
 450 844 450 844 404.5 824.5 c 128,-1,52
 359 805 359 805 329.5 772.5 c 128,-1,53
 300 740 300 740 286 698.5 c 128,-1,54
 272 657 272 657 272 613 c 0,55,56
 272 565 272 565 286.5 522.5 c 128,-1,57
 301 480 301 480 331 447.5 c 128,-1,58
 361 415 361 415 407 396.5 c 128,-1,59
 453 378 453 378 516 378 c 0,40,41
1008 623 m 1,60,61
 1038 581 1038 581 1072.5 537 c 128,-1,62
 1107 493 1107 493 1147.5 457.5 c 128,-1,63
 1188 422 1188 422 1234 399.5 c 128,-1,64
 1280 377 1280 377 1334 377 c 0,65,66
 1384 377 1384 377 1421 397 c 128,-1,67
 1458 417 1458 417 1483 450 c 128,-1,68
 1508 483 1508 483 1520 525.5 c 128,-1,69
 1532 568 1532 568 1532 613 c 0,70,71
 1532 659 1532 659 1516.5 701 c 128,-1,72
 1501 743 1501 743 1470 774.5 c 128,-1,73
 1439 806 1439 806 1394 824.5 c 128,-1,74
 1349 843 1349 843 1290 843 c 0,75,76
 1247 843 1247 843 1209.5 826.5 c 128,-1,77
 1172 810 1172 810 1137.5 781 c 128,-1,78
 1103 752 1103 752 1071 711.5 c 128,-1,79
 1039 671 1039 671 1008 623 c 1,60,61
EndSplineSet
EndChar

StartChar: dotaccent.cap
Encoding: 65546 -1 221
Width: 403
Flags: W
LayerCount: 2
Fore
SplineSet
191 1679 m 0,0,1
 163 1679 163 1679 137.5 1688 c 128,-1,2
 112 1697 112 1697 93 1714.5 c 128,-1,3
 74 1732 74 1732 63 1756.5 c 128,-1,4
 52 1781 52 1781 52 1812 c 0,5,6
 52 1845 52 1845 66 1873 c 128,-1,7
 80 1901 80 1901 102.5 1921.5 c 128,-1,8
 125 1942 125 1942 153.5 1954 c 128,-1,9
 182 1966 182 1966 212 1966 c 0,10,11
 248 1966 248 1966 274 1956 c 128,-1,12
 300 1946 300 1946 317 1928 c 128,-1,13
 334 1910 334 1910 342.5 1885.5 c 128,-1,14
 351 1861 351 1861 351 1833 c 0,15,16
 351 1798 351 1798 337.5 1770 c 128,-1,17
 324 1742 324 1742 302 1721.5 c 128,-1,18
 280 1701 280 1701 251 1690 c 128,-1,19
 222 1679 222 1679 191 1679 c 0,0,1
EndSplineSet
EndChar

StartChar: Eogonek
Encoding: 280 280 222
Width: 1217
Flags: W
LayerCount: 2
Fore
SplineSet
194 1522 m 1,0,-1
 1070 1522 l 1,1,-1
 1070 1350 l 1,2,-1
 417 1350 l 1,3,-1
 417 870 l 1,4,-1
 896 870 l 1,5,-1
 896 698 l 1,6,-1
 417 698 l 1,7,-1
 417 175 l 1,8,-1
 1143 175 l 1,9,-1
 1143 0 l 1,10,-1
 1093 0 l 1,11,12
 1049 -25 1049 -25 1008.5 -55.5 c 128,-1,13
 968 -86 968 -86 938 -120 c 128,-1,14
 908 -154 908 -154 890 -189.5 c 128,-1,15
 872 -225 872 -225 873 -259 c 0,16,17
 874 -291 874 -291 884 -311.5 c 128,-1,18
 894 -332 894 -332 911.5 -343.5 c 128,-1,19
 929 -355 929 -355 952 -359.5 c 128,-1,20
 975 -364 975 -364 1001 -364 c 0,21,22
 1035 -364 1035 -364 1071 -356 c 128,-1,23
 1107 -348 1107 -348 1140 -335 c 1,24,-1
 1140 -453 l 1,25,26
 1119 -469 1119 -469 1091 -480.5 c 128,-1,27
 1063 -492 1063 -492 1031.5 -499 c 128,-1,28
 1000 -506 1000 -506 967 -509 c 128,-1,29
 934 -512 934 -512 903 -512 c 0,30,31
 850 -512 850 -512 805.5 -500 c 128,-1,32
 761 -488 761 -488 728 -463.5 c 128,-1,33
 695 -439 695 -439 676.5 -401 c 128,-1,34
 658 -363 658 -363 657 -312 c 0,35,36
 656 -264 656 -264 676.5 -217.5 c 128,-1,37
 697 -171 697 -171 733 -130.5 c 128,-1,38
 769 -90 769 -90 817 -56.5 c 128,-1,39
 865 -23 865 -23 920 0 c 1,40,-1
 194 0 l 1,41,-1
 194 1522 l 1,0,-1
EndSplineSet
EndChar

StartChar: macron.cap
Encoding: 65547 -1 224
Width: 647
Flags: W
LayerCount: 2
Fore
SplineSet
50 1877 m 1,0,-1
 597 1877 l 1,1,-1
 597 1715 l 1,2,-1
 50 1715 l 1,3,-1
 50 1877 l 1,0,-1
EndSplineSet
EndChar

StartChar: gcommaaccent
Encoding: 291 291 261
Width: 1217
Flags: W
LayerCount: 2
Fore
SplineSet
568 1324 m 1,0,1
 550 1333 550 1333 532.5 1351.5 c 128,-1,2
 515 1370 515 1370 501.5 1397 c 128,-1,3
 488 1424 488 1424 479.5 1459 c 128,-1,4
 471 1494 471 1494 471 1536 c 0,5,6
 471 1588 471 1588 486 1632 c 128,-1,7
 501 1676 501 1676 523.5 1710.5 c 128,-1,8
 546 1745 546 1745 573 1768 c 128,-1,9
 600 1791 600 1791 623 1802 c 1,10,-1
 698 1761 l 1,11,-1
 698 1735 l 1,12,13
 683 1717 683 1717 671 1677.5 c 128,-1,14
 659 1638 659 1638 659 1590 c 0,15,16
 659 1571 659 1571 663.5 1550.5 c 128,-1,17
 668 1530 668 1530 677 1512.5 c 128,-1,18
 686 1495 686 1495 698.5 1482 c 128,-1,19
 711 1469 711 1469 726 1466 c 1,20,-1
 726 1416 l 1,21,-1
 568 1324 l 1,0,1
110 -181 m 0,22,23
 110 -138 110 -138 124.5 -102 c 128,-1,24
 139 -66 139 -66 162 -36.5 c 128,-1,25
 185 -7 185 -7 213.5 15 c 128,-1,26
 242 37 242 37 269 52 c 1,27,28
 241 68 241 68 224 88.5 c 128,-1,29
 207 109 207 109 197 131.5 c 128,-1,30
 187 154 187 154 184 177 c 128,-1,31
 181 200 181 200 181 223 c 0,32,33
 183 280 183 280 219 338.5 c 128,-1,34
 255 397 255 397 321 442 c 1,35,36
 230 490 230 490 177 572 c 128,-1,37
 124 654 124 654 124 762 c 0,38,39
 124 862 124 862 158.5 935 c 128,-1,40
 193 1008 193 1008 253.5 1056.5 c 128,-1,41
 314 1105 314 1105 396.5 1129.5 c 128,-1,42
 479 1154 479 1154 574 1156 c 0,43,44
 655 1158 655 1158 729 1140.5 c 128,-1,45
 803 1123 803 1123 863 1087 c 1,46,47
 881 1099 881 1099 904.5 1110 c 128,-1,48
 928 1121 928 1121 956 1129.5 c 128,-1,49
 984 1138 984 1138 1014.5 1143 c 128,-1,50
 1045 1148 1045 1148 1076 1148 c 2,51,-1
 1187 1148 l 1,52,-1
 1187 973 l 1,53,-1
 978 973 l 1,54,55
 1002 932 1002 932 1015.5 883 c 128,-1,56
 1029 834 1029 834 1029 775 c 0,57,58
 1029 680 1029 680 993.5 607 c 128,-1,59
 958 534 958 534 896.5 484.5 c 128,-1,60
 835 435 835 435 751 409.5 c 128,-1,61
 667 384 667 384 570 384 c 0,62,63
 502 384 502 384 446 397 c 1,64,65
 418 377 418 377 400 347 c 128,-1,66
 382 317 382 317 382 283 c 0,67,68
 382 251 382 251 389 229.5 c 128,-1,69
 396 208 396 208 411.5 195.5 c 128,-1,70
 427 183 427 183 451.5 178 c 128,-1,71
 476 173 476 173 512 173 c 2,72,-1
 719 173 l 2,73,74
 849 173 849 173 931 145.5 c 128,-1,75
 1013 118 1013 118 1059 73 c 128,-1,76
 1105 28 1105 28 1122 -29 c 128,-1,77
 1139 -86 1139 -86 1139 -145 c 0,78,79
 1139 -231 1139 -231 1095 -300 c 128,-1,80
 1051 -369 1051 -369 975.5 -417.5 c 128,-1,81
 900 -466 900 -466 799.5 -491.5 c 128,-1,82
 699 -517 699 -517 585 -517 c 0,83,84
 476 -517 476 -517 388.5 -496.5 c 128,-1,85
 301 -476 301 -476 239 -434.5 c 128,-1,86
 177 -393 177 -393 143.5 -330 c 128,-1,87
 110 -267 110 -267 110 -181 c 0,22,23
575 531 m 0,88,89
 630 531 630 531 673.5 542.5 c 128,-1,90
 717 554 717 554 747.5 581 c 128,-1,91
 778 608 778 608 794 653.5 c 128,-1,92
 810 699 810 699 810 767 c 0,93,94
 810 885 810 885 755 946 c 128,-1,95
 700 1007 700 1007 585 1007 c 0,96,97
 537 1007 537 1007 493 997 c 128,-1,98
 449 987 449 987 416 961 c 128,-1,99
 383 935 383 935 363 889.5 c 128,-1,100
 343 844 343 844 343 772 c 0,101,102
 343 724 343 724 356 680.5 c 128,-1,103
 369 637 369 637 397 603.5 c 128,-1,104
 425 570 425 570 469 550.5 c 128,-1,105
 513 531 513 531 575 531 c 0,88,89
324 -155 m 0,106,107
 324 -207 324 -207 338.5 -246.5 c 128,-1,108
 353 -286 353 -286 385.5 -312.5 c 128,-1,109
 418 -339 418 -339 469 -352.5 c 128,-1,110
 520 -366 520 -366 593 -366 c 0,111,112
 660 -366 660 -366 720.5 -355 c 128,-1,113
 781 -344 781 -344 827.5 -322.5 c 128,-1,114
 874 -301 874 -301 901.5 -268.5 c 128,-1,115
 929 -236 929 -236 929 -193 c 0,116,117
 929 -147 929 -147 917.5 -111 c 128,-1,118
 906 -75 906 -75 874.5 -50.5 c 128,-1,119
 843 -26 843 -26 788 -13 c 128,-1,120
 733 0 733 0 647 0 c 2,121,-1
 545 0 l 2,122,123
 500 0 500 0 464 1 c 128,-1,124
 428 2 428 2 397 7 c 1,125,126
 383 -5 383 -5 370 -20 c 128,-1,127
 357 -35 357 -35 346.5 -54.5 c 128,-1,128
 336 -74 336 -74 330 -98.5 c 128,-1,129
 324 -123 324 -123 324 -155 c 0,106,107
EndSplineSet
EndChar

StartChar: caronvertical
Encoding: 65548 -1 281
Width: 339
Flags: W
LayerCount: 2
Fore
SplineSet
65 1068 m 1,0,-1
 57 1096 l 1,1,2
 65 1124 65 1124 73.5 1149.5 c 128,-1,3
 82 1175 82 1175 89 1206.5 c 128,-1,4
 96 1238 96 1238 100.5 1280 c 128,-1,5
 105 1322 105 1322 105 1383 c 0,6,7
 105 1413 105 1413 100 1443.5 c 128,-1,8
 95 1474 95 1474 87 1502 c 128,-1,9
 79 1530 79 1530 69 1551.5 c 128,-1,10
 59 1573 59 1573 50 1585 c 1,11,-1
 64 1632 l 1,12,-1
 240 1687 l 1,13,14
 256 1672 256 1672 268 1647.5 c 128,-1,15
 280 1623 280 1623 287.5 1591.5 c 128,-1,16
 295 1560 295 1560 298.5 1522.5 c 128,-1,17
 302 1485 302 1485 302 1446 c 0,18,19
 302 1380 302 1380 291.5 1318.5 c 128,-1,20
 281 1257 281 1257 263 1203.5 c 128,-1,21
 245 1150 245 1150 222 1106.5 c 128,-1,22
 199 1063 199 1063 175 1034 c 1,23,-1
 65 1068 l 1,0,-1
EndSplineSet
EndChar

